<?xml version="1.0" encoding="utf-8"?>
<!-- Generator: Adobe Illustrator 23.0.1, SVG Export Plug-In . SVG Version: 6.00 Build 0)  -->
<svg version="1.1" xmlns="http://www.w3.org/2000/svg" xmlns:xlink="http://www.w3.org/1999/xlink" x="0px" y="0px"
	 viewBox="0 0 579.91 707.46" style="enable-background:new 0 0 579.91 707.46;" xml:space="preserve">
<g id="Layer_1">
	<path d="M65,288.55c-4-19-7.67-20-12-20c0,6,0,6,3,15c-3-3-4.16-3.88-8-9c-6-8-8-11-15-10c2,6,6.99,13.84,10,18
		c5.17,7.16,9.32,10.3,15,16c1,4,4,13,8,24c0.83,2.28,1,7-1.38,11.11c-1.47,0.43-2.49,0.48-3.32,0.97c-3.3,1.92-6.2,8.49-8.49,15.65
		c-4.97,15.58-8.78,31.44-6.57,48.08c0.79,5.91,1.01,11.89,1.85,17.79c1.52,10.64,13.85,21.01,24.01,20.29
		c9.53-0.68,18.66-2.41,27.57-6.55c6.97-3.24,14.91-5.72,22.51-6c13.76-0.5,26.46,4.33,38.3,11.49c8.76,5.3,17.85,10.31,28.56,10.06
		c7.22-0.17,12.89-4.26,18.14-8.68c3.4-2.86,6.28-6.33,10.11-10.27c3.58,3.87,6.19,8.54,10.15,10.58c6.47,3.33,5.62,8.44,5.5,13.71
		c-0.26,11.61-0.6,23.21-1.05,34.81c-0.05,1.25-0.88,2.65-1.73,3.67c-2.21,2.66-5.18,4.83-6.84,7.76
		c-2.98,5.27-4.98,11.09-7.88,16.41c-2.1,3.85-3.38,7.27,0.54,10.69c-7.62,11.76-15.17,23.12-22.39,34.7
		c-3.22,5.15-5.49,10.89-8.68,16.06c-8.77,14.23-11.16,30.72-16.36,46.17c-5.1,15.12-8.61,30.82-12.13,46.42
		c-2.99,13.22-5,26.66-7.44,40c131.98,0,263.97,0,395.95,0c-1.72-5.47-3.58-10.91-5.12-16.43c-1.76-6.29-3.19-12.67-4.86-18.98
		c-3.37-12.77-6.48-25.62-10.38-38.23c-1.61-5.22-5.21-9.79-7.5-14.84c-2.33-5.14-3.78-10.7-6.3-15.73
		c-3.78-7.53,0.77-15.08-0.65-22.61c-0.54-2.83,1.62-4.17,4.99-4.29c9.13-0.31,18.26-0.67,26.53-5.77c3.9-2.41,3.88-5.04,2.2-8.26
		c-5.8-11.11-11.68-22.17-17.68-33.17c-3.58-6.57-8.23-12.66-11.02-19.53c-3.92-9.65-7.15-19.67-9.63-29.79
		c-3.98-16.23-6.8-32.74-10.75-48.97c-1.38-5.68-4.64-10.9-7.03-16.34c-0.26-0.58-0.47-1.18-0.9-2.26
		c10.88-2.03,21.7-3.56,30.74-10.83c-1.8,0.24-3.73,0.14-5.37,0.78c-8.04,3.18-16.3,4.49-24.6,1.89c-2.53-0.79-5.41-3.43-6.31-5.89
		c-3.75-10.32-7.04-20.82-10.06-31.38c-2.94-10.29-0.74-19.26,6.93-27.28c7.27-7.61,14.43-15.57,20.23-24.31
		c12.29-18.51,15.34-38.47,7-59.75c-2.25-5.75-3.05-12.08-4.39-18.18c-0.28-1.26-0.39-2.84,0.13-3.95
		c3.33-7.18,4.72-15.13,12.16-20.45c3.64-2.6,4.86-8.97,6.54-13.85c2.93-8.51,5.35-17.19,8.04-25.79c0.31-1,0.99-1.89,1.5-2.85
		c8.05,5.58,14.81,12.79,24.98,13.21c0.26-0.4,0.52-0.8,0.78-1.2c-2.75-1.9-5.86-3.46-8.18-5.79c-3.83-3.86-5.65-8.7-6.15-14.29
		c-0.43-4.81-1.58-9.64-3.12-14.22c-1.04-3.08-0.68-4.08,2.51-4.73c1.89-0.39,3.9-1.59,5.24-3c8.38-8.82,16.5-17.9,24.91-26.69
		c2.88-3.02,6.36-5.46,9.57-8.17c-0.29-0.67-0.57-1.34-0.86-2.02c-3.98,0-7.99,0.24-11.95-0.06c-5.35-0.41-10.66-1.52-16.02-1.82
		c-8.45-0.46-16.86-0.3-23.26,7.39c-0.75-1.67-1.65-2.79-1.72-3.95c-1.15-20.18-11.31-36.45-22.43-52.35
		c-7.47-10.68-15.74-20.98-26.57-28.04c-9.99-6.52-21.16-11.61-32.4-15.72c-11.26-4.12-23.01-8.73-34.94-8.94
		c-28.76-0.5-51.67,2.78-57.64,4.77c-16.22,5.4-30.01,14.96-43.11,25.4c-17.37,13.85-32.1,30.03-42.6,50.02
		c-5.34,10.17-9.98,20.29-12.82,31.48c-1.46,5.74-1.22,10.16,0.44,15.85c2.61,8.95,2.49,18.57-4.2,26.59
		c-8.32,9.97-17.07,19.62-24.81,30.02c-10.08,13.53-17.66,28.33-16.97,45.92c0.15,3.87,1.21,7.72,2.01,11.55
		c1.81,8.64,4.51,17.17,5.35,25.9c0.69,7.25,0.07,14.79-3.44,21.69c-5.07,9.97-11.34,18.87-21.88,23.59
		c-8.97,4.01-17.76,3.45-26-2.44c-2.26-1.62-4.92-2.69-7.66-3.43c12.27,19.92,31.26,23.05,53.78,20.41
		c-4.27,4.03-7.71,6.82-10.59,10.1c-4.38,5-8.33,10.37-12.53,15.54c-3,3.69-5.44,8.98-9.32,10.48c-4.25,1.63-10.44,1.02-14.76-0.91
		c-10.45-4.67-20.29-10.71-30.41-16.14c-6.72-3.61-19.47-7.18-26.23-10.71c-1.63-0.85-4.74-2.15-5.39-3.17s-4-3-4-3s0.34-9.02,1-11
		c4-8,8-17,11-25c3.58-5.75,12-30,12-30s-6.63-0.82-11,5c-3,4-5,7-10,17c-29-20-32-24-40-23c5,7,16,17,19,22c-6.69-3.6-17-11-24-16
		c-3.64-2.6-8-7-12-4C45,274.55,65,288.55,65,288.55z M436.94,555.94c-3.49-3.48-7.11-6.79-10.39-10.41
		c-5.48-6.07-10.74-12.36-16.11-18.53c-1.65-1.9-2.79-3.72-0.66-6.09c0.55-0.61,0.85-1.81,0.69-2.63
		c-1.4-7.56-3.03-15.07-4.38-22.63c-0.62-3.49-2.21-5.61-5.93-5.2c-4.11,0.46-4.64-2.27-4.05-4.98c1.26-5.84,2.57-11.76,4.74-17.31
		c4.74-12.12,9.85-24.09,15.21-35.95c1.14-2.52,3.97-4.27,6.37-6.75c9.54,11.96,12.46,25.02,13.51,38.72
		c0.72,9.45,2.4,18.99,1.71,28.34c-0.75,10.15-3.07,20.33-5.98,30.12c-2.25,7.56-1.68,13.04,4.66,17.59
		C444.61,546.19,444.63,546.53,436.94,555.94z"/>
</g>
<g id="Layer_2">
	<circle cx="76" cy="199.55" r="76"/>
</g>
</svg>
