<?xml version="1.0" encoding="utf-8"?>
<!-- Generator: Adobe Illustrator 23.0.1, SVG Export Plug-In . SVG Version: 6.00 Build 0)  -->
<svg version="1.1" id="Layer_1" xmlns="http://www.w3.org/2000/svg" xmlns:xlink="http://www.w3.org/1999/xlink" x="0px" y="0px"
	 viewBox="0 0 324.22 1030.57" style="enable-background:new 0 0 324.22 1030.57;" xml:space="preserve">
<path d="M323.74,406.24c1.06-29.01,0.29-58.17-1.3-87.18c-2.41-43.85-10.51-86.75-30.55-126.27c-10.78-21.26-24.24-40.78-46.67-52.4
	c-15.79-8.18-30.75-17.97-46.16-26.9c-2.76-1.6-8.06-5.91-8.06-5.91s2.53-2.96,3.34-5.2c2.64-7.31-0.35-13.14-5.85-18.6
	c-1.33-1.33-4.49-3.2-4.49-3.2s0.21-6.26-0.04-8.29c-1.08-8.79,0.26-18.09-1.99-26.49c-11.44-42.54-48.04-49.45-81.4-44.34
	C94.8,2.33,89.64,8.19,84.55,12.21C74.81,19.9,66.13,29.3,55.53,35.42c-11.62,6.71-24.98,10.35-37.42,15.7
	C15.42,52.27,2.32,56.55,0,58.57c2.92,1.6,16.84,2.77,19.89,3.07c6.96,0.69,16.99,0.51,21.05,0.22S47,61.57,47,61.57
	S32.35,73.72,24.82,80.24c9.95,1.5,17.11,3.08,24.33,3.52c2.9,0.18,8.85,0.81,8.85,0.81s2.25,3.68,3.25,6.86
	c3.11,9.89,5.82,20.12,10.6,29.2c4.81,9.12,7.65,16.82,1.61,26.66c-3.04,4.95-2.21,12.74,6.2,11.65c5.32-0.69,11.34-0.37,11.34-0.37
	s1.16,8.92,1.38,13.99c0.82,18.75,2.39,37.51,4.71,56.14c0.5,4,4.87,9.8,8.45,10.68c8.08,1.98,17.59,3.81,25.07,1.33
	c12.67-4.2,24.22-11.77,37.01-18.33c-0.41-0.88,0.3-0.04,0.31,0.81c0.03,1.97-0.04,3.99-0.47,5.9
	c-11.78,52.89-7.11,105.85-0.61,158.79c2.93,23.86,7.63,47.61,8.91,71.54c1.44,27.04-0.11,54.23-0.25,81.36
	c-0.01,2.88-0.19,7.64,1.24,8.33c1.95,0.94,5.25,0.46,5.25,0.46s-0.3,10.96-0.14,15.03c0.29,7.6-0.17,15.23,0.2,22.83
	c0.99,20.26,5.97,34.74,26.12,35.08c3.81,0.06,8.81-10.94,8.81-10.94s8.03,94.27,9.68,110.21c4.57,44.21,9.48,87.96,14.38,132.02
	c1.95,17.51,4.1,35.01,6.14,52.51c1.19,10.2,1.99,20.46,4.51,30.45c0.86,3.42,4.62,5.38,5.36,8.69c1.38,6.18-0.45,11.94,1.47,18.47
	c-4.37,9.87-23.44,24.11-36.62,19.15c-10.58-3.97-19.52-8.9-31.16-6.54c-12.98,2.63-20.64,14.09-21.31,27.24
	c-0.27,5.39,0.05,11.69,2.51,16.51c3.85,7.53,10.73,10.02,18.56,10.13c12.28,0.17,24.57,0,36.85,0c12.68,0,25.36,0,38.04,0l16.64,0
	c7.37,0,26.94,0.17,26.94,0.17s1.61-17.13,1.66-24.91c0.04-7.18,0.06-14.36,0.06-21.54c-0.01-14.36-1.07-27.91-1.24-39.5
	c-0.06-3.94,4.38-13.35,4.94-18.67c1.45-13.71,0.29-29.57-0.58-43.43c-2.09-33.54-3.62-67.7-6.15-101.49
	c-4.41-58.84-4.76-118.96-6.38-178.09c-0.05-2-0.3-7.38-0.3-7.38s2.82-2.8,4.04-4.02c19.47-19.6,20.53-42.41,13.21-67.19
	c-1.44-4.87-2.17-10.24-1.83-15.29C318.75,474.79,322.49,440.56,323.74,406.24z"/>
</svg>
