<?xml version="1.0" encoding="utf-8"?>
<!-- Generator: Adobe Illustrator 23.0.1, SVG Export Plug-In . SVG Version: 6.00 Build 0)  -->
<svg version="1.1" xmlns="http://www.w3.org/2000/svg" xmlns:xlink="http://www.w3.org/1999/xlink" x="0px" y="0px"
	 viewBox="0 0 369.5 455.9" style="enable-background:new 0 0 369.5 455.9;" xml:space="preserve">
<style type="text/css">
	.st0{fill:none;stroke:#000000;stroke-width:3;stroke-miterlimit:10;}
</style>
<g id="Layer_1">
	<path d="M210.9,135c1.1-2,2-9,3-15s1-10-1.1-16.9c-2.4-7.9-7.1-14.8-15.4-17.6c-6.9-2.4-15.4-1.7-22.6-1.5c-0.7,0-1.3,0.1-1.9,0.2
		l-0.1-0.2c-10.1,2.4-17.5,8.3-19.4,18.4c-1.6,8.4-2.5,17.5-1.1,25.8c1.4,8.6,5.1,17.2,9.5,24.8c1,1.7,3.1,4,3.1,4
		s-0.2,10.4-0.7,15.3c-0.4,4.1-2.7,6.5-6.1,7.5c-5.4,1.5-11.1,2.8-16.7,3.3c-15.1,1.4-25.6,8.9-31.7,22.6c-2.6,6-1.7,12.1,0.9,17.8
		c1.9,4.2,4.6,8.1,6.8,12.2c3.7,6.8,7.4,13.7,11.1,20.6c3,5.7,6.3,11.3,8.8,17.2c1.2,2.9,0.9,6.5,1.2,9.8
		c0.8,10.8,2.6,21.5-0.3,32.5c-2.4,8.8-8.1,16.4-6.9,26.7c0.8,6.7-2.3,14-4.5,20.8c-2.3,7.1-4.1,8.5-10.5,4.6
		c-6.6-4-13.7-5.7-21.2-4.7c-6.1,0.8-12.3,2.3-15.8,8.2c-0.7,1.2-0.6,2.9-0.9,4.4c1.8,0.3,3.7,0.8,5.5,0.9c2.7,0.1,5.5-0.2,8.2-0.4
		c0,0.5,0,1,0.1,1.5c-1.8,0.4-3.6,1-5.5,1.3c-25.5,4.8-45.9,17.4-60.3,39.3c-6.5,9.8-4.6,18.2,5.1,25c8.9,6.2,19.1,8.6,29.4,9.5
		c10.6,0.9,21.4,0,32.1,0.3c11.6,0.2,22.6-2.3,33.2-6.6c16.6-6.7,33.1-13.9,49.5-21c3.1-1.3,5.6-1.4,8.9,0
		c18,7.7,36.3,14.9,54.4,22.4c13.5,5.6,27.6,8.4,42.3,8.1c5.7-0.1,11.5-0.9,17.1-2c12-2.2,23.5-5.8,32.3-15.2
		c5.1-5.5,6.4-13.1,2-19.2c-3.4-4.8-7.6-9.4-12.4-12.8c-10.3-7.6-27.4-18.7-30.6-20.7s-3.8-2-5.8-3c3,0,5-3,4-4.2
		c-3.2-3.8-7.7-6.6-12.2-8.8c-9.3-4.6-18.6-1.4-27.7,1.4c-5.8,1.8-10-0.5-11.1-6.3c-2.4-11.8-4.7-23.6-7-35.4
		c-0.9-4.6-2.7-9.2-2.9-13.8c-0.6-16.3,5.4-31.7,8.6-47.4c1.9-9.2,7.3-17.8,11.4-26.5c4.3-9.3,9-18.5,13.4-27.9
		c0.9-1.9,1.5-4.2,1.2-6.2c-1.7-11.3-12.3-22.1-23.3-23.9c-8.7-1.5-17.7-1.5-26.4-3c-5.3-0.9-10.1-5.3-10-10c0.1-4.8,0-13,0-14
		c0.5-2.1,3.6-9,5.8-13.5S210.9,135,210.9,135z"/>
	<path d="M329.1,147.3c4.6,2.2,9.5,4.1,13.7,7c2.9,1.9,4.9,5.3,7.3,7.9c2-3.7,4.7-8.6,7.3-13.6c1.5-2.9,3.3-4.2,6.7-2.3
		c-1,1.8-1.9,3.5-2.9,5.4c1,0.6,2.3,1.3,3.8,2.2c-2.3,3.6-4.5,7-6.7,10.3c0.3,0,0.7,0,1-0.1c0,1.6,0.6,3.6,0,4.9
		c-5.4,10.8-14,19.1-24.3,24.8c-11.3,6.3-19.3,14.3-22,27.1c-2.5,12-3.9,24.3-7.6,35.9c-3.4,10.7-8.8,20.9-14.2,30.9
		c-3.5,6.5-9.4,6.8-14.6,0.8c-2.6-2.9-4.7-7.8-4.4-11.5c1.2-12.4,4.2-24.5,12.1-34.8c0.7-0.9,1-2.1,1.6-3.1
		c8.1-15.8,15.2-32.2,24.5-47.2C319.3,177.6,321.5,161.1,329.1,147.3z M333,153c-1.3,4.6-2.5,7.4-2.7,10.2c-0.1,2,0.7,5,2.2,6.1
		c3.1,2.3,6.7,0.6,8.5-2.1c1-1.6,0.7-5.1-0.4-6.9C339,157.6,336.2,155.9,333,153z"/>
	<path d="M7.7,166.4c-2.2-3.1-4.3-6.1-7.4-10.5c1.9-0.5,3.2-0.8,4.6-1.2c-1.2-1.8-2.4-3.5-3.9-5.6c4.4-2.3,6.4,0.3,8.1,3.2
		c2.5,4.2,4.8,8.5,7.4,13.4c1.7-6.8,6-10.2,11.9-12.4c2.4-0.9,4.4-2.9,7.5-5c0,0,1.4,0.8,1.8,1.9c3.5,8.5,6.6,17.3,10.3,25.7
		c1.9,4.2,5.1,7.9,7.2,12c5.4,10.4,10.3,21.1,15.9,31.4c4.2,7.7,8.8,15.1,13.7,22.3c8.2,12.2,13.6,25,10.3,40.1
		c-1.1,5.2-5.8,5.9-9.6,7.5c-3.5,1.5-5-1.4-6.5-3.7c-8.9-14.1-17.5-28.2-21-44.9c-1.9-8.9-4.6-17.6-7.6-26.3
		c-3.3-9.7-11.4-15.1-19.8-20.3c-9-5.6-17.2-12.4-23.1-21.4c-1-1.6-0.7-4.1-1-6.2C7,166.5,7.4,166.4,7.7,166.4z M33.3,154.9
		c-3,2.6-6.1,4.3-7.7,6.9c-1.1,1.7-0.9,6.1,0.3,6.9c2.4,1.6,5.9,1.8,8.9,2c0.4,0,1.5-3.9,1.3-5.9C35.7,161.8,34.5,158.9,33.3,154.9z
		"/>
	<path d="M369.5,379.1c-3.4,3.8-6.5,8-10.3,11.4c-2.7,2.3-6.4,3.4-9.6,5c3.1,2.9,7,6.8,11.2,10.6c2.4,2.2,3.2,4.3,0.4,7
		c-1.5-1.4-2.9-2.8-4.4-4.2c-0.8,0.8-1.8,1.8-3.1,3.1c-2.8-3.2-5.5-6.2-8.2-9.2c-0.1,0.3-0.1,0.7-0.2,1c-1.6-0.4-3.6-0.3-4.7-1.3
		c-9-8.1-14.7-18.6-17.5-30c-3.1-12.5-8.7-22.4-20.3-28.4c-10.9-5.5-22.4-10.2-32.6-16.8c-9.4-6.1-17.8-14-26-21.9
		c-5.3-5.1-4.1-10.8,3.1-14.3c3.5-1.7,8.7-2.5,12.2-1.2c11.7,4.5,22.6,10.6,30.3,20.9c0.7,0.9,1.7,1.5,2.6,2.3
		c13.1,12,27,23.2,39,36.1C342.9,361.6,358.3,368.1,369.5,379.1z M363,381.4c-4.1-2.4-6.4-4.4-9.1-5.3c-2-0.6-5-0.6-6.5,0.5
		c-3.1,2.4-2.4,6.3-0.2,8.8c1.3,1.4,4.8,2,6.8,1.4C356.9,386,359.4,383.7,363,381.4z"/>
	<path d="M23.5,396.2c-2.5,2.7-5.1,5.5-8.7,9.4c-0.8-1.7-1.4-2.9-2.1-4.3c-1.5,1.6-2.9,3.1-4.7,4.9c-3.1-3.9-1-6.3,1.4-8.6
		c3.6-3.3,7.4-6.4,11.6-10c-7-0.3-11.3-3.8-14.5-9.1c-1.4-2.2-3.8-3.7-6.5-6.3c0,0,0.5-1.5,1.5-2.2c7.6-5.2,15.5-10,23-15.4
		c3.8-2.7,6.7-6.6,10.3-9.5c9.1-7.4,18.5-14.4,27.5-22c6.7-5.6,13-11.8,19-18c10.3-10.6,21.7-18.5,37.1-18.4c5.3,0,7,4.4,9.3,7.8
		c2.1,3.1-0.3,5.2-2.3,7.1c-11.9,11.6-24,23-39.6,29.9c-8.3,3.7-16.3,8.2-24.1,12.8c-8.8,5.3-12.4,14.3-15.8,23.5
		c-3.6,10-8.6,19.4-16.2,27c-1.4,1.4-3.9,1.6-5.8,2.3C23.8,396.9,23.7,396.6,23.5,396.2z M7.1,373.5c3.1,2.4,5.4,5.1,8.3,6.1
		c1.9,0.7,6.1-0.4,6.7-1.7c1.1-2.7,0.6-6.1,0.1-9.1c-0.1-0.4-4.1-0.7-6,0C13.3,369.8,10.7,371.6,7.1,373.5z"/>
</g>
<g id="Layer_2">
	<path d="M294.5,270.6c-10.3-10-16.2-22.1-21.9-35.2c-6-14-8.5-27.1-16.8-40c-3.5-5.5-15.4-6.5-20.1-2.8c-5.5,4.4-5.4,11.4-1.9,16.9
		c15.6,24.3,21.4,56.6,42.9,77.6c4.6,4.5,7.8,3.1,13.4-1.2C294.6,282.2,299.1,275.2,294.5,270.6z"/>
	<path d="M266,289.8c-5.5-23.7-7.1-48.6-4.6-72.9c0.7-6.4-2.7-12.8-9.4-14.1c-5.9-1.2-13.4,3-14.1,9.4c-3,28.8-3.2,60.5,3.4,88.7
		c1.5,6.3,11.7,6.1,17.3,4.1C265.2,302.8,267.5,296.2,266,289.8z"/>
	<path d="M129.8,196.4c-5.7-0.8-13.5,3.6-13.6,10.2c-0.1,15-1.8,29.9-3.7,44.7c-1.6,12.7-2.6,25.7-8.5,37.3
		c-2.9,5.8,0.6,13.3,6.3,15.8c6.3,2.7,15.5-1,18.5-6.8c6.5-12.8,5.4-26.8,7.2-40.8c2-15.5,3.8-31,4-46.7
		C140,203.5,136.8,197.4,129.8,196.4z"/>
	<path d="M117.4,193.7c-20.7,22.3-24.4,53.1-38.9,78.9c-7,12.5,9.5,21.6,16.5,9.1c13.4-23.8,25.8-50.5,38.8-73.1
		C141,196.3,127.2,183.2,117.4,193.7z"/>
</g>
<g id="Layer_5">
	<path d="M221.9,98.9"/>
	<path d="M226.9,93.6c-0.5-0.9-0.1-0.8-2-2.2s-3.9-1.4-3.9-1.4s0.8-4.2,1-5.9c0.3-2.4-5-6.1-5-6.1s-1.4,3.7-1.9,5.2
		c-0.9,2.5,0,5-2.3,6.7c-1.5,1.1-2.3,3-1.3,4.8c0.7,1.2,2.5,2,3.9,1.7c0.2,0.1,0.4,0.2,0.6,0.3c2.3,0.9,2.6,0.9,5,1.4
		c1.6,0.3,8,0,8,0S227.6,94.9,226.9,93.6z"/>
	<path d="M270.9,147c8,4,6,8.1,11.6,10.6c1.8,1.3,3.6,2.4,5.7,3.3c0.1,0-5.3-3,0.2,0.1s15.5,0,15.5,0c-4-1-10.6-13.3-13-16
		c-9-10-14-8-19-9c4.2,0.8,11.7,1,17,3c2.4,0.9,4.7,2.6,6,4c4,4.4,6.9,9,8,14c0.2-2.6,0.2-7.6,0.2-8.1c0.1-8.1-2.2-11.9-6.2-14.9
		c-3.3-2.5-5.7-5.1-9-6s-4-1-13-1s-17.4,2.5-23.5,0.3c-3.5-1.3-9.6-5.7-9.6-5.7s15,2.2,20.1-1.3c5.1-3.6,9.5-7.2,15-10.3
		c4.8-2.7,7-1.8,9.5,3.6c0.1,0.2,1.5,2.4,1.5,2.4s0-2-1-6s-3.6-3.8-7.1-3.9c-3.9-0.1-6.9,2.3-9.5,4.5c-7.5,6.3-15.3,10.8-26.2,7.2
		c5.2-2.4,9.7-8.8,10.7-11.8s2.6-7.4-3-7c3.5,3.4,0.2,7.9-2,11c-2.2,3.2-6.4,4.4-10.4,3.8c-7.9-1.1-15-5.6-18.3-12.3
		c-0.1-0.2,1.8-0.4,1.7-0.6c-4.2-8.6-8.3-17.2-16-23.3c-11.1-8.8-27.1-13.8-41.9-5.8c-5.9,3.2-9.3,8.6-14.4,12.3
		c-5.1,3.6-6.6,9.2-6.7,15c0,0.4,1-0.2,1,0.2c-0.1,7.5,0,15.7-0.1,23.4c-0.1,5.8,0.9,10.4,3.8,14.8c3.7,5.4,7.3,11.2,12.1,15.6
		c5.9,5.4,11.6,11.5,20.2,12.7c7.2,1,14.4,1.9,21.9,2.9c0.5,0.8,17.8,6.4,30.1,5.3c11-1,17-2,25.1-5.2c10-4,17.7-5.8,27.9-0.8
		c4.8,2.3,14,4,18,1c-4,0-6.7,0.6-10-1c-4-2-5.5-3.1-8.2-4.5s-3.6-3.8-4.8-4.5c-2.3-2-7.7-5.7-12-6c-26-2-31.4-7.3-35-8
		C233.9,145,262.9,143,270.9,147z"/>
</g>
<g id="Layer_4">
	<circle class="st0" cx="182.9" cy="121" r="69"/>
	<circle class="st0" cx="181.9" cy="121" r="119.5"/>
</g>
</svg>
