<?xml version="1.0" encoding="utf-8"?>
<!-- Generator: Adobe Illustrator 23.0.1, SVG Export Plug-In . SVG Version: 6.00 Build 0)  -->
<svg version="1.1" id="Layer_1" xmlns="http://www.w3.org/2000/svg" xmlns:xlink="http://www.w3.org/1999/xlink" x="0px" y="0px"
	 viewBox="0 0 1225.3 1381.1" style="enable-background:new 0 0 1225.3 1381.1;" xml:space="preserve">
<path d="M927.9,856.8c-0.9-6.3-2-12.6-2.8-18.9c-1.1-8.7-2.4-17.4-5-25.8c-1.1-3.6-2.2-7.3-4.1-10.5c-3.1-5.1-6.8-10-10.4-14.8
	c-4.1-5.5-8.4-10.9-14.3-14.5c-7.2-4.3-14.6-8.2-22.2-11.9c-3.4-1.7-7.3-2.4-11.1-3.3c-2.3-0.6-4.8-0.8-7.1-1.1
	c-6-0.8-11.9-1.7-18-2.1c-5.2-0.4-10.3-0.6-15.2-2.9c-4-1.9-8.3-2.9-12.4-4.4c-4.6-1.7-9.1-3.5-13.6-5.1c-3.8-1.4-7.8-2.3-11.5-3.9
	c-6.3-2.8-12.6-5.9-18.7-9.2c-6.3-3.5-13.1-5.9-19.3-9.7c-5.5-3.4-9.4-8.2-12.3-13.5c-4.1-7.3-7.2-15.1-10.5-22.8
	c-1.6-3.8-3.3-7.8-4-11.8c-0.9-5.2-0.9-10.7-1.2-16c-0.3-5.8-0.5-11.5-0.7-17.3c-0.2-5.7-0.4-11.3-0.6-17c-0.1-2.2-0.4-4.4-0.1-6.6
	c0.3-2.2-0.7-4.4-0.3-6.1c0.6-3.1,1.3-6,1.2-9.3c-0.1-4.5,0.4-9.1,1-13.5c0.4-2.9,1.1-5.9,2.4-8.5c2.2-4.2,5.4-8,7.6-12.2
	c1.8-3.6,2.7-7.7,4.2-11.6c2.2-5.9,4.5-11.7,7-17.5c0.8-2,2.2-3.8,3.4-5.8c1.3,0.9,2.2,1.5,3,2.1c2.5,1.9,10.4,2.4,12.5,0
	c3.2-3.7,6.4-7.3,6.7-12.8c0.3-5.7,1.7-11.4,2.6-17c0.9-5.6,1.8-11.2,2.7-16.8c0.4-2.6,0.5-5.3,1.1-7.9c1.4-5.9,1.7-11.9,0.4-17.8
	c-0.6-2.7-1-6.1-4.6-7.1c-0.5-0.1-1-1.3-1-2c0.4-4.6,1.3-9.2,1.3-13.8c0.1-8.7,0.1-17.5-0.6-26.2c-0.7-7.9-2.1-15.8-3.8-23.6
	c-1.9-8.7-3.5-17.5-6.9-25.8c-2.9-7.1-5.7-14.3-8.7-21.3c-3.2-7.6-7.2-14.9-11.8-21.8c-4.1-6.1-8.4-12.2-13-18
	c-4.4-5.4-9.2-10.6-14.2-15.5c-4.7-4.7-9.6-9.1-14.7-13.3c-4.4-3.6-8.9-7.1-13.8-9.9c-5.1-2.9-10.6-5.2-16.1-7.2
	c-5-1.7-10.2-2.9-15.4-3.8c-3.4-0.6-7-0.4-10.5-0.6c-4.3-0.3-8.5,0.2-12.7,1.6c-4.4,1.5-6.8,5-10,7.8c-3.9-3.4-8.6-5.4-12.4-5.7
	c-8.9-0.5-17.3,1.3-25.5,4.6c-2.3,0.9-4.2,2.7-6.3,4c-1.3,0.8-2.7,2.1-4.1,2.2c-4.6,0.1-7.7,3.2-11.2,5.2c-2.9,1.7-5.3,4.1-8,6.1
	c-7.5,5.6-14.7,11.5-20.7,18.7c-5.4,6.5-10.8,13.1-15.7,20.1c-3.7,5.3-6.6,11.1-9.6,16.8c-1.9,3.6-3.4,7.4-5,11.1
	c-2.2,5.1-4.7,10.1-6.3,15.4c-2.3,7.2-3.7,14.7-5.7,22c-3.6,12.7-5,25.7-5.1,38.8c-0.1,7.5,0.6,15.1,1,22.6c0.1,2.5,0.1,5.1,0.5,7.6
	c0.5,2.5,1.3,4.9,2.3,7.3c0.8,1.9,0.2,3.1-1.1,4.3c-2.2,2.2-3.4,4.8-3.4,7.8c0,2,0.1,4.1,0.6,6.1c1.5,6.2,2.8,12.4,4.9,18.4
	c2.9,8.3,5.8,16.5,7,25.2c0.4,3.3,0.7,6.9,2.2,9.7c2.9,5,6.8,9.3,13.6,8c1.9-0.4,2.6,0.7,3.4,2.2c1.5,2.7,3.1,5.4,4.8,8
	c3.2,4.7,6.5,9.4,9.6,14.2c2,3.2,3.8,6.5,5.5,9.8c2.1,3.8,6,6.2,6.3,11.5c0.5,8.2,2.4,16.4,3.6,24.6c0.1,0.8-0.1,1.7-0.2,2.6
	c0,0.7,0,1.4,0.1,2.1c0.2,1.3,0.7,2.5,0.7,3.8c0.1,2.9,0.1,5.9,0.1,8.8c0,7.9,0.2,15.7-0.1,23.6c-0.3,8.4-0.8,16.9-1.7,25.3
	c-0.4,4.1-1.8,8.1-3.2,12c-1.5,4.3-3.5,8.5-5.4,12.6c-2.5,5.5-4.4,11.5-9.5,15.1c-6.3,4.5-13,8.6-19.9,12.3
	c-6.8,3.6-14,6.5-21.1,9.5c-5.3,2.2-10.5,4.5-16,5.9c-7.7,1.9-15.7,3.2-23.5,4.4c-9.4,1.5-18.8,2.8-28.2,3.7
	c-9.7,0.9-19.5,0.9-29.2,1.8c-6.1,0.6-12.3,1.2-18,3.2c-8.9,3.3-17.4,7.7-25.9,11.9c-6.3,3.2-11.8,7.5-15.7,13.6
	c-2.6,4.1-6.3,7.4-7.8,12.2c-0.5,1.6-2.3,2.9-2.9,4.5c-1.2,3-3.5,5.3-3.8,9c-0.1,2.1-2.4,4.3-2.8,6.9c-0.2,1.1-0.1,2.6-0.7,3.3
	c-1.6,1.6-1.9,3.6-2.5,5.6c-0.5,1.7-0.5,3.6-1.1,5.2c-1.5,3.9-3.8,7.7-1.3,12.6c-1.1-0.5-1.7-0.7-1.9-0.8c-0.7,3.4-1.5,6.7-2.2,10.1
	c-1.3,6.2-3.8,18.7-3.8,18.7l26.2,22c4.7,2.3,9.1,4.5,13.3,6.8l1.7,1.2h0.6c22.2,12.3,37.6,76,47.6,186.6
	c3.7,41.5,27.4,137.4,29.4,171.7c3.1,53.3-15.2,96.2-14.3,128.2c150.4,0,300.8,0,451.2,0c0.5-32-18.4-75.9-15.5-128.2
	c1.5-26.7,24.4-123.5,29.5-169.3c6.1-55.2,19.1-92.1,50.2-188.9l0.7-0.4c4.3-2.9,8.4-8,12.4-12.8l6.5-16.8
	C928.8,864.5,928.3,859.3,927.9,856.8z M557.3,398.5c-17.9,1.8-34.1-1.4-34.1-1.4s15.6-18.3,33.5-20.1s31.5,13.5,31.5,13.5
	S575.2,396.7,557.3,398.5z M619.2,338.5c-16.3,0-29.5-8.7-29.5-8.7s13.2-12.7,29.5-12.7s29.5,12.7,29.5,12.7
	S635.5,338.5,619.2,338.5z M681.4,398.5c-17.9-1.8-30.9-8.1-30.9-8.1S664,375,682,376.9c17.9,1.8,33.5,20.1,33.5,20.1
	S699.4,400.4,681.4,398.5z"/>
<g>
	<path d="M42.6,512.9c18.8,33.2,40.8,64.6,61.9,96.5c19.5,29.3,39,58.5,59.5,87c11.5,16,25.8,29.9,37.5,45.6
		c12.7,17.1,24,35.2,36,52.9c12.1,17.7,23.7,35.8,36.9,52.7c7.8,9.9,17.8,18.1,26.8,27c42.1-28.7,84.3-57.5,126.4-86.2
		c-8.1-13.4-15.1-27.7-24.5-40.1c-24.2-32-49.3-63.1-85.2-84c-23.2-13.5-45.2-29.6-65.5-47.1c-14.7-12.7-25.9-29.5-38.5-44.6
		c-19.3-23.2-39.9-45.5-57.3-70.1c-13.1-18.6-23.5-39.2-34.7-59.1l-89.4,51.5C35.8,500.8,39.2,506.9,42.6,512.9z"/>
	<path d="M512.9,23.1C520.8,6.2,501.4-2,493.3,5.5c-13.2-15.5-36.1,5.1-50.1,18.7c-7.8-10.5-16.3-8.7-24.8-0.2
		c-11.9,11.7-24.5,22.9-36.2,35c-20.9,21.5-46.2,38.9-60.6,66.3c-2.1,4-5.3,7.8-6.4,12.1c-9.1,37.6-36,60.4-64.6,83.6
		c-37.9,30.6-73.9,63.6-108.9,97.3c-36.8,35.4-73,71.5-107.9,108.7c0,0-27.6,47.9,10.5,81.8s78.8-1.2,78.8-1.2
		c3.7-4,7.2-7.9,10.8-12c12-13.8,22.8-28.7,34.1-43.1c30.8-39.5,60.4-79.9,92.7-118c23.4-27.5,50.4-51.9,76-77.5
		c12.3-12.4,25.7-22,44.5-23.9c36.5-3.4,72.4-11.2,109.5-5.6c11.2,1.7,23.2-2.5,35.3-4c3.5-13.9-1.4-22-15.3-24
		c-7-1-14.1-1.2-21.2-1.6c-2-0.1-4.3,1.1-6,0.5c-13.7-4.5-31.2-5.5-40-14.8c-11-11.5,2.3-25.4,9.5-36.8c20-31.3,40.8-62,60.5-93.6
		C519.2,43.9,529,28.9,512.9,23.1z"/>
	<path d="M1191.1,501.6l-89.4-51.5c-11.2,19.9-21.6,40.5-34.7,59.1c-17.3,24.6-38,46.9-57.3,70.1c-12.5,15.1-23.7,31.9-38.5,44.6
		c-20.3,17.6-42.3,33.6-65.5,47.1c-36,20.9-61,52-85.2,84c-9.4,12.4-16.4,26.7-24.5,40.1c42.1,28.7,84.3,57.5,126.4,86.2
		c9-9,19-17.1,26.8-27c13.1-16.9,24.7-35,36.9-52.7c12-17.6,23.3-35.8,36-52.9c11.7-15.7,26-29.7,37.5-45.6
		c20.5-28.4,40.1-57.7,59.5-87c21.1-31.9,43.1-63.4,61.9-96.5C1184.3,513.6,1187.7,507.5,1191.1,501.6z"/>
	<path d="M709.9,59.9c19.6,31.6,40.4,62.3,60.5,93.6c7.2,11.4,20.5,25.2,9.5,36.8c-8.8,9.3-26.3,10.3-40,14.8c-1.8,0.6-4-0.6-6-0.5
		c-7,0.4-14.1,0.6-21.2,1.6c-13.9,2-18.8,10.1-15.3,24c12.1,1.5,24.1,5.7,35.3,4c37.1-5.6,73,2.2,109.5,5.6
		c18.8,1.8,32.1,11.5,44.5,23.9c25.6,25.7,52.6,50,76,77.5c32.3,38.1,61.9,78.6,92.7,118c11.3,14.5,22.1,29.3,34.1,43.1
		c3.5,4.1,7.1,8,10.8,12c0,0,40.7,35.2,78.8,1.2c38.1-33.9,10.5-81.8,10.5-81.8c-34.9-37.2-71.2-73.3-107.9-108.7
		c-35-33.8-71-66.7-108.9-97.3c-28.6-23.2-55.4-46-64.6-83.6c-1.1-4.3-4.3-8.1-6.4-12.1c-14.3-27.4-39.7-44.8-60.6-66.3
		c-11.6-12-24.2-23.3-36.2-35c-8.6-8.5-17-10.3-24.8,0.2c-13.9-13.6-36.9-34.2-50.1-18.7c-8.1-7.5-27.5,0.8-19.6,17.6
		C694.5,35.6,704.3,50.6,709.9,59.9z"/>
</g>
<g>
	<path d="M393.2,755.2L153.3,526.4c13-10.4,45.9-70.1,90.7-103.4c38.6-28.8,102-35.1,117.5-84.5c9.1-85.8-6.6-137.9-75.6-157.6
		c-87.5,79.2-169.1,158.7-244.5,238.7c0,0-41.4,33.5-41.4,159.2c0,54.5,19.8,20.6,147,153.2c121.2,126.3,202,250,245,292
		C441.1,1011.2,393.2,755.2,393.2,755.2z"/>
	<path d="M842.3,1026.4c43-42,114.8-165.7,236-292c127.2-132.6,147-98.7,147-153.2c0-125.7-41.4-159.2-41.4-159.2
		c-75.4-80-157-159.5-244.5-238.7c-69,19.7-84.7,71.8-75.6,157.6c15.5,49.4,78.9,55.7,117.5,84.5c44.8,33.3,77.7,93,90.7,103.4
		L832.1,757.6C832.1,757.6,793.2,1013.6,842.3,1026.4z"/>
</g>
<path d="M735.4,678.8c-5.6-5-8.2-12.3-9.2-19.8c0.6-2.8,1-6,1.1-9.5c1-17.3,14.6-26.9,27.8-48.1c-2.3,27.8,13.6,55.6,17.1,51.3
	c0,0-22.9-33.7-8-66.3c1.9-4.2,3.7-9.8,5.3-15.9c6.6-19.9,11.3-46.7,11.1-84.8c-1.9-16-4.6-39.2-6.1-52c10.4-35.4-3-88.7-18-122.1
	c-2.8-15.7-15.5-44.2-30-48c-12.9-3.4-38.7-1.7-46.8-1.1c-2.6-5.9-9.7-16.4-27.8-21.3c-27.1-7.3-118.5-40.2-200.4,95.1
	c-32.2,53.2-30.3,89.6-16.1,114.1c-27.3,32.4-73.1,94.7-69.5,145.8c-6.3,40.1,1.7,99.7,26.1,132.4c-1.1,2.3-2.1,4.7-3,7.1
	c-13.7,36.3,75,34,75,34l0.3-0.8c44.8-9,167.9-132,167.9-132l-41-119.2l-88.7-58.2l-10.1-64l38.8-65.8l72.4-41l69.2-19.6l27.4,48.1
	l40.2,79l-14.3,82.7l-46.4,54l5.4,138.7l-40.5,39.8c0,0,82.5,75.2,95.1,60.7C752.4,757.9,853.1,784,735.4,678.8z M373.7,644.5
	c6.5,26.1,16.3,49.3,27.4,68.5c-1.9,2.8-3.8,5.8-5.5,8.9C386,705.4,374.6,678.9,373.7,644.5z M701.1,267.4
	c10.4-1.9,23.1-2.2,31.7,4.3c8,6.1,14.4,18.5,19,29.8c-2.8-5.4-5.6-9.9-8.2-13.4C734.2,276.1,716.7,270.2,701.1,267.4z"/>
<path d="M402.1,1250.2l-1,42.6c0,7.8,1,14.2,6.1,14.2H833c5,0,5.1-6.4,5.1-14.2l-1-42.6c0-7.8,0-14.2-5.1-14.2H408.1
	C403.1,1236,402.1,1242.4,402.1,1250.2z"/>
</svg>
