<?xml version="1.0" encoding="utf-8"?>
<!-- Generator: Adobe Illustrator 23.0.1, SVG Export Plug-In . SVG Version: 6.00 Build 0)  -->
<svg version="1.1" id="Layer_1" xmlns="http://www.w3.org/2000/svg" xmlns:xlink="http://www.w3.org/1999/xlink" x="0px" y="0px"
	 viewBox="0 0 656.79 979.36" style="enable-background:new 0 0 656.79 979.36;" xml:space="preserve">
<path d="M29.69,641.2c0.54-4.24,0.56-8.03-0.73-12c-2.46-7.56-4.28-15.16,0.01-22.51c-6.5-8.91-9.6-18.3-1.1-27.01
	c-2.59-1.19-5.38-2.18-7.83-3.73c-1.21-0.76-2.38-2.48-2.53-3.88c-0.59-5.59-0.88-11.21-1.09-16.83
	c-0.41-10.76-0.69-21.53-1.02-32.3c-0.34-11.28-0.67-22.55-1-33.83c-0.33-11.11-0.66-22.21-1-33.32c-0.33-10.93-0.67-21.87-1-32.8
	c-0.34-11.27-0.66-22.55-1-33.82c-0.33-10.94-0.67-21.88-1-32.82c-0.34-11.43-0.66-22.87-1-34.3c-0.33-10.93-0.67-21.87-0.99-32.8
	c-0.35-11.77-0.66-23.55-1.01-35.32c-0.31-10.44-0.68-20.88-0.99-31.32c-0.36-12.1-0.66-24.2-1.01-36.3
	c-0.3-10.27-0.67-20.53-0.99-30.8c-0.35-11.44-0.67-22.88-1.01-34.32c-0.33-10.94-0.75-21.88-0.98-32.83
	c-0.4-19.43-0.69-38.86-1.02-58.3c-0.02-1.33,0.01-2.67-0.05-4C0.91,17.43,0.45,8.77,0,0.12C0.41,0.08,0.83,0.04,1.24,0
	c2.77,13.19,5.42,26.4,8.34,39.56C13.06,55.32,16.89,71,20.35,86.76c5.16,23.56,10.08,47.17,15.19,70.74
	c3.9,17.99,7.93,35.94,11.94,53.91c4.62,20.69,9.27,41.36,13.92,62.04c0.93,4.13,2.05,8.22,2.94,12.35
	c0.86,3.95,1.55,7.95,2.31,11.92c5.8-11.1,8.78-22.78,9.61-34.82c1.2-17.54-0.26-35.04-3-52.37c-1.89-11.92-3.29-23.83-2.85-35.9
	c0.23-6.44,0.06-12.97,1.16-19.27c2.71-15.53,8.79-30.02,15.44-44.2c5.36-11.42,11.33-22.59,19.96-31.94
	c6.03-6.53,11.86-13.64,19.08-18.59c14.65-10.03,31.09-14.41,49.22-12.61c9.01,0.9,17.89,2.22,26.59,4.37
	c8.87,2.19,16.99,6.59,22.79,13.82c7.61,9.47,11.66,20.68,13.69,32.6c1.73,10.17,3.18,20.39,5.09,30.52
	c0.93,4.92,1.86,10.03,5.49,13.93c3.17,3.4,6.49,6.66,9.59,9.81c9.78-2.71,19.17-5.16,28.92-4.77c6.71,0.27,13.45,0.99,20.05,2.17
	c2.23,0.4,3.99,0.42,6.1-0.17c6.57-1.84,13.29-3.21,19.78-5.29c1.89-0.6,3.28-0.44,4.48,0.46c7.71,5.82,15.64,11.41,22.84,17.82
	c5.02,4.46,9.27,9.89,13.38,15.25c7.61,9.92,13.22,20.9,16.34,33.11c1.59,6.21,2.38,12.49,3.29,18.81
	c1.25,8.68,0.95,17.23-0.9,25.54c-1.82,8.18-8.47,12.49-16.07,15.2c-2.41,0.86-4.84,1.69-6.88,2.4c0,10.32,0,20.28,0,30.1
	c6.18,0.5,12.41,0.28,18.26,1.66c9.55,2.26,13.99,6.53,13.19,15.88c-0.1,1.12-0.8,2.19-0.88,3.3c-0.86,12-4.9,23.26-8.19,34.67
	c-1.75,6.08-4.05,12-6.21,18.31c10.42,8.18,18.72,18.17,25.14,29.45c6.32,11.1,11.59,22.8,16.7,33.01
	c0.75-8.94,1.48-19.28,2.51-29.58c0.83-8.31,1.5-16.69,3.17-24.85c3.83-18.74,8.93-37.08,18.58-53.91
	c9.02-15.72,20.76-28.36,38.07-34.68c6.35-2.32,13.26-4.44,19.89-4.37c8.06,0.09,15.88,3.14,22.87,7.71
	c13.41,8.78,22.84,21,30.34,34.86c9.53,17.62,16.09,36.4,20.84,55.78c2.87,11.71,4.98,23.62,7.15,35.49
	c1.32,7.24,2.14,14.57,3.11,21.86c1.02,7.63,2,15.26,2.91,22.9c0.42,3.55,0.63,7.13,0.97,11.12c19.78,1.71,39.03,3.38,58.28,5.04
	c0.08,0.25,0.16,0.5,0.25,0.75c-19.07,8.32-38.14,16.64-57.17,24.94c-0.12,0.93-0.28,1.58-0.29,2.22
	c-0.35,19.43-0.63,38.86-1.05,58.29c-0.13,5.94-0.59,11.88-1,17.82c-0.25,3.61-0.55,7.22-1.07,10.79
	c-1.22,8.41-2.48,16.81-3.92,25.18c-1.72,9.96-3.07,20.04-5.63,29.79c-3.25,12.41-6.98,24.76-11.55,36.74
	c-3.96,10.38-9.26,20.26-17.32,28.31c-12.69,12.67-26.22,12.68-41.05,3.76c-11.04-6.65-19.19-16.45-26.42-26.95
	c-9.69-14.06-17.29-29.24-23.65-45.06c-6.81-16.93-12.72-34.15-17.45-51.78c-0.83-3.09-1.49-6.74-3.53-8.89
	c-8.19-8.65-16.9-16.82-25.97-25.71c-0.64,2.33-1.31,3.68-1.33,5.04c-0.15,6.78-1.55,13.28-3.55,19.73
	c-0.48,1.55-0.27,3.62,0.35,5.15c6.13,14.92,12.77,29.65,18.55,44.7c5.89,15.35,11.05,30.98,16.33,46.55
	c0.97,2.86,1.03,6.03,1.48,8.89c-6.44,3.1-12.29,5.91-17.88,8.6c3,8.19,6.12,15.89,8.63,23.79c3.6,11.31,6.73,22.77,10.11,34.15
	c0.74,2.49,1.53,4.83,4.49,5.93c5.8,2.15,11.47,4.65,17.15,7.09c4.44,1.91,8.82,3.94,13.68,6.13c-9.59,9.56-18.71,18.58-27.71,27.71
	c-1.46,1.48-3.09,3.3-3.5,5.21c-0.82,3.83-0.87,7.83-1.18,11.77c-0.38,4.77-0.58,9.56-1.06,14.32c-0.9,8.82-2.34,17.6-2.83,26.43
	c-0.49,8.97-0.11,17.98-0.11,27.06c4.03,3.97,7.99,7.89,11.97,11.78c8.2,8.03,17.93,13.59,28.63,17.53
	c13.53,4.98,27.6,6.85,41.94,6.99c5.73,0.06,11.47,0.01,17.91,0.01c-1.83,3.36-3.13,5.95-4.61,8.43
	c-6.14,10.31-12.32,20.6-21.46,28.66c-6.31,5.57-13.67,9.06-22.01,9.83c-11.42,1.06-22.74-0.54-33.81-3.2
	c-16.47-3.95-32.82-8.43-49.25-12.57c-4.89-1.23-9.83-2.59-14.83-3.04c-8.23-0.74-16.53-0.67-24.79-1.16
	c-4.51-0.26-9-0.97-13.43-1.46c-0.08-0.36-0.18-0.56-0.13-0.69c3.36-8.49,6.42-17.12,10.2-25.42c4.12-9.04,4.03-18.8,5.51-28.25
	c1.59-10.21,2.13-20.58,3.16-30.88c0.31-3.1,0.67-6.2,1.07-9.29c0.95-7.31,1.94-14.61,2.91-21.92c0.6-4.54,1.29-9.07,1.78-13.63
	c0.51-4.7,0.82-9.43,1.21-14.12c-5.5-1.93-10.59-3.71-15.85-5.55c3.6-4.56,6.84-8.66,10.47-13.26
	c-7.05-8.19-13.46-16.61-20.88-24.02c-12.37-12.35-23.57-25.57-33.44-40.41c-19.79,22.55-40.11,44.3-64.1,62.37
	c-0.05,0.61-0.14,1.27-0.15,1.93c-0.34,16.27-0.67,32.54-1.03,48.82c-0.02,0.92-0.29,1.83-0.49,2.98
	c-8.51-2.29-16.61-0.83-24.66,0.85c-5.57,1.17-11.05,2.77-16.61,3.99c-11.69,2.58-21.35,8.87-30.17,16.55
	c-10.06,8.77-17.36,19.6-22.8,31.77c-1.58,3.55-1.78,7.11-0.74,10.6c1.92,6.45,5.97,11.68,10.99,16
	c8.45,7.28,17.9,13.11,27.83,18.15c11.83,6,23.7,11.94,35.53,17.93c1.5,0.76,2.9,1.72,5.33,3.18c-4.09,1.96-7.07,3.56-10.17,4.85
	c-13.04,5.41-26.97,7.14-40.77,7.72c-17.39,0.73-34.87-0.42-52.31-0.76c-0.49-0.01-0.97-0.18-1.46-0.24
	c-4.89-0.58-9.77-1.23-14.67-1.68c-1.03-0.09-2.36,0.28-3.16,0.92c-2.23,1.81-4.73,2.07-7.44,2.04c-6.82-0.07-13.64-0.02-20.46-0.03
	c-5.64-0.01-5.63-0.02-5.75-5.88c-0.02-0.97-0.18-1.94-0.25-2.61c-7.45-3.26-16.05-3.06-22.13-9.5c3.53-11.8,6.47-23.51,10.63-34.77
	c2.38-6.45,4.22-12.49,2.84-19.39c-1.06-5.29-1.43-10.71-2.18-16.07c-0.93-6.64-1.98-13.25-2.88-19.89
	c-0.77-5.68-1.32-11.4-2.13-17.08c-1.21-8.41-2.69-16.78-3.84-25.19c-1.16-8.44-1.94-16.93-3.12-25.37
	c-1.5-10.68-3.38-21.3-4.86-31.98c-1.51-10.87-2.66-21.8-4.09-32.68c-1.58-12.01-3.39-23.99-4.94-36c-0.69-5.31-2.11-8.77-8.59-9.87
	c-6.73-1.15-12.51-5.52-13.95-12.93c-0.79-4.08-0.14-8.44-0.14-13.85C30.36,658.89,28.53,650.25,29.69,641.2z M234.27,609.96
	c-19-23.62-35.57-48.62-51.4-74.79c-16.17,17.44-35.85,29.43-57.75,38.61c7.76,11.93,18.73,19.44,30.68,25.1
	c1.38,3.09,0.01,5.08-1.37,7.21c-3.83,5.9-9.31,9.66-16.15,9.76c-4.36,0.07-8.79-2.1-13.14-3.43c-1.68-0.51-3.23-1.47-4.69-2.15
	c0.64,4.02,2,8.09,1.75,12.06c-0.29,4.58-0.45,9.02,0.09,13.6c0.9,7.56-1.74,14.51-4.75,20.87c1.03,2.77,2.27,5.13,2.77,7.64
	c1.27,6.29-2.19,10.71-6.61,14.43c-2.48,2.09-5.34,3.73-8.62,5.98c0.66,6.98,1.34,14.34,2.04,21.69c0.39,4.09,0.9,8.16,1.22,12.25
	c0.42,5.43,0.59,10.89,1.07,16.32c0.51,5.71,1.29,11.4,1.89,17.11c0.41,3.92,0.77,7.86,1.05,11.79c0.39,5.59,0.55,11.21,1.06,16.79
	c0.86,9.47,1.94,18.93,2.89,28.39c0.4,3.93,0.78,7.86,1.05,11.79c0.4,5.76,0.57,11.54,1.06,17.29c0.56,6.46,1.37,12.9,2.13,19.95
	c16.82-21.45,35.74-39.79,58.35-55.2c-2.08-2.94-4.11-5.8-6.6-9.32c7.74-0.61,15.04-1.18,22.34-1.76
	c7.11-27.97,14.22-55.95,21.47-84.47c-11.54-4.74-25.09-7.53-30.69-22.17C197.53,657.66,215.54,633.59,234.27,609.96z
	 M101.08,453.09c6.56-10.42,12.79-20.38,19.07-30.3c5.31-8.39,12.58-14.48,21.29-19.27c11.57-6.37,22.85-13.29,34.17-20.11
	c14.42-8.68,28.54-17.89,44.48-23.72c1.49-0.55,2.87-1.41,4.57-2.25c-1.48-4.03-2.97-7.79-4.25-11.63
	c-2.68-8.03-5.39-16.06-7.76-24.19c-0.56-1.92-1.57-2.97-3.08-3.29c-9.71-2.05-15.58-8.75-20.04-16.83
	c-3.99-7.22-5.69-15.1-6.33-23.44c-0.66-8.55,0.62-16.47,4.27-24.05c2.15-4.47,4.94-8.54,9.04-10.58c1.39-9.2,2.17-18.05,4.14-26.62
	c2.83-12.3,7.84-23.86,15.11-34.26c2.33-3.33,4.12-6.12,2.78-10.61c-1.39-4.64-1.16-9.74-2.27-14.49
	c-0.84-3.61-2.23-7.26-4.15-10.42c-4.11-6.75-10.19-7.69-16.57-2.38c-7.2,6-11.7,13.93-15.36,22.58
	c-4.33,10.26-7.9,20.69-10.04,31.58c-1.83,9.28-3.34,18.62-4.75,27.97c-1.46,9.72-3.92,19.08-7.89,28.12
	c-4.83,10.99-11.35,20.63-20.13,28.83c-8.59,8.03-18.17,14.56-29.29,18.32c-9.38,3.18-19.05,5.53-28.66,7.98
	c-2.76,0.71-5.76,0.5-9.75,0.79C80.33,359.05,90.7,406.02,101.08,453.09z"/>
</svg>
