<?xml version="1.0" encoding="utf-8"?>
<!-- Generator: Adobe Illustrator 23.0.1, SVG Export Plug-In . SVG Version: 6.00 Build 0)  -->
<svg version="1.1" xmlns="http://www.w3.org/2000/svg" xmlns:xlink="http://www.w3.org/1999/xlink" x="0px" y="0px"
	 viewBox="0 0 452.63 672.01" style="enable-background:new 0 0 452.63 672.01;" xml:space="preserve">
<g id="Layer_1_copy">
	<g>
		<path d="M451.33,346.08c-0.37-6.11-0.99-12.21-1.75-18.3c-0.56-6.33-1.37-12.65-2.5-18.97c-0.2-1.11-0.44-2.24-0.72-3.38
			c-0.93-6.09-1.87-12.19-2.68-18.29c-0.09-0.67-0.19-1.35-0.28-2.03c0.11-0.51,0.24-1.01,0.41-1.49
			c5.88-16.84,4.61-34.23,5.6-51.42c0.13-1.77,0.26-3.55,0.39-5.33c0.5-5.53,1.34-11.02,2.83-16.47c-2.45-0.75-4.08-1.3-5.75-1.74
			c-0.99-0.26-1.99-0.49-2.98-0.71c-3.73-1.35-7.57-2.7-11.49-3.81c-1.17-0.33-2.29-0.7-3.38-1.08
			c-13.48-6.15-22.88-16.41-25.22-33.57c-1.13-8.29-1.21-16.73-2.26-25.04c-2.28-17.96-11.58-30.74-28.35-36.22
			c-0.77-0.26-1.55-0.5-2.34-0.72c-0.09-0.02-0.17-0.06-0.26-0.08c-0.32-0.09-0.65-0.16-0.97-0.24c-0.13-0.03-0.27-0.07-0.4-0.1
			c-0.12-0.03-0.24-0.05-0.36-0.08c-4.2-0.96-8.58-1.35-12.97-1.14c-3.9-0.05-7.92,0-12.02-0.23c0-3.16-0.16-6.41,0.03-9.65
			c0.7-12.02-4.54-20.28-15.41-25.29c-3.61-1.66-6.83-2.09-9.8-1.7c-5.63,0.48-10.68,3.84-15.56,8.07
			c-3.78,3.28-7.84,6.77-12.4,8.46c-1.03,0.38-2.36,0.51-3.72,0.42c-2.41-0.38-4.96-1.5-6.47-2.92c-1.33-1.26-0.35-6.69,1.3-9.03
			c3-4.24,7.06-7.82,11.07-11.22c6.04-5.12,8.1-11.2,4.33-18.18c-2.03-3.75-4.79-6.05-8.11-7.08c-2.8-1.07-5.91-1.2-9.01-0.45
			c-1.89,0.46-3.38,0.59-4.59,0.35c-0.06-0.01-0.12-0.03-0.18-0.04c-0.01,0-0.02-0.01-0.03-0.01c-0.75-0.2-1.31-0.48-1.41-0.8
			c-1.51-4.83-3.97-7.76-7-9.47c-1.2-0.78-2.52-1.24-3.91-1.51c-3.37-0.83-7.16-0.75-11.03-0.39c-0.34-0.02-0.67-0.05-1-0.08
			c-2.65-16.19-10.8-24.81-23.21-25.12C227.28,0,226.8,0,226.32,0C225.84,0,225.35,0,224.85,0.01
			c-12.41,0.32-20.56,8.94-23.21,25.12c-0.33,0.03-0.66,0.06-1,0.08c-3.87-0.36-7.66-0.44-11.03,0.39
			c-1.39,0.27-2.71,0.74-3.91,1.51c-3.04,1.72-5.49,4.65-7,9.47c-0.1,0.32-0.66,0.6-1.41,0.8c-0.01,0-0.02,0.01-0.03,0.01
			c-0.06,0.02-0.12,0.03-0.18,0.04c-1.21,0.23-2.7,0.11-4.59-0.35c-3.1-0.75-6.21-0.62-9.01,0.45c-3.32,1.03-6.08,3.33-8.11,7.08
			c-3.77,6.98-1.71,13.06,4.33,18.18c4.01,3.39,8.07,6.98,11.07,11.22c1.65,2.34,2.63,7.77,1.3,9.03c-1.51,1.42-4.05,2.54-6.47,2.92
			c-1.37,0.09-2.69-0.03-3.72-0.42c-4.56-1.69-8.61-5.18-12.4-8.46c-4.88-4.23-9.93-7.59-15.56-8.07c-2.97-0.39-6.19,0.04-9.8,1.7
			c-10.87,5.01-16.1,13.27-15.41,25.29c0.19,3.23,0.03,6.49,0.03,9.65c-4.11,0.23-8.12,0.18-12.02,0.23
			c-4.39-0.21-8.77,0.18-12.97,1.14c-0.12,0.03-0.24,0.05-0.36,0.08c-0.13,0.03-0.27,0.07-0.4,0.1c-0.32,0.08-0.65,0.15-0.97,0.24
			c-0.09,0.02-0.17,0.06-0.26,0.08c-0.79,0.22-1.57,0.46-2.34,0.72c-16.78,5.49-26.08,18.26-28.35,36.22
			c-1.05,8.31-1.13,16.74-2.26,25.04c-2.34,17.15-11.73,27.41-25.22,33.57c-1.09,0.39-2.21,0.75-3.38,1.08
			c-3.91,1.11-7.75,2.46-11.49,3.81c-1,0.22-2,0.44-2.98,0.71c-1.66,0.44-3.3,0.99-5.75,1.74c1.49,5.44,2.33,10.94,2.83,16.47
			c0.13,1.78,0.26,3.55,0.39,5.33c0.99,17.19-0.29,34.58,5.6,51.42c0.17,0.49,0.3,0.98,0.41,1.49c-0.09,0.68-0.19,1.36-0.28,2.03
			c-0.81,6.1-1.75,12.2-2.68,18.29c-0.27,1.14-0.52,2.27-0.72,3.38c-1.13,6.32-1.95,12.65-2.5,18.97
			c-0.76,6.09-1.39,12.18-1.75,18.3c-1.37,22.7,2.12,44.92,7.38,67.02c0.77,3.4,1.61,6.78,2.52,10.13c0.08,0.32,0.17,0.65,0.25,0.97
			c4.84,18.54,11.66,35.88,20.29,52.09c4.05,7.61,8.5,14.97,13.34,22.08c10.55,15.51,22.92,29.85,36.96,43.09
			c1.88,1.77,3.81,3.5,5.76,5.19c18.99,16.55,41.02,29.4,65.1,38.02c1.07,0.38,2.14,0.75,3.21,1.11c6.58,2.36,13.24,4.4,19.93,6.19
			c3.05,0.9,6.13,1.8,9.24,2.74c-0.11,4.4-0.38,8.71-0.6,12.93c-1.67,7.67-1.34,14.96,0.63,21.65c0.98,4.43,3.36,8.97,6.27,12.81
			c1.8,2.54,3.88,4.93,6.2,7.14c1.57,2,2.9,4.06,4.02,6.21c2.16,4.14,3.58,8.6,4.58,13.58c0.2,0.99,0.36,1.98,0.53,2.98h0.71h37.39
			h0.71c0.17-0.99,0.33-1.98,0.53-2.98c0.99-4.98,2.41-9.44,4.58-13.58c1.12-2.15,2.45-4.21,4.02-6.21c2.33-2.21,4.4-4.6,6.2-7.14
			c2.92-3.84,5.3-8.38,6.27-12.81c1.97-6.68,2.3-13.98,0.63-21.65c-0.22-4.22-0.49-8.53-0.6-12.93c3.12-0.93,6.19-1.84,9.24-2.74
			c6.69-1.78,13.35-3.83,19.93-6.19c1.07-0.37,2.15-0.73,3.21-1.11c24.08-8.62,46.11-21.47,65.1-38.02c1.95-1.7,3.87-3.42,5.76-5.19
			c14.04-13.24,26.41-27.58,36.96-43.09c4.84-7.11,9.29-14.47,13.34-22.08c8.63-16.2,15.45-33.55,20.29-52.09
			c0.08-0.32,0.17-0.65,0.25-0.97c0.91-3.35,1.75-6.73,2.52-10.13C449.21,391,452.7,368.78,451.33,346.08z M346.15,523.64
			c-5.02,4.31-10.27,8.41-15.8,12.26c-4.77,3.32-9.64,6.44-14.63,9.35c-11.15,6.1-23.13,10.96-35.99,14.36
			c-6.14,1.62-12.3,3.6-18.47,5.33c-11.56,1.91-23.29,3.6-34.95,4.1c-11.66-0.5-23.39-2.19-34.95-4.1
			c-6.17-1.73-12.32-3.71-18.47-5.33c-12.87-3.4-24.84-8.26-35.99-14.36c-4.99-2.9-9.86-6.03-14.63-9.35
			c-5.53-3.85-10.78-7.94-15.8-12.26c-4.64-3.98-9.06-8.16-13.29-12.52c-3.2-3.38-6.32-6.87-9.33-10.49
			c-35.51-42.67-53.46-92.31-52.83-153.11c-0.91-24.55,4.71-52.84,15.36-80.12c14.64-37.53,36.81-69.93,69.27-94.12
			c20.4-15.2,41.91-26.04,64.55-32.19c3.06-0.79,6.15-1.51,9.29-2.14c12.56-2.52,24.82-3.78,36.81-3.84
			c11.99,0.07,24.26,1.32,36.81,3.84c3.14,0.63,6.24,1.35,9.29,2.14c22.64,6.16,44.15,16.99,64.55,32.19
			c32.46,24.19,54.63,56.59,69.27,94.12c10.64,27.28,16.26,55.57,15.36,80.12c0.63,60.8-17.33,110.44-52.83,153.11
			c-3.01,3.62-6.12,7.12-9.33,10.49C355.22,515.48,350.79,519.66,346.15,523.64z M201.22,67.54c2.35-6.74,7.91-12.91,14.36-16.2
			c3.03-1.23,6.46-2.04,10.28-2.41c0.15-0.01,0.31-0.02,0.46-0.03c0.15,0.01,0.31,0.01,0.46,0.03c3.82,0.37,7.25,1.18,10.28,2.41
			c6.45,3.29,12.01,9.46,14.36,16.2c0.61,2.2,1.02,4.58,1.19,7.16c-0.01,0.38-0.03,0.76-0.06,1.14
			c-1.14,12.3-8.33,25.67-25.69,25.24c-0.12-0.01-0.23-0.01-0.36-0.02c-0.06,0-0.12,0-0.18,0c-0.06,0-0.12,0-0.18,0
			c-0.12,0.01-0.24,0.01-0.36,0.02c-17.36,0.43-24.56-12.94-25.69-25.24c-0.03-0.38-0.05-0.76-0.06-1.14
			C200.2,72.12,200.6,69.74,201.22,67.54z"/>
	</g>
</g>
<g id="Layer_2">
	<g>
		<path d="M187.46,566.29c16.89,2.86,34.19,5.47,51.17,4.81c13.8-0.54,27.47-5.89,41.09-9.49c26.03-6.88,48.42-19.7,67.68-36.81
			c-5.79-4.49-12.55-10.3-20.39-13.34c-11.5-4.46-23.08-9.03-33.85-14.95c-16.72-9.2-24.51-24.47-26.64-43.58
			c18.03-4.6,34.57-11.58,53.12-12.69c-0.8,7.16-1.46,13.05-2.16,19.25c14.17-4.04,27.02-12.84,33.92-19.61
			c18.02-17.7,21.47-35.87,12.07-59.37c-5.93-14.82-12.65-29.65-15.86-45.12c-2.81-13.57-0.77-28.09-1.73-42.14
			c-0.79-11.62-0.45-24.15-4.78-34.53c-12.5-29.97-34.65-52.46-62.58-68.47c-18.69-10.71-36.18-7.17-52.5,7.3
			c-5,4.43-10.47,8.34-16.72,13.28c-7.76-4.85-18.7-6.79-30.66-2.9c-27.53,8.98-49.81,38.87-50.4,68.08
			c-0.2,9.72,0.76,19.71-1.18,29.08c-3.84,18.56-9.22,36.8-14.18,55.12c-3.66,13.53-7.4,26.92-6.86,41.23
			c0.96,25.5,10.32,38.09,34.25,44.2c0.23-3.33,0.45-6.58,0.82-12.11c8.66,22.35,29.5,21.1,45.83,27.92
			c-4.39,17.77-14.28,30.49-30.52,37.96c-7.26,3.34-14.72,6.28-22.18,9.17c-10.26,3.97-19.72,10.79-27.74,17.06
			c5.02,4.31,10.27,8.41,15.8,12.26C142.02,551.62,163.57,562.24,187.46,566.29z M178.45,349.87c-6.42-3.19-9.98-6.51-13.54-12.51
			c2.86-1.56,4.74-2.87,6.89-3.75c4.94-2.01,15.97,3.1,20.26,5.36c4.29,2.26,8.07,5.38,13.65,6.71
			C196.84,352.06,184.86,353.06,178.45,349.87z"/>
	</g>
	<path d="M185.71,327.75c0,0-7.21,5.21-7.21,13.53c0,8.32,4.33,15.19,4.33,15.19s5.77-8.93,5.77-13.53S185.71,327.75,185.71,327.75z
		"/>
	<path d="M139.97,179.53c25.5,3.94,45.65,7.47,55.37,35.89l-43.71,31.25C140.62,225.93,143.65,208.07,139.97,179.53z"/>
	<path d="M81.23,401.35c9.41-20.9,18.94-44.01,21.52-67.24c1.79-16.14-3.17-29.94-15.36-36.45c-10.64-5.68-20.75-2.16-32.15,4.18
		c-5.57,3.1-9.21,11.17-9.21,11.17c0.99-0.17,2,0,2,0s-0.85,1.5-1.23,2.32c0,0,10.2-1.79,18.29-5.53c5.33-2.46,15.21-2.8,19.72,2.69
		c7.17,8.71,4.48,24.31,0,35.97c-7.11,18.49-16.61,36.38-25.1,54.06c-3.92,8.17-12.91,26.34-16.87,34.54
		c3.36,8,7.23,15.85,11.59,23.54C61.8,444.08,73.66,418.16,81.23,401.35z"/>
</g>
</svg>
