<?xml version="1.0" encoding="utf-8"?>
<!-- Generator: Adobe Illustrator 23.0.1, SVG Export Plug-In . SVG Version: 6.00 Build 0)  -->
<svg version="1.1" id="Layer_1" xmlns="http://www.w3.org/2000/svg" xmlns:xlink="http://www.w3.org/1999/xlink" x="0px" y="0px"
	 viewBox="0 0 664.4 1023.1" style="enable-background:new 0 0 664.4 1023.1;" xml:space="preserve">
<g>
	<path d="M0,552.1c3.1-6.6,8.2-8.3,15.5-8.3c8.8,0.1,17.6-1.6,26.3-2.8c4.1-0.5,7.3-2.6,9.2-6.6c2.1-4.5,5.9-6.6,10.7-6.3
		c7.3,0.5,12.5-3,18.2-7.1c11.3-8.2,23.1-15.9,35.1-23.2c9-5.5,18.4-10.4,27.9-14.9c4.5-2.1,9.9-1.9,14.6-3.7
		c19.9-7.5,36-20,49.3-36.8c5.1-6.5,12.9-11,19.6-16.3c5-4,10.9-7.3,15-12.1c3-3.6,3.9-9,5.3-12.3c-7.6-5.1-14.4-9.7-21.1-14.5
		c-1.1-0.8-1.8-3.2-1.4-4.6c2.3-10.1-2-17.2-9.3-23.5c-1.9-1.6-3.3-4-4.6-6.2c-5.9-10.7-11.9-21.5-17.5-32.3
		c-3.9-7.5-7.4-15.3-10.9-23c-3.3-7.2-5.3-15.2-11.6-20.6c-1.6-1.4-3.6-2.3-5.2-3.7c-1.1-0.9-2-2.1-3.9-4.2
		c-11.4,2.8-18.2-5.4-24.1-15.3c-4.8-8.1-7.8-17-8.5-26.2c-0.3-4.4,0.9-10,3.6-13.3c5.8-6.9,8.3-13.6,6.1-22.5
		c-2.3-9.3-3.5-18.9-5.6-28.3c-1.1-4.9-3-9.1-7.9-12.5c-8.9-6.4-9.8-22.1-2-31.7c3.3-4,5.4-8.1,5.5-13.7c0.2-15,5.5-28.5,13.9-40.6
		c4.3-6.2,9.6-11.6,14.3-17.6c0.9-1.2,1.3-3.2,1.2-4.8c0-4-0.5-8-0.7-11.9c0.6-0.1,1.1-0.1,1.7-0.2c0.3,4.1,0.7,8.3,1,12.4
		c0.5,0.2,1,0.4,1.5,0.5c2-2.5,4.3-4.9,5.9-7.7c1.5-2.8,2.3-6,3.4-9.1c0.4,0.1,0.8,0.3,1.2,0.4c-0.9,2.8-1.7,5.5-2.7,8.5
		c8.5-3.4,8.3-3.5,11.2-11.3c1.2-3.3,3.6-6.2,5.4-9.3c0.4,0.2,0.8,0.5,1.2,0.7c-2.1,3.9-4.2,7.8-6.8,12.6c2.2-0.2,3.3,0.1,4-0.3
		c5.7-3.4,11.4-7,17-10.5c0.6-0.3,1.6-0.8,1.5-1.1c-0.5-5.9,3.2-3.6,5.8-2.9c6.2,1.6,11.2-1.8,16.7-3.5c4.6-1.4,9.2-3,14.7-4.8
		c0.5-0.9,1.5-2.9,2.6-4.9c0.2,0.5,0.4,1,0.6,1.5c3.1,0.2,6.3,0.4,9.4,0.8c1.6,0.2,4,0.4,4.5,1.4c2.9,5.1,8.1,4.5,12.6,5.8
		c4.2,1.2,8.7,2.4,12,5c8.4,6.7,18.6,9.3,28.1,13.6c2.4,1.1,4.4,2.8,6.8,3.8c3.2,1.3,6.5,2.9,9.9,3.2c5.7,0.5,6.8,2,8.2,7.2
		c1,3.8,4.5,6.9,6.7,10.4c0.8,1.3,1.2,3,1.4,4.6c18.6,17,24.7,39.5,27.1,64c1.4-0.5,2.7-1,4.1-1.5c12.3-4.7,24.9,2.5,27.2,15.5
		c0.7,4,1.3,8.1,1.9,11.8c-1,1.4-1.9,2.8-3,4.1c-2.7,3.4-2.4,8.9-7.4,10.9c-0.7,0.3-1.2,3.2-0.7,3.9c1.7,2,3.8,3.7,6.1,5.1
		c1,0.6,2.6,0.1,3.2,1.3c1.4,1.3,2.6,3.4,4.2,3.7c6.2,1.3,12.5,2.5,18.8,3c9.4,0.7,18.9,0.4,28.3,1.2c12.8,1.1,26.3,0,37.7,7.1
		c8.2,5.1,16.7,10.6,23.2,17.6c17.8,19.4,34.3,39.9,52,59.5c8.7,9.6,20,16.2,31.1,23c7.6,4.6,14.8,10.2,20.9,16.6
		c6.2,6.5,6.3,22.2-1.1,29.6c-7.3,7.4-15.1,14.4-23.5,22.3c2.7,4.1,5.9,9.5,9.6,14.6c11.5,15.9,23.3,31.6,34.7,47.5
		c6.8,9.4,5.3,20.1-2.4,28.6c-5,5.5-8.7,12-13.7,17.5c-6.9,7.7-14.5,14.8-21.8,22.2c-3.6,3.6-7,7.5-10.7,11
		c-8.2,7.7-16.6,15.2-24.8,22.9c-7.9,7.5-16.1,14.8-23.3,23c-5,5.6-4.1,8.3,2.3,12.3c5.8,3.6,11.8,6.8,17.7,10.1
		c12,6.7,19.6,17.7,27.9,28.1c4.1,5.3,6.9,6.1,13,4.4c4.7-1.4,6.9-6.7,4.7-11.1c-2.1-4.1-2.6-7.8,2.1-10.7c2.4-1.4,4.2-4.1,6.8-5
		c2.5-1,6.5-1.8,8.1-0.5c2.1,1.7,3.3,5.5,3.3,8.5c0,4.2-1.8,8.4-2.2,12.6c-0.3,3,0.2,6.3,1.1,9.2c1.9,6.2,0.3,11.5-4.1,16.2
		c-6.9,7.4-14.3,8.1-23.2,4c-6.7-3.1-13.7-5.6-20.8-7.5c-6.1-1.6-6.6-0.6-5.2,5.4c0.5,2.1,0.6,4.2,0.9,6.3
		c1.2,7.4,7.3,10.8,12.6,14.4c5.7,3.9,11.7,7.8,18.2,10.1c5.6,1.9,12.1,2.5,18,1.9c8.7-0.9,17.2-3,25.7-5.2
		c10.6-2.7,19.8,5.1,17,15.1c-0.5,1.7-0.4,3.6-0.8,5.4c-1.3,6-6.4,8.9-12.3,7.6c-6.1-1.4-12.2-2.2-17.1,3.3c-3,3.4-6.7,4.3-11.3,3.2
		c-3.5-0.9-7.7,0-10.8-1.4c-7.1-3.4-14-7.5-20.6-11.7c-6.4-4.1-12.5-8.8-18.6-13.3c-4-2.9-7.8-6.1-11.9-8.8c-2.1-1.4-4.7-2-6.8-2.9
		c-3.8,12.5,1.4,22.8,5.6,33.4c2.3,5.9,4.9,9.4,11.9,10.8c5.8,1.1,11,5.7,16.5,8.6c2.9,1.5,6,3.5,9.1,3.6
		c7.6,0.5,12.4,5.2,16.9,10.1c4.4,4.7,3.9,6.6-0.9,10.6c-1.9,1.6-3.9,3.1-5.9,4.7c-5.3,4.2-8.2,4-12.5-1.2c-2.3-2.7-3.8-4.6-8.5-3.6
		c-3.8,0.8-8.4-2.2-12.6-3.8c-5.7-2.3-11.2-4.9-16.8-7.4c-0.6-0.3-1.3-0.4-1.9-0.5c-8.1-0.9-13.5-7.4-14-16
		c-0.6-10.4-5-18.9-14.3-24.3c-3.3-1.9-6.3-1.4-7.9,2.2c-4.8,10.8-11.2,21-13,33c-0.1,0.6-0.1,1.6-0.5,1.9
		c-5.1,3.9-1.8,6.9,0.9,10.1c3.2,3.8,6.2,7.8,9.3,11.7c5.4,6.8,5.9,10.7,0.8,17.9c-2.5,3.5-6.3,6.3-9.9,8.8c-1.1,0.8-4.2,0.6-5-0.4
		c-3.1-3.6-7.1-6.9-7.1-12.5c0-4.5-2.1-7.9-5.7-10.9c-4-3.4-7.6-7.5-10.4-11.9c-2.3-3.7-2-7.4,1.2-11.8c4.6-6.4,6.8-14.5,11.1-21.3
		c3.4-5.5,6.3-11.3,4.8-17.2c-2.2-9.1,3.1-17.5,1-26.2c-2.2-9.1-5-18.1-7.5-27.2c-3.5-12.6-7-25.2-10.6-37.8
		c-0.2-0.6-0.6-1.1-1.2-2.3c-1.1,1.9-2.1,3.4-2.9,4.9c-5.2,9.5-10.2,19.1-15.6,28.5c-8.2,14.3-17.2,28.2-24.9,42.9
		c-5,9.6-8.3,20.2-11.7,28.6c2.3,4.9,4,8.3,5.7,12.1c3.1-0.3,6.7,0.2,8.2,4.5c2.9,8.5,9.5,14.3,15.5,20.4
		c7.7,7.6,16.1,14.5,23.8,22.1c11.4,11.3,23,22.6,33.6,34.8c8.9,10.2,16.4,21.6,24.6,32.4c6.7,8.9,13.8,17.5,20.4,26.4
		c2.4,3.2,4.1,7.1,6.5,10.4c1.1,1.6,3,3.1,4.8,3.6c9.1,2.4,8.9,5.4,8.3,13.4c-0.2,2-1.1,4-1.8,6.2c1.8,0.9,3.6,1.6,5.2,2.6
		c6.1,3.7,6.3,9.2,0.6,13.5c-2.6,1.9-5.4,3.7-8.1,5.5c-2.7,1.7-5.6,3.4-8.3,5c4.2,9.5,8.4,18.7,12.5,28.1c1.1,2.4,2.2,3.8,5.3,4.1
		c6.3,0.6,11,7.2,9.5,13.6c-0.8,3.3,0.3,3.6,2.8,4.6c5.4,2.3,11.7,4,15.6,8c11.2,11.4,12.1,30.8-2.6,40.9c-6,4.1-12.1,6.3-19.3,5.8
		c-5.8-0.4-11.5-0.8-17.3-1c-8-0.3-14.5,3.8-20.9,7.5c-12.4,7.3-25,12.9-39.9,9.6c-0.6-0.1-1.6,0.6-2.3,1.1
		c-3.7,2.9-7.3,5.8-10.9,8.7c-4.3,0-8.7,0-13,0c-2.6-1.5-5.1-3-7.3-4.3c-2.9,1.4-5.8,2.8-8.7,4.3c-1,0-2,0-3,0
		c-3.8-0.9-8.2-3.5-11.4-2.5c-7.8,2.6-14,0.5-20.3-3.4c-1-0.6-2.7-1.3-3.6-0.9c-5.1,1.9-9.6,0.2-14.1-1.9c-1.5-0.7-3.7-0.7-5.4-0.3
		c-11.8,2.9-24.1-5.3-26.5-15.7c-1.8-7.5,1.9-14.2,9.5-15.2c7.4-1,14.4-2.2,19.5-8.8c1.7-2.2,5.2-3.7,8-4.1
		c8.5-1.1,17.1-1.1,25.5-2.3c6.4-0.9,13-2,18.9-4.6c12-5.4,23.5-12.1,35.4-17.9c11.4-5.6,23-10.8,34.7-16.3
		c-3.3-6-6.6-12.2-10.1-18.3c-1.4-2.5-3.2-4.2-6.7-2.9c-2.5,0.9-5.5,1.1-8.2,1.1c-13.3-0.2-26.6-0.3-39.8-1.2
		c-3.9-0.3-8.2-2.4-11.3-5c-1.2-1,0.6-5.5,1.1-8.4c0-0.3,0-0.7,0-1c0.3-6.8,0.6-13.5,1-20.3c1.1-18.2-6.7-32.8-18.9-45.3
		c-8.8-9-18.6-16.9-27.5-25.8c-9.2-9.2-18.1-18.9-26.7-28.7c-8-9.1-14.5-19.5-27.2-23.6c-4.4-1.4-6.1-6.2-4-10.6
		c-6.4-4.2-12.5-8.2-19.1-12.6c-0.6,1-2.6,2.7-2.4,4c0.6,4.8-1.8,8-4.4,11.3c-1.1,1.4-2.6,2.7-3.2,4.3
		c-5.3,14.1-10.7,28.3-15.7,42.5c-7.6,21.8-12,44.3-10.9,67.6c0.2,4.4-1.6,9,2.8,12.6c0.8,0.7,0.1,3.2,0.1,4.8c0,0.9-0.4,2.1,0,2.5
		c5,4.8,0.4,6.8-2.8,8.2c-4.1,1.8-8.6,2.9-13.1,3.6c-6.2,1-12.5,1.4-19.1,2.1c0,4.2,0.1,7.7,0,11.2c-0.2,5.8-0.5,11.8,3.5,16.6
		c9.7,11.6,19.7,23,29.5,34.5c2.5,2.9,5.5,3.7,9.2,3.8c3.7,0.1,7.4,0.8,10.9,2c4.7,1.6,9.2,4.1,13.9,5.7c1.4,0.5,3.3-0.6,5-1.1
		c2.3-0.7,4.7-2.5,6.7-2.2c5.4,0.9,9,4.4,10.5,9.7c1.4,5,2.2,9.9-2,14.3c-4.1,4.4-9.1,8.5-14.8,6.8c-6.4-1.9-10.5,4.1-16.3,2.8
		c-2.3-0.5-4.9,0.2-7.3,0.7c-2.4,0.5-4.6,1.8-6.9,2.2c-6.7,1.2-13.5,2-20.3,3c-7,1.1-13.9,2.6-20.4-1.8c-0.9-0.6-2.9,0.2-4.3,0.5
		c-5.6,1.4-11.2,3.7-16.9,4.1c-6.8,0.5-13.8-4.7-13.9-12.2c0-0.9-0.7-2.5-1.3-2.6c-5.5-1.5-8.6-5.6-12-9.7c-1-1.2-3.1-1.9-4.7-2.2
		c-3.4-0.6-6.9-0.3-10.3-1c-9.9-2.2-15.5-21.8-8.3-31.5c4.7-6.3,11.2-11.2,17-16.8c-5.2-7.5-4.7-15.5,3.2-19.2
		c8.6-4.1,10.3-11.8,13.8-19.2c-3-0.5-5.5-0.6-7.8-1.4c-8-2.6-16.1-5-23.9-8.3c-4.5-1.9-4.6-4.9-1.8-8.9c0.7-1,1-2.3,1.3-3.5
		c0.7-3.5,0.8-7.2,1.8-10.6c3.9-12.9,7.8-25.8,12.3-38.5c5.8-16.2,11.9-32.4,18.7-48.2c6.6-15.4,16.5-28.9,26.8-42
		c3.5-4.5,7.4-9,7.8-15.5c0.1-2.2,3.4-4.3,5.6-6.1c1.3-1,3.2-1.3,4.8-1.9c-2.3-7.7,1.4-13.4,5.9-17.6c2.7-2.6,3.8-5.2,4.3-8.2
		c0.8-4.2,0.7-8.5,1.1-12.8c1-10.1,2.1-20.3,3-30.4c1.4-14.9,2.6-29.8,4-44.7c0.7-7.5,1.1-15.1,2.1-22.6c2.1-16,4.5-32.1,6.9-48.1
		c1.7-11.5,3.7-22.9,5.8-34.3c0.8-4.4,2.8-8.7,3.1-13.1c0.5-7.2,2.9-13.3,7.1-18.9c5.4-7.4,11-14.6,16.2-22.1
		c4.2-6.1,7.4-12.6,9.8-19.9c1.7-5.2,6.8-9.8,8.1-16c0.5-2.2,1.8-4.3,1.9-6.4c0.1-3.9-0.4-7.9-0.9-11.8c-2.1-17.9-4.2-35.7-6.5-54.8
		c-1.9,2.9-3.3,4.9-4.6,7c-3.3,5-6.5,10.2-10.1,15c-0.9,1.2-2.9,1.4-4.4,2.1c-0.1-1.4-0.4-2.9-0.3-4.3c0.2-2.3,0.7-4.5,1.1-6.7
		c-0.5-0.2-0.9-0.4-1.4-0.6c-6.9,8.5-13.6,17.2-20.7,25.6c-6.2,7.3-7.7,15-4.3,24.1c1.3,3.5,1.5,8.1-2.1,10.8
		c-2.5,2-5.8,2.9-8.6,4.4c-1.7,1-4.4,2-4.7,3.5c-2.1,9.9-3.9,19.8-5.4,29.8c-1,6.4-2.5,12-8.4,15.8c-4,2.5-7.9,5.3-11.4,8.4
		c-5.1,4.4-9.4,9.7-14.8,13.5c-17.2,12.4-34.9,24.1-52.2,36.4c-3.8,2.7-7.4,6.1-7.4,11.6c0,5.1-0.4,10.2-0.9,15.3
		c-1.1,10.8,4.1,16.3,14.5,20.3c7.3,2.8,10.1,9,6.6,16c-4.4,8.8-1.4,19.3,6.6,25.7c4.9,3.9,7.3,8.7,2.7,14.8
		c-4.6,6.1-10.9,7.1-17.8,6.8c-13.9-0.7-23.2-9.3-19.8-24.7c0.8-3.9,3.4-8.8-1-12c-10.7-7.7-21.8-14.8-36.1-11.4
		c-4.9,1.2-9.9,1.9-14.8,3.2c-3.4,0.9-7.2,1.6-9.8,3.7c-3.9,3-6.9,7.1-10.2,10.9c-7.3,8.6-13.3,17.7-12.9,29.8c0.4,10,0.5,20-0.1,30
		c-0.3,4.8-1.8,10.1-4.3,14.2c-7.5,11.8-18.8,16.9-32.7,16.2c-6.6-0.3-12.1-3-15.3-9.1c-3-5.8-2-11.5,1.8-16.6
		c4.7-6.5,9.9-12.6,14.2-19.4c4-6.4,7.1-13.2,1.4-20.8c-3-4-0.1-9.9,4.9-12.1c2.5-1.1,5.3-2.3,6.9-4.3c5.4-6.8,10.2-14.1,15.7-21.7
		c-12.6,1-23.3,4.7-33.2,10.6c-1.7,1-3.2,2.8-3.9,4.6c-3.5,9.1-5.1,18.5-5.3,28.3c-0.3,10.8-3,21-11.6,28.7
		c-10.3,9.3-25.3,7.4-31.3-4.3c0-1.3,0-2.7,0-4c3.2-9,7.3-17.9,9.3-27.2c1.4-6.3,2.9-13.5-2.1-19.9c-1.4-1.7-1.7-6.4-0.4-7.7
		c3.3-3.5,1.9-6.5,0.9-10c-1.4-4.8-3.8-9-7.7-12.3C0,557.5,0,554.8,0,552.1z M520.4,350.3c-0.4,0.2-0.7,0.4-1.1,0.5
		c0.2,1.9,0.5,3.8,0.6,5.7c0.4,10.5,0.6,20.9,1.1,31.4c0.5,9.4,1.4,18.7,1.9,28.1c0.2,3.9-0.6,7.8-0.7,11.8
		c-0.3,7.4,0.2,15-0.8,22.3c-1.9,15-7.3,29-12.8,43c-3.6,9.2-6.5,18.8-9.8,28.1c7,0.8,8.4-4.7,11.7-8c10-10,19.2-20.7,26.3-32.9
		c6.1-10.6,12.7-21,17.7-32.1c6.6-14.5,15.6-27,27.4-38.6c-7.5-13.2-15.2-26.5-22.7-39.6c-11.6,3.1-19.9,3.7-30.8-1.3
		c-1.9-0.9-3.7-3.1-4.4-5.1C522.5,359.3,521.6,354.7,520.4,350.3z M343.3,682.7c1.4-5.6,2.3-10.5,4-15.2
		c10.4-28.8,16.9-58.8,24-88.5c3.1-13,4.6-26.4,6.8-39.7c0.4-2.7-0.3-4.8-3.6-5.4c-3.5-0.6-6.9-3.4-10,1.1
		c-3.2,4.7-7.1,8.8-7.7,14.9c-0.3,3.7-2.1,7.2-2.8,10.8c-1,5.5-1.3,11-2.4,16.5c-1.7,8.2-4.1,16.3-5.6,24.5
		c-1.4,7.2-1.9,14.6-3,21.9c-2.3,15.1-4.8,30.1-7,45.1c-0.2,1.6,0.5,3.6,1.3,5.1C338.9,676.7,340.9,679.3,343.3,682.7z M57.4,559.5
		c-8.7-3.1-15.3,2-22.7,3.7c-4.6,1-5.5,3.7-4,8.4C39.8,567.5,48.6,563.5,57.4,559.5z"/>
</g>
</svg>
