<?xml version="1.0" encoding="utf-8"?>
<!-- Generator: Adobe Illustrator 19.0.0, SVG Export Plug-In . SVG Version: 6.00 Build 0)  -->
<svg version="1.1" id="Layer_1" xmlns="http://www.w3.org/2000/svg" xmlns:xlink="http://www.w3.org/1999/xlink" x="0px" y="0px"
	 viewBox="0 0 302.3 402.9" style="enable-background:new 0 0 302.3 402.9;" xml:space="preserve">
<g id="XMLID_1_">
	<path id="XMLID_14_" d="M39.6,289.9c-2,2.3-3.2,3.9-4.6,5.3c-3.8,3.7-8.3,4-13.1,2.1c-4.5-1.8-6.9-5.8-7-10.9
		c0-2.4,0.3-4.5,1.5-6.6c1.6-2.7,2.8-5.6,4.6-8.1c4.3-5.8,6-12.7,7.8-19.4c3.2-11.8,6.6-23.5,12.1-34.5c3.4-6.8,6.4-13.9,10-20.6
		c3-5.6,6.7-10.8,10.7-15.8c4-5,9-7.8,14.8-9.8c6.5-2.2,16.1-0.6,19.1,9.4c2.3,7.8,5.2,15.4,7.3,23.3c1.7,6.5,10.9,11,17.6,7.4
		c2-1.1,4-2.2,6.2-3.1c3.3-1.4,5-3.6,4.4-7.3c-0.1-0.8,0-1.7,0-2.9c-2.3-1-4.5-2.2-7-2.9c-6.2-2-11.3-5.8-16.4-9.6
		c-7.7-5.6-15.8-13.6-19.2-21.2c-1.1-2.5-2.8-2.9-5.1-2.8c-6.3,0.3-11.7-2-15.6-6.9c-1.8-2.2-3.3-5-3.9-7.8
		c-1.2-5.8-2-11.7,0.8-17.4c1.8-3.7,4.5-6,8.9-5.9c0.5,0,0.9-0.3,1.6-0.5c-2.2-4.5-2.9-9-1-13.8c-1.5,0-2.8,0.3-3.8-0.1
		c-1.2-0.4-2.4-1.2-3.1-2.2c-0.7-1-1.1-2.4-1.2-3.7c-0.7-8.9,0.2-11.7,6.7-20.5c-0.9-0.1-1.7-0.1-2.6-0.2c-3.7-0.3-7-3.4-7.2-8
		c-0.4-10.2,4.8-17,13.1-22c1.5-0.9,3.2-1.6,4.7-2.4c-0.9-2.5-3-4.3-2.9-7.3c0.1-3.7,1.3-6.7,3.7-9.4c6-6.8,13.9-10.1,22.6-11.9
		c2.4-0.5,4.8-0.9,7.5-1.3c1.8-8.3,7-13.6,15.2-16.1c9.5-2.8,18.7-2.3,25.1,2.7c10.6-0.8,20.8,0.4,30.9,2.5c10.3,2.2,19.2,7,27.8,13
		c2.1-5,3.7-9.9,3.4-15.3c-0.2-2.7,0.1-5.3,2.5-7.4c4.9,1,7,5,8.8,8.8c2.4,5,3.4,10.6,3.5,16.2c0.1,3.1-0.2,6.4-1.3,9.2
		c-0.7,1.8-0.2,3,0.5,4c5.9,8.3,8.3,18.1,10.7,27.7c1.8,7.1,1.8,14.5,1,21.7c-0.9,8.7-2.5,17.4-5.1,25.9c-0.3,0.9-0.5,1.9-0.6,2.8
		c-0.1,0.4,0.3,0.9,0.5,1.8c6.7-5.5,13.2-10.9,19.9-16.5c1.4,5.5,0,10.2-0.9,14.8c-1.5,8.3-3.5,16.6-5.7,24.7
		c-1.6,5.8-3.1,11.6-6.9,16.6c-4.5,5.9-9.8,10.7-17.1,12.6c-2.4,0.6-4.9,0.6-7.4,0.5c-2.4-0.1-4,0.8-5.5,2.6c-3.1,3.8-6,8-9.7,11.1
		c-5.1,4.2-10.8,7.9-16.6,11.2c-3.5,2-7.5,3.1-11.6,4.8c0,0.8-0.2,1.9-0.1,3c0.3,3.4,1.4,6.1,5.2,7.4c5.1,1.8,9.9,4.2,14.8,6.4
		c4.6,2.1,9.5,1.3,13.9,0.2c5.9-1.4,11.6-4.1,15.5-8.9c3.4-4.2,6.4-8.7,8.5-13.7c2.3-5.6,4.7-11.1,7-16.7c9.9,1.3,18.8,4.8,27.4,8.8
		c5.5,2.6,10.5,6.6,15.6,10.2c3.6,2.6,7.4,5.1,10.2,8.4c3.6,4.1,7.8,7.8,11.3,13.1c-4.4-0.3-7.7-0.1-11.2-0.7
		c-3.1-0.5-7,0.6-9.8,2.2c-2.3,1.3-4.2,4.2-5.2,6.9c-2,4.9-3.4,10.2-4.9,15.3c-0.3,1.1-0.2,2.3-0.2,3.5c0,3-0.1,6,0,9
		c0.1,4.1,0.3,8.2,0.5,12.8c-2.1-2.1-4.3-4-6.1-6.2c-3.1-3.6-7.3-5.3-11.7-5.6c-4.4-0.3-14.4,4.1-17.3,11.2c1.2,8.4,7.1,14,8.4,23.2
		c-2.7-1.9-2.7-1.3-5-2.8c-0.1,1.4,0.3-4.8,0.2-3.5c-0.5,12-2.5,23.8-7.6,34.7c-2.5,5.4-6.2,10.2-10.9,13.9c-5,3.9-10,7.8-16.6,9.6
		c0,7.1-0.1,14,0.1,21c0,1.2,0.8,2.4,1.4,3.5c0.9,1.5,2,3,3.3,4.9c-2.9,0-5.6,0-8.8,0c1.8,3,4,4.2,6.7,5.3c3.1,1.3,6.8,2.8,8.6,5.3
		c2.5,3.5,3.9,8,2.1,12.6c-1.7,4.4-5.7,5.3-9.5,5.8c-2.4,0.3-5-0.6-7.7-1c-0.1,0.3-0.3,1-0.7,2.1c-8.4,0-16.9,0.6-25.3-0.2
		c-5.2-0.5-10.8-0.5-15.6-3.6c-3-1.9-5.2-5.6-4.4-9c0.4-1.9,1.5-3.6,0.3-5.7c-0.3-0.6,0.8-2,1.3-3.1c-1.5-0.4-3-0.9-4.7-1.4
		c1.6-1.4,2.7-2.4,4.2-3.7c-2.4-0.5-4.3-1-6.3-1.3c-0.8-0.1-1.6,0-2.7,0.1c-0.1,3.3,0.1,6.3,0.4,9.4c0.3,4-1.4,8.1-2.7,12
		c-0.3,1.1-1.8,2-3,2.5c-3.9,1.5-7.9,2.9-12,4c-6,1.6-12.2,0.8-18.3,1.1c-8.1,0.4-15.9-1.3-23.6-3.6c-3-0.9-5.6-6.1-4.6-9.3
		c0.7-2.2,1.6-4.4,2.5-7c2.7-1.2,5.3-3.7,9.1-4.3c0.8-0.1,1.5-1.5,2.1-2.4c1.2-1.8,2.4-3.7,3.6-5.8c-1.9-0.9-3.9-1.8-5.9-2.7
		c-7-3.2-7.7-8.4-6.9-13.9c1.1-7.6,2.6-15.1,3.9-22.6c0.2-0.9,0-2,0-3c-6.6-2.8-9.9-7.6-10-14.6c-0.1-3.2-2.2-4.9-5.1-5.9
		c-1.8-0.7-3.5-1.7-5.1-2.7c-1.9-1.3-2.3-3.1-1.3-5.2c0.7-1.6,1.1-3.4,1.8-5.4c-4-0.7-6.7-3.1-8.6-6.3c-0.9,3.6-1.7,7.1-2.7,10.5
		c-0.9,3.3-3,5.5-6.4,6.1c-4.1,0.7-7.9-0.2-10.5-3.8c-1.5-2.1-2.6-4.5-3.1-7.1C40.8,292.9,40.4,292.1,39.6,289.9z M236.3,267.2
		c-1-5.1-8.8-7.4-11.8-7.1c-4.8,0.5-7.5,2.2-10.7,4.7c-3.1,2.4-3.5,3.3-2.4,7.1c2.5,8.4,5.2,16.7,6.9,25.4
		c1.2,6.6,0.1,12.7-2.1,18.7c-1.4,3.8-4.4,6-8.8,5.9c-1.4,0-2.9,0.2-4.2,0.2c-0.4,4.8-0.4,4.8,1.8,6.7c0.9-0.4,1.7-0.9,2.6-1.2
		c8-3.3,13.8-8.9,17.8-16.6c3-5.7,5.1-11.6,6.3-17.9c0.8-4.5,0.1-0.2,0.6-5.5c-3,1.6-2.7,1.3-5.5,2.8
		C227.7,282.3,234.8,275,236.3,267.2z"/>
</g>
</svg>
