<?xml version="1.0" encoding="utf-8"?>
<!-- Generator: Adobe Illustrator 23.0.1, SVG Export Plug-In . SVG Version: 6.00 Build 0)  -->
<svg version="1.1" id="Dream_Wolf_xA0_Image_1_" xmlns="http://www.w3.org/2000/svg" xmlns:xlink="http://www.w3.org/1999/xlink"
	 x="0px" y="0px" viewBox="0 0 180.24 247.43" style="enable-background:new 0 0 180.24 247.43;" xml:space="preserve">
<path d="M178.7,124.46c-1.29-0.87-3.52-0.91-3.52-0.91s-0.73-0.33-0.83-1.5s0.39-6.6-0.11-9.78c-0.74-4.71-1.17-9.95-3.58-13.81
	c-5.47-8.76-20.95-11.61-31.28-13.73c-8.19-3.05-16.69-0.88-25.06,0.43c-7.14,1.12-13.64,3.27-18.21,8.73
	c-0.16,0.19-0.37,0.32-0.61,0.37c-3.54,0.74-7.24-0.07-9.7,2.67c-0.14,0.16-0.23,0.37-0.26,0.57l-0.44,3.06
	c-1.59,0.47-1.8,0.53-3.39,1c-4.04-4.6-8.08-9.2-12.09-13.83c-5.01-5.78-9.9-11.66-15-17.36c-1.03-1.15-2.57-1.84-4.07-2.75
	c0,0-0.56-0.02-1.14-0.02c-6.1-0.02-5.12,3.67-5.98,4.98c-2.37,3.6-3.83,6.02-4.84,8.69c-0.14,0.38-0.55,1.47-0.9,2.94
	c-0.18,0.76-1.07,4.64-0.37,9.58c0.22,1.55-6.2,11.05-6.2,11.05l10-3.88c0,0-2.53,5.16-2.22,5.72c0.34,0.61,5.86-1.51,6.22-0.99
	c0,0-0.84,3.84-0.26,5.14c0.2,0.45,2.68-0.44,2.94,0.16c1.01,2.37,1.35,4.19,3.09,9.1c3.46,9.81,1.43,12.43-6.74,14.8
	c-4.33,1.26-9.09,3.9-13.53,1.41c-7.22-4.04-11.56-8.19-13.25-17.07c-0.62-3.27-0.9-6.63-1.89-9.79c-0.91-2.87-2.08-2.64-3.24-3.68
	c-0.4-0.36-1.63-1.2-2.11-0.96c-0.44,0.22-0.56,0.85-0.6,1.08c-0.32,1.92,1.62,14.1,4.55,20.66c-1.62,2.71-3.77,6.64-4.11,6.57
	c-1.55-0.32-2.89-0.22-4.05,0.28c-1.58,0.68-2.46,1.94-3.08,2.93c-2.41,3.83-3.28,8.33-2.67,9.85c0.74,1.85,9.23,8.79,5.3,5.23
	s7.12,6.2,12.25,8.34c4.73,1.97,27.89,15.16,25.18,18.3c-3.46,3.99-13.34,3.68-21.75,16.81c6.15-0.11,10.16-2.84,8.82-1.81
	c-4.84,3.72-7.18,6.79-9.5,9.69c-2.53,3.15-7.33,10.94-8.91,13.44c-0.19,0.3,1.27,1.49,1.09,1.79c-1.23,1.97-2.45,4.03-3.56,6.64
	c-2.1,4.95,0.97,3.08-4.41,11.15c-2.07,3.11-4.25,7.36-4.25,11.67h128.5c-0.03-0.89-0.1-1.78-0.17-2.65
	c-0.32-4.19-1.12-8.37-1.18-12.56c-0.06-3.93,2.19-6.23,2.79-10.12l0.38-2.77c-0.3-2.25-0.02-7.84,0.19-8.47
	c0.94,1.88,1.34,4,0.8,6.48c1.95-1.78,1.83-4.92,2.03-7.05c0.4-4.36,0.4-10,0.78-11.66c0.9,0.9,2.21,3.41,2.21,3.41
	s0.3-5.73,0.12-10.64s-1.8-5.99-1.93-7.26s0.3-1.64,0.58-2.42c3.44-9.69,8.88-18.07,16.27-25.23c0.03-0.03-6.42,7.15,0.1-0.08
	s14.9-11.76,14.9-11.76c0.79-0.63,0.39-1.9-0.62-1.95c-2.99-0.15-8.31-0.26-13.18,0.68s-7.52,1.05-9.94,0.38
	c-0.63-0.18,2.56-2.96,2.81-3.56c1.07-2.58,0.28-6.76,1.27-9.15c0.1-0.25,0.29-0.44,0.53-0.56c3.09-1.51,14.26-8.06,17.65-9.72
	c0.6-0.29,1.24-0.25,1.51,0.6s1.42,4.45,1.42,4.45c-0.57,0.19-2.05,1.27-2.24,2.44c-0.29,1.8,0.09,2.93,1.57,4.63
	c2.25,2.59,3.87,3.69,6.87,2.87c3.28-0.89,4.96-2.88,5.71-7.37C180.44,126.83,179.92,125.28,178.7,124.46z M16.55,134.58
	c-0.27-0.05-0.32-2.19-0.34-4.52c0.66,0.84,1.36,1.57,2.05,2.22C17.5,133.49,16.77,134.63,16.55,134.58z M22.48,135.73
	c-0.15-0.03-0.29-0.29-0.43-0.68c0.96,0.55,1.59,0.8,1.59,0.8S25.95,136.42,22.48,135.73z M85.69,108.83
	c4.83,2.17,6.42,5.64,13.46,13.02C92.42,117.63,90.47,115.03,85.69,108.83z"/>
<path d="M81.3,40.27C70.35,29.35,68.83,12.55,76.75,0c-1.98,1.26-3.86,2.75-5.59,4.49c-12.64,12.69-12.61,33.23,0.08,45.87
	s33.23,12.61,45.87-0.08c1.73-1.73,3.21-3.62,4.47-5.61C109.06,52.64,92.26,51.18,81.3,40.27z"/>
</svg>
