<?xml version="1.0" encoding="utf-8"?>
<!-- Generator: Adobe Illustrator 19.0.0, SVG Export Plug-In . SVG Version: 6.00 Build 0)  -->
<svg version="1.1" id="Layer_1" xmlns="http://www.w3.org/2000/svg" xmlns:xlink="http://www.w3.org/1999/xlink" x="0px" y="0px"
	 viewBox="0 0 840.1 1023.9" style="enable-background:new 0 0 840.1 1023.9;" xml:space="preserve">
<g id="XMLID_1_">
	<path id="XMLID_22_" d="M642.2,1023.9c-10,0-20,0-30,0c-0.3-0.3-0.6-0.8-1-0.9c-9.9-1.4-19.8-2.7-29.6-4.1c-6.8-1-8.5-2.1-9.2-9
		c-0.7-6.5-1-13.2,0.1-19.5c2.9-17,11.6-30.7,26-40.5c8-5.4,16.6-9.6,25.5-13.4c1.9-0.8,4.1-2.4,5-4.2c2.4-5.5,4.6-11.2,6.2-16.9
		c3.2-11.4,6.4-22.9,8.8-34.5c0.7-3.6,1.8-7.7-0.6-11.8c-10-17.3-22.3-32.5-37.7-45.1c-13.5-11.1-28.2-20.8-43.8-28.6
		c-18.8-9.4-38.1-17.9-57.3-26.7c-2.9-1.3-4.6-3.4-5.3-6.5c-3-13.2-6.3-26.3-9.1-39.5c-3.8-18-7.3-36.1-10.9-54.2
		c-2.8-14.4-5.1-28.9-8.5-43.2c-4.7-20.1-9.9-40.1-17.4-59.5c-1.2-3.1-2.6-4-5.6-3.9c-8.5,0.3-16.7-1.1-24.5-4.5
		c-11.5-4.9-22.8-10.2-34.1-15.5c-13.7-6.5-28.1-10.2-42.9-12.9c-7.7-1.4-15.4-2.9-23.2-3.9c-5.8-0.7-11.7-0.8-17.8-1.1
		c-1.4,12.4-2.9,24.3-4.1,36.2c-1,9.8-1.9,19.6-6.2,28.6c-3.1,6.7-7.2,12.7-14.2,16.4c-7.1,3.7-14,3.6-21.7,0.7
		c-27.8,48.1-56,95.8-88.5,141.1c7.9-2.4,15.8-5,23.4-8.1c3.8-1.5,6.6-0.5,8.7,2.3c4.4,6,7.5,12.8,6.2,20.2
		c-2.2,13-9.8,22.1-22.5,26.7c-8.9,3.3-18.1,3.2-27.3,2.8c-10.1-0.4-18.2,2.6-24.9,10.3c-4.8,5.6-11.1,8.7-18.6,9.9
		c-4.4,0.7-8.8,2.5-12.7,4.7c-7.4,4.4-15.3,6.8-23.7,7c-13.9,0.3-24.5-6.5-32-17.8c-5.1-7.6-8.9-15.9-11.5-24.8
		c-1.3-4.4-2-9.1-4.1-13c-4.8-8.9-10.5-17.3-15.7-26C10.6,732,4.9,722.9,2,712.3c-2.1-7.7-3.6-15.4,1.4-22.2c2.6-3.6,3-7,2.9-11
		c-0.2-8.1,5.2-13.4,11.2-15.8c7.4-2.9,14,0.7,16,8.3c0.5,1.9,0.8,3.8,1.4,5.7c3.4,11,6.7,22.1,10.5,33c1.9,5.4,5.2,10.4,7.8,15.6
		c-2.5-10.2-5.6-20-8.5-29.9c-4.6-15.6-8-31.4-6.5-47.7c1.2-12.5,8.9-17.6,19.6-16.1c4.9,0.7,10,2.8,10.4,10.5
		c0.1,2.2,1.1,4.4,1.6,6.6c2.5,11.3,4.8,22.6,7.4,33.9c2.5,10.9,4.6,21.9,9.8,32.1c-0.1-1.9-0.7-3.8-0.8-5.6
		c-0.4-9.4-1-18.9-0.9-28.3c0.1-5.9,0.4-12,2.1-17.5c4-13.2,10.9-17.7,23.3-13.6c4.3,1.4,6.4,4.8,6.4,9.5
		c0.1,13.6,0.2,27.1,1.8,40.6c1.4,11.7,4,23,7.8,34.6c3-4.8,6-9.3,8.7-13.8c7.9-13.2,16-26.2,23.4-39.6
		c6.2-11.1,11.5-22.7,17.2-34.1c12.8-25.9,25.5-51.9,40.5-77.4c-1.1-0.8-2.2-1.6-3.2-2.5c-8.3-8-16.6-16.1-22.3-26.3
		c-4.9-8.8-9-18-7.7-28.4c0.4-3.2,1.9-6.6,3.9-9.2c4.8-6.4,12.4-6.8,19.5-7.6c7.5-0.9,15.1-1.2,22.6-2.1c6.6-0.8,11.4-4.6,14.7-10.4
		c2.7-4.7,3.4-9.9,3.5-15.1c0.1-6.2,0.9-12.6-0.1-18.7c-1.3-8.6,0-13,7.3-17.9c2.3-1.6,4.3-3.6,6.5-5.3c9.6-7,18.4-14.8,26.2-24.5
		c-2.6-1.5-4.9-2.9-7.1-4.2c-3.3,2.8-6.4,5.2-9.3,7.9c-9.2,8.5-19.6,15.4-30.7,21.1c-10.5,5.3-21.4,9.6-33,12
		c-13.7,2.8-27.5,3.7-41.5,1.3c-20.1-3.6-37.1-12.3-51-27.2c-4.2-4.5-8.5-9-8.8-16c-0.1-3.4-1.6-6.7-2.4-9.4
		c-3.3,2.4-6.3,4.8-9.5,6.9c-0.7,0.5-2.4,0.8-2.7,0.4c-0.7-0.9-1.4-2.3-1.2-3.4c0.2-1.3,1-2.8,2-3.8c3.1-3.1,6.5-6,9.8-9
		c-0.5-3.6-1.1-7.7-1.8-11.7c-2.6-16.4-5.5-32.9-7.9-49.3c-1.6-11-3-22.1-3.9-33.2c-0.8-9.6-1-19.2-1-28.8c0-7.9,0.6-15.9,0.9-23.8
		c0.3-5.4,0.6-10.9,1-16.3c0.2-2.8,0.3-5.7,1.4-8.2c1.3-3.4,0.1-4.9-2.7-6.1c-6.7-3-12.5-7.2-17.5-12.5c-5-5.3-6.6-11.7-4.7-18.3
		c1.1-3.9,0.2-6.1-2.1-8.6c-6.6-7.3-5.8-11.6,2.8-15.7c0.2-0.1,0.3-0.5,0.3-0.4c-1.2-3.8-2.5-7.4-3.4-11c-1-4-1.8-7.7-5.2-10.7
		c-2.8-2.6-4.8-6.2-6.7-9.6c-8.2-15.4-9-31.7-5.1-48.3c4.4-18.3,13-34.3,28.2-45.9c3.8-2.9,8.2-5.3,12.7-7.2
		c5.2-2.2,10.1,2.5,9.2,8.3c-1.1,7.2-0.3,14.1,4.3,20.1c0.1-0.3,0.3-0.5,0.4-0.8C108,21.8,120,8.4,139.8,2.7c3.4-1,5.7,0.2,7.9,2.3
		c2.4,2.3,2.5,5.1,1.5,8c-0.5,1.5-1.3,3-1.9,4.5c0.3,0.2,0.6,0.3,0.8,0.5c4.3-7.4,10.3-13.1,17.1-18c2,0,4,0,6,0
		c2.1,2.8,4.2,5.5,5.3,9.2c0.8,2.6,3.3,4.8,5.5,6.7c4.7,4.2,10.5,6.7,16.6,8c15.3,3.3,30.7,5.9,46,9.2c11.5,2.4,23,4.8,34.2,8.1
		c11.6,3.5,22.4,8.9,31.5,17.4c7.9,7.4,13,16.3,16.4,26.5c0.7-0.3,1.2-0.3,1.6-0.6c4.7-3.2,10.1-1,11.8,4.4c1.4,4.3,2.8,8.8,3,13.3
		c0.2,5.5-0.8,11-1.2,16.5c12,2.6,21.6,9.3,28.8,19.4c1.9,2.6,2.4,5.9,1.1,8.5c-1.4,2.9-4,5.1-8,4.6c-2.3-0.3-4.8,0.5-7.8,0.8
		c7.7,8.9,10.7,18.5,9,28.7c-2.4,14.7-10.9,26.1-21.8,35.9c-2.4,2.2-4.3,4.8-6.4,7.2c8.7,9,12.3,15.4,3.7,29.7
		c7.2,13.1,9.3,27.1,4.2,41.2c-4.7,13.2-14.8,21.7-28.2,25.7c-0.7,4.4-1.3,8.6-2.2,12.7c-1.9,9,2.8,15.8,7.3,23.4
		c4.8-4.9,9-9.5,13.4-13.7c11.1-10.7,17.7-24,21.1-38.7c2.2-9.4,3-19,4.1-28.6c1.2-10.3,2.1-20.6,3-30.9c0.4-5,2.1-7.5,7.1-8.5
		c8.5-1.8,17.1-1.8,25.5,0.4c2.9,0.8,3.9,0.1,4.9-2.2c3.4-7.8,7.4-15.3,10-23.4c1.8-5.5,4.5-9.6,9.5-12.2c6.5-3.4,13-7.5,20.5-7.5
		c23.1,0,46.2,0.5,69.3,0.9c15.3,0.3,30.6,0.8,45.7,1.2c-10.3-21.4-13.8-44.6-13.4-68.5c0.1-4.5,0.1-9,0-13.5
		c-0.1-3.9,0.2-7.5,3.5-10.3c3.2-2.8,5.9-6.1,9.1-8.9C569,79.6,586,72.9,604.5,71.2c17.6-1.6,34.6,0.8,50.2,10.5
		c7,4.4,12.1,9.4,13.5,17.9c1.1,6.7,3.3,13.3,4.7,20c1.9,9.9,4.4,19.9,5,29.9c0.9,12.9,0.9,26-4.1,38.5c-2.1,5.1-0.9,10.7,1.6,15.8
		c0.8,1.7,1.5,3.6,1.6,5.4c0.5,6.2-0.8,12.5,1.3,18.7c0.5,1.4,0,3.7-0.8,5c-4.6,7.5-9.2,15.1-17.2,19.7c0.3,1.4,0.8,2.8,0.7,4.2
		c-0.2,3.6,1.1,6.1,4.3,8.1c6.9,4.2,10.7,10.7,12.5,19c0.6-0.4,0.9-1,1.2-1.6c3-5.3,5.7-10.7,9-15.7c3.2-4.9,6.7-9.7,12.7-11.7
		c4.3-1.5,8.7-2.5,13-3.9c5.4-1.8,7.4-4.6,7.4-10.1c0-4.5,0.3-9-0.1-13.5c-0.4-5.1,6.8-10.9,11.7-10.4c5.2,0.5,7.9,4.3,7.4,10.8
		c-0.4,5.8-0.5,11.6-1.1,17.3c-0.9,8.5-3.6,16.5-10.7,21.8c-7.7,5.7-13.2,12.7-16.9,21.4c-0.9,2-2,4.3,0.3,5.6
		c3.8-3.4,7-6.6,10.6-9.4c2.5-2,5.4-3.8,8.3-5.1c3.5-1.5,6.7,0.6,6.3,4.3c-0.3,3.3-1,7-2.9,9.6c-5.9,8.2-12.9,15.6-22.5,19.8
		c-2.1,0.9-4.4,1.6-6,3.1c-6.8,6.3-15,6.3-21.9,2.3c-7-4.1-14.5-4.5-21.8-6.4c-5.4-1.5-10.1,1.6-15.2,2.3
		c-10.7,1.5-20.9,1.1-30.6-4.2c-8.6-4.8-16.2-16.3-11.7-27.3c2.5-6.1,1.1-10.8-1-16.1c-0.5-1.2-1-2.4-1.2-3.7c-0.3-2-1.3-2.6-3.2-3
		c-4.9-1.1-9.7-2.7-14.6-3.8c-5.3-1.1-7.2-4.6-8.4-9.5c-1.1-4.9-3.2-9.5-5.2-14.1c-0.5-1.1-2.2-2.2-3.5-2.3c-3.6-0.3-7.4-0.4-11,0
		c-7.3,0.8-14.6,2-21.9,2.9c-8.8,1.1-17.6,2-26.4,3.1c-7.3,0.9-14.6,2-21.9,2.9c-4.6,0.5-9.3,0.3-13.8,1.2
		c-7.4,1.5-14.7,0.9-22.9,0.2c-4.8,10.9-9.7,22.1-14.6,33.3c-0.4,0.9,0,2.1,0,3.1c0.1,8.2,1.1,16.5-1.8,24.5
		c-3.1,8.6-6.1,17.2-9.5,25.6c-4.5,11.1-7.1,22.4-3.5,34.3c2.8,9.1,5.8,18.3,13.4,24.7c4.9,4.1,10,8,15.4,11.3
		c8.3,5.1,17.1,9.2,27.1,8.8c9-0.3,17-4.1,25.2-7.4c8.6-3.5,17.3-7.1,27-4.5c8.9,2.4,14.9,7.7,16.9,16.9c1,4.3,1.7,8.6,2.5,12.7
		c4,0.8,7.8,1.5,11.6,2.4c12.5,2.9,25.1,5.7,37.5,8.9c16.1,4.2,32,8.9,48.1,13c23.5,5.9,47,12.3,71.2,15.2
		c10.2,1.2,20.3,3.2,30.5,4.9c8.7,1.4,17.5,2.5,26.1,4.4c10.2,2.2,20.2,4.9,30.2,7.8c2.6,0.8,5.8,2.6,7,4.8c4.9,9,6.7,18.4,3.4,28.8
		c-4.4,14.1-13.3,25-23.4,35.1c-7.7,7.8-16,15-23.8,22.6c-7.3,7.1-14.5,14.2-21.5,21.6c-3.9,4.2-7.2,8.9-10.6,13.5
		c-0.6,0.8-1,2.5-0.5,3c3.8,5.1,5.5,11,6,18c8.3-2.5,16.1-4.8,23.8-7.3c12.5-4.1,24.8-7.7,38.3-4.5c15.1,3.5,25.9,12.2,33.4,25.2
		c2.3,4,3.4,8.6,5.1,12.9c0,2,0,4,0,6c-2.1,1.6-4,4-6.4,4.8c-6.6,2.2-13.5,3.5-20.2,5.5c-17.4,5.2-35.3,7.9-53.2,10.6
		c-10.5,1.6-21.2,2.3-31.9,3.1c-9.1,0.6-18.2,0.8-27.3,1c-5.5,0.1-11,0-16.5,0c-6.8,0.1-13.3-1.6-19.5-4.2c-3-1.3-5-3.7-5.1-7.7
		c-0.2-8,0.8-15.8,3.3-23.3c1.1-3.3,0.2-5-2-7.3c-7.4-7.6-6.8-18.9-1-26.1c5.2-6.4,11.6-11.6,19.2-15.3c1.6-0.8,3.3-2,4.4-3.5
		c5.9-8,11.7-16.1,17.4-24.3c10.2-14.8,19.4-30.2,27.2-47.3c-4.5-1.7-8.8-3.5-13.2-5.1c-17.2-6.4-35.2-8.4-53.3-9.8
		c-13.1-1-26.2-0.9-39.3-1.1c-12.8-0.2-25.7,0-38.5-0.1c-2.3,0-4.6-0.4-6.8-0.9c-5.4-1-8.2,0.1-11.2,4.6c-7,10.6-14.3,21.1-21,31.9
		c-4.7,7.6-11.2,14.8-8.1,25.1c0,22,0.2,44.1-1.9,66.1c-1,11-0.9,22.2-1.1,33.3c-0.1,4.8,0.5,9.5,0.9,14.3
		c0.6,7.5,1.1,15.1,2.1,22.6c0.5,3.8,1.9,7.6,5.3,10.2c1.8,1.4,2.8,3.6,4.4,5.3c1.5,1.7,2.9,3.5,4.7,4.7c13.6,9,27.2,18.1,41,26.8
		c13.8,8.7,27.4,17.8,41.7,25.5c12.3,6.7,26.3,9.5,39.6,13.7c9.8,3.1,19.4,6.7,28.9,10.3c3.4,1.3,5.5,3.9,6.3,7.6
		c0.3,1.4,1.9,2.8,3.3,3.7c3.4,2.1,7.3,3.6,10.6,6c7.4,5.3,8.1,8.6,5.1,17.3c-4.5,12.9-9.4,25.9-9.9,39.7c-0.5,11.7,0.3,23.5,1,35.3
		c0.6,9.5,2.5,18.9,2.7,28.4c0.3,13.1-0.2,26.2-0.9,39.3c-0.5,9-3.9,16.4-12.3,21.2c-17.4,10-35.6,17.6-55.7,20.2
		C649.3,1022.4,645.8,1023.2,642.2,1023.9z"/>
	<path id="XMLID_21_" d="M75.3,359.7c0-2.1,0-4.2,0-6.3c-0.1-4.7-3.6-7.6-9-7.4c-4.5,0.1-9.5,4.4-8.9,8.1c0.4,2.3,2.2,4.4,3.3,6.6
		c-5.5-1.1-7.8-6.4-5.1-11.5c2.3-4.2,9.9-7.2,14.7-5.7c5.3,1.6,8.4,6.3,7.9,12c-0.1,1.5-0.9,2.9-1.3,4.4
		C76.3,359.8,75.8,359.8,75.3,359.7z"/>
	<path id="XMLID_20_" d="M55,388.9c-4.1,2.3-5.8-0.2-7.3-2.1c-1.5-1.9,0-9,2.1-10.5c1.8-1.2,4-2.5,6.2,0.3c-2.3,1.4-5.9,0.6-6,5
		C49.9,385.3,51.7,387.2,55,388.9z"/>
	<path id="XMLID_19_" d="M756.1,196.1c0,3-1.9,4.8-4.9,4.8c-2.7,0-5-2.2-5-4.9c-0.1-2.6,2.4-5.2,4.8-5
		C754.6,191.3,756.2,192.9,756.1,196.1z"/>
	<path id="XMLID_18_" d="M746.9,271c-3.5-3.2-5-6.6-3.3-8.6c1.1-1.3,3.3-2.3,4.9-2.2c1.3,0.1,3,2,3.4,3.4
		C753,267.2,752,268.4,746.9,271z"/>
</g>
</svg>
