<?xml version="1.0" standalone="no"?>
<!DOCTYPE svg PUBLIC "-//W3C//DTD SVG 20010904//EN"
 "http://www.w3.org/TR/2001/REC-SVG-20010904/DTD/svg10.dtd">
<svg version="1.0" xmlns="http://www.w3.org/2000/svg"
 width="128.000000pt" height="128.000000pt" viewBox="0 0 128.000000 128.000000"
 preserveAspectRatio="xMidYMid meet">

<g transform="translate(0.000000,128.000000) scale(0.100000,-0.100000)"
fill="#000000" stroke="none">
<path d="M590 1271 c-8 -6 -18 -8 -22 -5 -13 8 -68 -26 -79 -50 -17 -36 -67
-57 -116 -47 -32 6 -46 5 -54 -5 -11 -14 -8 -60 7 -97 6 -17 2 -18 -32 -16
-34 3 -48 -4 -107 -50 -37 -29 -70 -63 -73 -76 -4 -15 -15 -25 -34 -28 -34 -7
-69 -54 -77 -101 -5 -32 -1 -40 41 -81 33 -34 51 -45 65 -40 11 3 22 1 26 -5
3 -5 22 -10 41 -10 26 0 44 8 65 29 16 17 38 33 49 36 30 9 53 50 46 80 -3 13
-18 35 -32 49 l-27 24 29 18 c16 10 34 24 40 31 19 22 60 5 98 -41 33 -40 33
-43 15 -54 -31 -20 -25 -68 11 -87 33 -17 87 -20 124 -5 19 7 24 6 20 -4 -3
-7 2 -19 11 -26 18 -15 3 -40 -24 -40 -10 0 -26 -7 -37 -15 -24 -18 -54 -18
-78 0 -36 27 -113 47 -135 35 -18 -9 -20 -19 -18 -90 1 -44 0 -80 -3 -79 -3 0
-19 19 -35 42 -38 52 -73 60 -103 23 -11 -15 -24 -26 -29 -26 -15 0 -46 -79
-37 -98 4 -9 8 -28 8 -42 1 -18 8 -26 26 -30 14 -3 38 -13 53 -24 15 -10 49
-23 75 -27 26 -5 58 -18 72 -29 14 -11 40 -28 58 -37 30 -16 36 -16 60 -2 31
17 33 41 9 104 -8 22 -18 75 -21 119 l-7 79 43 -25 c36 -22 44 -34 56 -77 16
-55 27 -64 38 -28 7 22 7 21 17 -6 l9 -28 34 20 c32 19 34 19 25 2 -14 -25 -5
-31 32 -20 18 5 33 9 34 9 2 0 3 -8 3 -17 0 -10 11 -37 24 -60 26 -46 17 -61
-21 -35 -30 19 -68 9 -90 -24 -15 -24 -15 -29 0 -70 9 -26 14 -57 10 -79 -3
-21 -1 -41 7 -50 7 -8 16 -30 19 -48 l7 -32 66 1 c51 1 72 6 97 25 33 24 41
56 16 65 -14 6 -55 67 -55 83 0 4 18 14 40 21 60 20 63 27 34 106 -28 75 -39
152 -33 232 1 26 -11 113 -17 124 -4 5 -8 36 -9 68 -2 31 -11 72 -20 91 -17
32 -17 33 6 52 50 41 109 69 122 59 6 -5 26 -13 44 -16 44 -10 48 -31 13 -69
-38 -40 -38 -68 -1 -104 15 -16 32 -39 36 -51 13 -44 98 -52 128 -14 7 9 21
22 31 28 11 6 24 19 30 30 6 10 19 30 29 43 36 50 15 122 -44 145 -33 13 -39
20 -39 45 0 24 -7 33 -39 49 -21 11 -42 18 -45 15 -3 -4 -12 1 -19 10 -14 20
-77 35 -77 19 0 -6 -16 -16 -35 -22 -20 -7 -58 -27 -85 -45 -28 -19 -50 -30
-50 -25 0 13 30 40 44 40 38 0 109 111 104 163 l-3 32 -61 -1 c-39 0 -69 -7
-85 -17 -31 -22 -32 -22 -53 17 -31 59 -137 97 -186 67z"/>
</g>
</svg>
