<?xml version="1.0" standalone="no"?>
<!DOCTYPE svg PUBLIC "-//W3C//DTD SVG 20010904//EN"
 "http://www.w3.org/TR/2001/REC-SVG-20010904/DTD/svg10.dtd">
<svg version="1.0" xmlns="http://www.w3.org/2000/svg"
 width="420.000000pt" height="594.000000pt" viewBox="0 0 420.000000 594.000000"
 preserveAspectRatio="xMidYMid meet">

<g transform="translate(0.000000,594.000000) scale(0.100000,-0.100000)"
fill="#000000" stroke="none">
<path d="M2345 5865 c-185 -36 -270 -61 -373 -111 -66 -32 -109 -48 -113 -41
-4 6 -8 4 -10 -6 -6 -23 -138 -108 -184 -117 -33 -6 -35 -8 -12 -9 l29 -1 -29
-23 c-34 -28 -119 -80 -153 -94 -25 -10 -25 -10 -3 -17 21 -7 20 -9 -24 -67
-30 -38 -52 -58 -61 -54 -9 3 -12 0 -9 -8 3 -9 -12 -23 -41 -38 -26 -13 -49
-27 -52 -30 -3 -4 -23 -15 -45 -24 -22 -9 -34 -19 -28 -22 19 -7 -26 -62 -69
-84 -36 -18 -65 -43 -101 -85 -17 -21 -17 -21 8 -17 14 3 25 1 25 -4 0 -13
-79 -123 -88 -123 -4 0 -17 -8 -30 -18 -23 -18 -22 -18 19 -14 l42 4 -35 -43
c-52 -65 -84 -120 -93 -159 -4 -19 -18 -53 -31 -76 -13 -23 -32 -73 -42 -112
-15 -58 -21 -69 -31 -59 -11 10 -12 4 -6 -28 13 -82 -32 -128 -105 -108 -47
12 -50 7 -13 -22 l26 -22 -36 -21 c-73 -46 -142 -148 -161 -237 -6 -27 -5 -28
8 -12 12 16 14 6 9 -85 -6 -125 -11 -134 -144 -268 -104 -105 -160 -191 -189
-290 -45 -154 -53 -705 -14 -944 l6 -40 -27 18 -28 19 20 -29 c22 -32 38 -74
28 -74 -4 0 -19 8 -33 19 -15 10 -37 21 -48 25 -16 5 -12 -4 19 -36 22 -23 49
-62 61 -87 26 -58 25 -150 -4 -346 -31 -211 -37 -376 -15 -450 9 -33 21 -65
25 -70 5 -6 14 -33 20 -60 16 -71 112 -199 173 -231 27 -14 27 -14 15 5 -18
30 -1 38 30 13 178 -140 273 -154 310 -45 l10 31 -33 -14 c-37 -15 -71 -8 -94
19 -10 13 -10 27 -1 70 15 73 6 103 -41 133 -27 17 -39 31 -39 47 0 32 40 67
84 74 21 3 43 15 51 26 16 23 11 37 -7 19 -7 -7 -18 -12 -26 -12 -10 0 -12 17
-9 78 4 79 36 162 85 222 29 35 58 18 54 -32 -4 -42 23 -175 39 -194 7 -9 20
-12 31 -8 18 6 20 2 16 -50 -4 -66 7 -68 39 -5 20 38 93 353 93 401 0 26 -47
75 -137 143 -46 35 -97 80 -113 101 -17 20 -48 51 -71 68 -36 28 -40 35 -37
69 4 38 -8 47 -30 25 -6 -6 -15 -9 -18 -5 -4 3 16 27 44 52 47 43 112 128 112
147 0 5 -12 0 -26 -11 -52 -41 -53 -24 -5 97 26 64 60 160 75 212 35 121 45
144 90 203 39 51 39 54 -4 32 l-29 -15 15 42 c9 24 26 84 39 133 l23 90 44 11
c25 7 56 17 68 24 13 7 51 21 84 31 58 16 59 18 24 18 l-38 1 122 123 c67 67
123 117 125 110 7 -19 129 -215 173 -275 38 -53 41 -62 47 -143 l6 -86 -28 7
-27 7 27 -42 c27 -40 28 -45 22 -142 -5 -95 -7 -103 -35 -133 -16 -17 -70 -85
-118 -151 -175 -236 -261 -418 -314 -665 -11 -52 -27 -124 -35 -160 -36 -162
-6 -295 99 -437 31 -40 48 -54 83 -63 56 -16 151 -8 226 18 69 25 73 21 63
-64 -8 -69 -33 -119 -71 -142 -22 -14 -35 -36 -56 -97 -18 -54 -31 -79 -40
-77 -8 2 -30 6 -49 8 -34 4 -34 4 -7 -5 16 -6 35 -18 42 -28 36 -48 -95 -179
-243 -244 -157 -67 -162 -70 -178 -101 -39 -76 27 -148 186 -201 55 -19 87
-22 210 -22 155 0 195 8 262 53 41 26 103 112 114 154 4 20 21 37 59 58 53 30
105 76 105 92 0 4 -11 35 -24 68 -31 76 -37 103 -41 195 -3 69 -1 77 21 94 33
26 30 34 -11 29 -29 -3 -35 -1 -35 15 0 10 14 32 30 47 l31 29 -26 3 -25 3 28
60 c16 33 32 79 36 103 3 24 20 72 36 108 26 58 27 66 15 91 -8 16 -17 46 -20
69 -7 40 -5 43 75 135 83 96 100 111 100 87 0 -7 8 -23 18 -36 17 -21 17 -20
14 44 -3 56 0 74 21 113 14 25 35 74 47 109 13 34 24 62 25 62 2 0 23 -11 46
-25 56 -31 157 -34 239 -5 41 14 57 16 62 7 7 -11 19 -49 49 -159 5 -20 21
-50 34 -67 37 -43 56 -96 57 -155 0 -28 3 -44 5 -36 3 8 14 34 24 58 l18 42
34 -22 c19 -13 42 -27 51 -33 16 -9 16 -13 0 -50 -54 -125 19 -306 170 -419
24 -18 48 -50 67 -89 27 -57 56 -164 47 -173 -3 -2 -19 2 -36 8 -25 10 -34 10
-44 -1 -7 -7 -8 -12 -3 -11 24 5 35 -2 50 -30 19 -37 19 -40 -4 -40 -11 0 -23
-4 -26 -10 -3 -5 -1 -10 4 -10 18 0 12 -35 -16 -96 -20 -43 -27 -74 -27 -116
1 -56 19 -118 35 -118 16 0 59 -55 59 -76 0 -11 -9 -56 -20 -99 -34 -132 -23
-212 35 -264 46 -40 99 -47 279 -32 249 20 440 94 510 198 l23 33 -33 101
c-43 129 -89 203 -190 309 -89 93 -104 116 -104 154 0 14 -4 26 -9 26 -14 0
-18 51 -7 78 5 12 19 23 30 23 17 1 18 2 4 6 -10 2 -31 -5 -47 -16 l-29 -21
-21 62 c-54 161 2 351 115 388 41 14 35 34 -8 28 -30 -5 -30 -4 -24 31 3 20
11 70 17 111 22 150 -13 454 -67 585 -14 33 -39 98 -56 145 -73 202 -158 332
-334 506 -168 167 -216 245 -207 339 3 30 2 36 -6 25 -6 -8 -11 -48 -11 -89 0
-73 0 -74 -20 -56 -71 65 -115 193 -108 318 5 88 12 98 78 116 59 17 145 69
249 153 84 68 173 108 237 108 30 0 94 -57 151 -134 49 -66 52 -83 21 -95 -21
-8 -21 -8 5 -15 15 -3 27 -13 27 -21 0 -14 -3 -14 -30 0 l-30 16 40 -53 c26
-33 39 -60 36 -72 -3 -10 2 -32 10 -48 14 -27 14 -28 -13 -28 -26 -1 -25 -2
11 -15 67 -24 71 -32 46 -112 -16 -53 -29 -76 -52 -93 -35 -26 -54 -20 -75 21
-12 23 -13 22 -13 -14 0 -21 5 -47 11 -59 15 -28 86 -58 141 -58 l47 0 -6 -37
c-8 -51 -17 -59 -49 -44 -36 16 -38 10 -11 -30 20 -29 28 -34 58 -32 61 5 83
3 92 -6 13 -13 -10 -49 -44 -70 -26 -16 -28 -20 -14 -31 22 -19 79 -4 112 29
15 16 47 34 71 41 32 8 50 21 70 50 33 48 42 50 41 8 -1 -47 -10 -66 -44 -88
l-30 -20 37 0 c96 0 165 137 175 347 7 130 -2 176 -54 280 -34 68 -36 75 -24
112 8 28 19 42 39 49 25 10 25 10 4 11 -13 1 -34 -11 -49 -25 -14 -14 -26 -24
-27 -22 -2 2 -16 34 -32 73 -16 38 -47 97 -68 130 -34 52 -40 68 -40 118 -1
53 -4 54 -21 2 -5 -16 -13 -7 -43 50 -20 39 -79 129 -130 201 l-92 131 0 104
1 104 39 43 c35 39 39 41 45 22 12 -38 23 -20 12 21 -7 30 -7 59 1 103 7 33
15 78 18 99 4 26 9 35 15 26 4 -7 10 -11 13 -9 9 9 -22 82 -58 136 -20 30 -48
87 -62 127 -71 197 -157 322 -340 496 -84 80 -94 93 -69 87 28 -6 28 -5 -10
19 -22 14 -62 38 -90 52 -65 33 -115 81 -115 110 0 17 -6 23 -23 23 -13 0 -53
19 -88 42 -181 117 -351 152 -554 113z m156 -408 c40 -27 108 -123 108 -153 1
-27 -11 -32 -72 -26 -40 3 -55 11 -92 48 -37 35 -45 50 -45 79 0 36 28 75 54
75 7 0 28 -10 47 -23z m462 -15 c15 -15 27 -37 27 -48 0 -22 -35 -83 -59 -101
-36 -28 -131 -7 -131 29 0 24 58 126 78 138 29 17 58 11 85 -18z m841 -2358
c9 -3 16 -10 16 -15 0 -16 -74 -118 -82 -113 -17 11 -9 93 12 114 21 21 29 23
54 14z"/>
</g>
</svg>
