<?xml version="1.0" encoding="utf-8"?>
<!-- Generator: Adobe Illustrator 19.0.0, SVG Export Plug-In . SVG Version: 6.00 Build 0)  -->
<svg version="1.1" id="Layer_1" xmlns:svg="http://www.w3.org/2000/svg"
	 xmlns="http://www.w3.org/2000/svg" xmlns:xlink="http://www.w3.org/1999/xlink" x="0px" y="0px"
	 viewBox="406.3 -428.4 1109.6 1691.7" style="enable-background:new 406.3 -428.4 1109.6 1691.7;" xml:space="preserve">
<style type="text/css">
	.st0{stroke:#000000;stroke-width:9;}
</style>
<g>
	<path class="st0" d="M1463,691.3c-37.5-60-77.3-97.3-120.1-117.5c28.5-11.6,50.2-32.1,60.8-50.4c30.2-52.3,29-144.2-54.7-144.2
		c-110.3,0-90.9,115.5-72.1,99.4c0-115.8,128.1-102.6,128.1-25.8c0,50.5-102,145.7-213.8,7c-11.8-14.7-23.6-27.6-35.3-38.9
		c0-5-0.3-10.1-0.9-15.2l3.9,11.1c70,0,86.4-61.5,86.1-96.5c-0.3-37.5-13.5-110.7-64.6-110.7s-73.2,58.9-73.2,58.9l3.9,11.3
		c-2.8-6.9-5.6-13.8-8.2-20.8l10.4-5.2l10.3-92.9c44.8-1.4,78.1-3.3,91.9-4.2c4.6-0.3,7.1-2.5,11.1-7.2c0,0-1.5-10.2,26.7-65.5
		c3.9-6.6-1.8-12.5-5.3-12.4c-17.1,0.5-85,38.9-162.9,46.5c4.6-240.7,184.9-360.5,218.7-420.6c8.7-5.8-2-17.6-7.4-18.7
		c-172.2-34.7-327.4-84.7-465.7-102.2C752.4-208.8,762.7,46.9,791,116.3c-79.7-5.1-219.7-74.5-227.5-72c-6.2,2.1-9,43.7-9,43.7
		c28.2,21.4,72.6,37,125.3,48.1c-24.7,12.2-42.3,30.2-36.1,41c7.3,12.7,18.3-36.2,66.8-35.2c4.8,0.8,9.7,1.6,14.6,2.4
		c13.3,5.7,25.2,23.2,37.2,43.9c-6.6,4-16.7,12.9-31.9,31c-44.5,52.8,18.7,87.3,19.7,87.8c-47.7,24.4-98.7,68.3-97.3,144.7
		c0,93.8,22.9,129.7,75.3,164.1c0,0,34.5-51.3,75.4-104.2c-0.1,20.9-2.4,72.6-21.6,85.4c-8.4,5.6,4.5,9.8,26.1,8.6l-0.7,12
		l-7.3,30.4l-2.4,1.4c-0.4-0.2-0.7-0.3-0.7-0.3c-0.3,0.4-0.5,0.8-0.8,1.1l-8.4,5c1.4,0.4,2.7,0.7,4.1,1.1
		c-3.7,4.9-7.6,8.8-13.1,12.3c-11.2,4-28.1,10.2-45.1,17.4c-3.8,1.1-8,2.3-12.4,3.5c-81.6,22.3-55.1,101.3-22.8,125.5
		c32.3,24.2,94.2,51.1,137.2,37.7c22.9-7.1,86-34.8,145-59.1c-14.8,29.7-27,56.8-35.8,77.2c-12.3-2.6-33.1-2-68.4-2
		c-45.3,0-167.3,57.4-153.9,88.9c3.9,9.1,12.8,28,23.6,50.2c-0.6,0.8-1.2,1.6-1.8,2.5c-31.7,46.3-75.2,124.9-34.8,165.3
		c38,38,52.2,10,52.2,10c7.7-0.9,10.7,5.5,17.6,5.5c10.5,0,11.3-4.7,23.5-4.7c12.2,0,4.9,72.5,4.9,72.5h652.7c0,0,0-92.7,0-114.6
		s17-9.7,26.8-29.2C1497.1,1095.5,1548.2,827.6,1463,691.3z M1217.2,557.6c-17.4,2.5-35.3,6.5-53.7,11.9c-2.8,0.8-5.6,1.8-8.4,2.9
		c-0.9-23-1.3-49-1.1-78.7c1.6,2.1,3.2,4.2,4.9,6.3C1178.2,525.8,1197.8,544.5,1217.2,557.6z M968.1,426.6
		c-4.4,26-12.8,51.2-24.5,73.9C952.4,468.7,960.2,444.6,968.1,426.6z M808.7,247.2c-4.3-5.5-7.6-12.4-10.5-20.7L808.7,247.2z
		 M806.9,627.7l-1,16.9l-4.6,2.7C803,641.8,805.1,634.8,806.9,627.7z M989.1,731.9l2.6,1.1c-3-1.1-6.2-2.3-9.6-3.6
		C984.6,730.4,986.9,731.2,989.1,731.9z"/>
	<path class="st0" d="M479.6,654.4c-57.4,0-51.3-65.8-34.4-95.1c27.3-47.2,69.4-18.3,81.9-27.9c-70.5-54.1-153.5,69.4-98.3,124.6
		c58.3,58.3,126.7,5.2,145.9-29.5c26.2-47.5,85.2-90.1,85.2-90.1l-9.8-62.3C532.1,557.7,555.1,654.4,479.6,654.4z"/>
</g>
</svg>
