<?xml version="1.0" encoding="utf-8"?>
<!-- Generator: Adobe Illustrator 23.0.1, SVG Export Plug-In . SVG Version: 6.00 Build 0)  -->
<svg version="1.1" xmlns="http://www.w3.org/2000/svg" xmlns:xlink="http://www.w3.org/1999/xlink" x="0px" y="0px"
	 viewBox="0 0 251.35 356.03" style="enable-background:new 0 0 251.35 356.03;" xml:space="preserve">
<style type="text/css">
	.st0{fill:none;stroke:#000000;stroke-width:5.8452;stroke-miterlimit:10;}
</style>
<g id="Layer_3">
	<circle class="st0" cx="125.67" cy="154.28" r="122.75"/>
</g>
<g id="Layer_1">
	<path d="M31.99,252.51c0.02,6.51,1.13,13.02,1.76,19.53c0.18,1.81-0.15,4.98,0.52,5.2c3.96,1.3,1.91,4.75,2.81,6.71
		c1.19-2.81,2.46-5.78,3.73-8.76c0.32,0.12,0.65,0.24,0.97,0.36c0,5.87,0.02,11.75-0.04,17.62c0,0-5.83,11.86-7.46,15.96
		c-1.64,4.1-1.77,4.55-1.26,6.19c0.69,2.2,2.78,3.4,3.76,3.85c6.14,3.85,7.14,3.85,11.14,6.85c14.92,6.96,31.76-11.21,43.81-15.92
		c0,0-1.81,9.92-12.81,11.92c0,0,4,1,11.29,2.32c-6.29,6.68-13.04,13.7-19.46,19.95c0.09,0.14,0.19,0.29,0.28,0.43
		c6.59-2.49,13.17-4.97,19.76-7.46c-3.04,6.77-9.3,12.49-11.91,18.77h150.37c-2.33-5.48-5.42-16.95-10.32-25
		c0-2-4.52-12.15-2.14-13.24c0.56,1.65,2.48,4.86,2.89,4.83c0.61-8.31-0.78-16.62-0.17-24.92c4.21,15.63,1.15,30.01-7.46,43.5
		c4.54-4.92,8.64-9.97,9.9-16.63c1.21-6.36,2.32-12.75,3.42-18.86c6.57,14.91,2.45,28.03-8.5,39.88c5.86-4.5,10.59-9.34,12.4-16.73
		c1.71-6.95,2.29-13.66-0.53-21.3c6.08,4.56,5.75,3.08,14.17,6.47c-2.65-3.7-6.62-12.14-8.71-15.14c0.33-0.2,0.67-0.39,1-0.59
		c3.6,1.48,7.2,2.96,10.8,4.44c-1.92-2.02-3.94-3.82-6.29-4.73c-2.76-1.07-1.83-3.95-3.44-5.45c-6.95-6.55-10.78-14.81-12.8-23.95
		c-0.88-4.01-1.75-8.19,1.07-12.26c0.29,2.16,0.58,4.32,0.91,6.78c0.6-1.09,1.1-2.01,1.64-2.98c9.3,9.82,5.82,9.89,9.82,12.89
		c-4-3-2-9-4-12c-1.98-2.97-4.39-6.31-5.4-9.52c-1.65-5.29-1.83-11.04-2.64-16.59c0.2-0.07,0.39-0.13,0.59-0.2
		c1.56,3.23,3.12,6.46,4.67,9.7c0.18-0.05,0.36-0.09,0.54-0.14c-0.19-2.21-0.37-4.41-0.56-6.62c0.23-0.01,0.47-0.03,0.7-0.04
		c0.66,2.29,1.31,4.58,1.97,6.87c1.79-4.97,0.8-9.66-0.29-14.36c-0.79-3.42-4.46-6.42-1.51-10.42c0.14-0.19-0.46-0.85-0.57-1.32
		c-2.04-8.86-5.09-17.3-10.02-25.02c-0.8-1.25-0.74-3.09-1.63-4.22c-0.87-1.11-2.45-1.66-3.72-2.46c-1.22-0.77-2.44-1.55-4.02-2.55
		c7.8-0.67,7.8-0.67,8.9,2.38c0.32-0.76,0.52-1.35,0.82-1.89c0.28-0.51,0.67-0.96,0.79-1.12c2.27,0.57,4.12,1.03,6.64,1.65
		c-5.29-8.08-8.48-8.15-17.87-9.13c8.5-4.62,12.67-5.42,21.75-3.62c-0.88-1.05,2.84-1.28,2.25-1.42c-3.03-0.67-6.11-1.07-9.15-1.66
		c-1.78-0.35-4.41,0.8-4.62-1.54c-4.19,2.03-8.66,4.2-14.05,6.81c3.44-5.01,6.3-9.18,9.16-13.34c-0.28-0.25-0.55-0.51-0.83-0.76
		c-2.27,2.07-4.54,4.13-7.04,6.42c0.4-2.15,0.74-3.91,1.07-5.67c-3.72,7.7-4.97,9.41-8.86,11.53c0.63-2.54,1.24-4.97,1.84-7.39
		c2.57-10.34-2.06-7.44-8.46-16.46c-1.96-2.76-4.89-5.23-6.07-7.92c-3.85-8.76-7.6-17.73-8.35-27.51
		c-0.32-4.09-2.19-7.84-2.05-12.17c0.14-4.14-1.8-8.32-1.89-12.51c-0.16-6.94-0.64-13.75-2.02-20.59
		c-2.6-12.95-6.19-25.41-11.48-37.64c-4.33-10.02-11.86-18.9-12.37-30.6c-1.06,9.73-1.79,19.4-2.17,29.08
		c-0.13,3.25,1.11,6.58,0.82,9.79c-0.67,7.49-1.9,14.93-2.88,22.39c-0.34,2.6-0.61,5.2-0.95,7.8c-0.32,2.44-0.67,4.87-1.04,7.3
		c-0.39,2.59,0.09,6.19-1.42,7.55c-2.61,2.33-0.11,4.26-0.74,6.2c-0.15,0.46-0.54,0.86-0.66,1.33c-0.47,1.88-0.99,3.77-1.28,5.68
		c-0.96,6.47-2.04,12.94-2.68,19.45c-0.64,6.56-0.81,13.17-1.18,19.76c-0.04,0.76-0.07,1.53-0.11,2.29
		c-0.18-0.01-0.37-0.01-0.55-0.02c-0.43-1.47-0.87-2.93-1.51-5.1c-0.68,1.54-1,2.26-1.34,3.03c-0.98-1.47-1.93-2.9-2.85-4.28
		c-4.26,8.4-11.91,12.73-19.34,18.14c-0.32-3.74-0.59-6.87-0.85-10c-0.27,0.01-0.54,0.02-0.8,0.03c-0.78,1.52-1.57,3.03-2.47,4.78
		c-3.1-1.46-5.54-1.41-5.66,1.33c-1.41-0.98-3.64-1.99-5.09-3.67c-2.11-2.45-4.64-5.18-5.25-8.15c-2.38-11.6-7.53-22.21-10.98-33.4
		c-0.37-1.2,0.42-2.77,0.69-4.2c-3.44,0.55-3.32-1.84-2.95-4.47c0.08-0.55,0.04-1.22-0.2-1.71c-0.86-1.69-2.28-3.22-2.7-4.99
		c-1.85-7.74-3.46-15.54-5.07-23.34c-1.09-5.27-1.97-10.59-3.03-15.87c-0.9-4.45-1.9-8.88-2.89-13.31c-0.32-1.42-0.88-2.8-1.08-4.23
		c-0.88-6.41-1.67-12.83-2.49-19.25c-1.2,4.03-1.99,8.15-2.51,12.3c-1.09,8.78-1.97,17.58-3.11,26.35c-0.29,2.23-1.7,4.34-1.84,6.56
		c-0.82,13.03-1.68,26.07-2.01,39.11c-0.34,13.28,0.06,26.58-0.17,39.87c-0.06,3.53-1.17,7.07-2.02,10.55
		c-0.14,0.59-1.4,0.91-3.17,1.96c-0.3,2.88-0.73,7.03-1.15,11.18c-1.24-0.24-2.24-0.43-3.2-0.61c1.43,7.2,2.48,14.1,4.29,20.8
		c0.83,3.07-0.53,3.96-2.38,4.61c0.3,3.3,0.57,6.19,0.85,9.24c-1.92-0.32-3.28-0.55-5.07-0.86c0.12,1.54-0.11,2.81,0.35,3.71
		c1.99,3.89,4.03,7.78,6.37,11.47c1.84,2.91,1.79,3.81-1.27,5.23c0.55,1.66,1.1,3.28,1.79,5.36c-1.43-0.63-2.21-0.97-3.75-1.65
		c1.39,2.55,2.37,4.35,3.47,6.36c-4.91,1.59-7.4,5.48-9.58,9.57c-1.21,2.28-2.09,4.73-3.09,7.11c-0.18,0.42-0.17,0.92-0.27,1.47
		c1.33,0.31,2.56,0.59,3.63,0.83C33.64,244.65,31.98,248.59,31.99,252.51z M100.85,235.16c3.92-1.87,10.87-4.72,17.63-1.49
		c0,0-2.05,7.64-10.86,12.07c-7.66,3.84-15.77,4.87-17.9,2.56C92.33,241.64,96.92,237.03,100.85,235.16z M83.92,186.03
		c1.53-3.65,5-6,7.91-7.07c1.09,2.07,2.09,6.07,0.09,10.07s-4,5-7.52,7.87C83.99,192.66,82.4,189.68,83.92,186.03z M53.12,226.61
		c3.78,2.71,3.71,18.37,3.71,18.37s-3.31-1.91-4.42-7.53C51.45,232.57,50.82,229.42,53.12,226.61z"/>
</g>
</svg>
