<?xml version="1.0" encoding="utf-8"?>
<!-- Generator: Adobe Illustrator 23.0.1, SVG Export Plug-In . SVG Version: 6.00 Build 0)  -->
<svg version="1.1" id="Layer_1" xmlns="http://www.w3.org/2000/svg" xmlns:xlink="http://www.w3.org/1999/xlink" x="0px" y="0px"
	 viewBox="0 0 1119.31 1018.87" style="enable-background:new 0 0 1119.31 1018.87;" xml:space="preserve">
<g>
	<path d="M6.61,255.78c6.84-24.78,20.09-49.67,38.54-69.65c9.56-10.35,20.75-18.99,32.89-26.54c21.65-13.45,45.23-20.36,70.27-22.39
		c15.48-1.25,31,0.13,46.17,3.87c28.44,7.01,53.54,20.39,74.26,41.1c8.91,8.9,16.56,19.12,24.29,29.11
		c9.91,12.82,16.38,27.61,21.08,42.91c6.52,21.2,10.87,42.94,8.17,65.35c-1.47,12.17-2.69,24.48-5.62,36.33
		c-4.78,19.33-13.53,37.05-25.1,53.34c-8.72,12.28-18.82,23.28-30.67,32.53c-6.55,5.11-13.8,9.33-20.53,14.22
		c-1.72,1.25-4.03,3.77-3.76,5.3c1.33,7.5,3.44,14.86,5.28,22.27c1.38-3.05,1.32-6.14,1.92-9.08c2.83-13.93,10.5-24.49,22.62-31.9
		c13.36-8.18,28.12-7.43,40.27,0.83c3.44,2.34,5.82,6.97,7.48,11.04c2.03,4.97-1.28,8.46-5.15,11.42c-2.3,1.75-4.28,3.97-6.21,6.15
		c-8.44,9.51-9.6,18.43-4.09,29.8c3.64,7.51,7.13,15.1,10.76,22.62c1.24,2.58,2.33,5.35,4.09,7.55
		c5.72,7.15,11.72,14.08,17.91,21.46c13.81-4.66,20.24-9.24,29.17-20.04c7.93-9.58,11.06-20.82,13.06-32.76
		c4.4-26.25,9.52-52.39,13.63-78.68c2.43-15.56,3.75-31.3,5.06-47.01c1.35-16.28,2.06-32.61,3.1-48.91
		c0.6-9.37,1.06-18.77,2.04-28.11c1.45-13.86,2.72-27.78,5.13-41.48c3.84-21.84,8.97-43.39,16.21-64.44
		c6.69-19.43,15.27-37.94,27.17-54.58c6.88-9.63,15.6-18.03,24.07-26.4C483,98.27,498.72,89.55,515.45,83.2
		c16.11-6.11,32.79-10.76,49.3-15.77c11.21-3.4,22.74-5.83,33.81-9.62c8.26-2.83,16.62-6.21,23.82-11.02
		c8.51-5.68,15.58-13.49,23.72-19.79c9.43-7.29,19.07-14.4,29.18-20.69c5.05-3.14,11.35-4.27,17.08-6.32c4,0,8,0,12,0
		c15.19,3.36,25.47,13.77,35.93,24.28c6.09,6.12,13.11,11.5,20.33,16.27c7.66,5.05,16.71,7.3,25.82,6.27
		c12.34-1.4,23.46-6.59,33.55-13.86c3.27-2.35,6.82-3.4,10.26-0.8c3.39,2.56,3.94,6.2,2.34,10.12c-3,7.35-5.39,15.04-9.14,21.98
		c-10.97,20.31-27.78,31.59-51.43,31.7c-7.77,0.03-15.54,0.55-23.29,1.02c-1.56,0.09-3.07,0.96-5.84,1.88
		c10.93,9.22,20.53,17.73,30.58,25.68c11.27,8.92,21.03,19.2,28.69,31.28c13.36,21.07,20.38,44.73,25.93,68.71
		c6.06,26.15,9.66,52.77,12.2,79.51c1.49,15.69,3.22,31.35,4.99,47.01c1.57,13.84,3,27.72,5.12,41.48
		c2.6,16.94,5.66,33.82,8.86,50.66c4.17,21.95,8.57,43.86,13.16,65.74c0.39,1.85,2.64,4.11,4.48,4.68c4.18,1.3,8.64,1.68,13,2.39
		c11.94,1.93,23.86,3.97,35.84,5.6c2.26,0.31,5.85-0.28,6.97-1.82c7.25-9.89,16.75-16.2,28.29-19.91c1.42-0.46,2.98-2.33,3.37-3.84
		c4.58-17.69,7.78-35.49,7.31-53.99c-0.26-10.16,0.96-20.42,4.24-30.52c5-15.42,28.66-20.58,38.7-8.84
		c5.14,6.01,9.29,12.64,10.43,20.19c2.34,15.39,3.55,30.95,5.18,46.45c0.17,1.63,0.02,3.29,0.02,6.12c1.64-2.35,2.44-3.4,3.14-4.5
		c7.71-12.12,15.31-24.31,23.17-36.33c2.66-4.07,6.65-6.48,11.79-5.56c11.67,2.08,20.77,7.88,25.46,19.12
		c3.19,7.65,4.03,15.9,0.35,23.41c-5.51,11.24-11.84,22.09-18.12,32.93c-3.55,6.14-7.69,11.95-11.94,18.48
		c2.53,0,4.18,0.08,5.83-0.01c12.04-0.64,24.09-1.08,36.1-2.08c6.69-0.56,12.4-0.56,13.27,8.02c0,3.33,0,6.67,0,10
		c-0.33,0.32-0.89,0.6-0.95,0.96c-1.91,11.43-9.37,18.58-19.62,21.72c-12.09,3.71-24.69,5.89-37.18,8.12
		c-5.99,1.07-11.06,2.24-14.09,8.35c-2.08,4.19-5.3,7.84-8.19,11.6c-8.83,11.49-20.03,19.8-33.96,23.94
		c-2.65,0.79-3.71,1.66-4.56,4.13c-5.34,15.56-13.18,29.69-26.16,40.13c-10.17,8.19-21.51,13.05-35.06,8.11
		c-7.6-2.77-13.99-13.85-7.64-21.39c2.96-3.52,4.73-8.19,6.49-12.55c3.43-8.51,5.76-17.23,6.37-26.56c0.24-3.71-0.51-5.21-3.15-6.92
		c-7.79-5.05-12.89-12.22-16.25-20.8c-0.48-1.23-1.93-2.5-3.21-2.91c-6.66-2.15-13.41-4.03-20.12-6.01
		c-4.75-1.4-9.49-2.83-14.23-4.24c-0.36,0.37-0.72,0.74-1.08,1.1c4.49,12.35,9.25,24.61,13.39,37.08
		c5.94,17.92,13.63,35.04,23.66,50.96c6.17,9.79,13.67,18.76,20.77,27.95c6.02,7.79,13.89,13.59,22.91,17.11
		c17.73,6.93,34.79,15.05,50.1,26.37c7.82,5.78,15.26,12.59,18.54,22.06c6.63,19.18-0.64,31.5-14.84,42.54
		c-12.84,9.98-28.2,12.95-43.88,15.19c-7.56,1.08-14.9,3.66-22.04,5.49c5.57,10.27,11.27,19.11,15.34,28.65
		c6.87,16.1,9.7,32.98,6.63,50.57c-3.17,18.2-12.35,32.61-27.31,43.1c-12.78,8.96-26.77,12.85-42.92,11.35
		c-18.14-1.68-36.5-1.08-54.77-1.25c-4.34-0.04-7.86,2.21-10.06,6.09c-2.18,3.84-4.15,7.8-6.35,11.63
		c-9.02,15.72-18.32,31.18-32.08,43.49c-18.24,16.31-38.01,18.2-58.31,5.48c-14.64-9.18-29.61-17.85-44.6-26.45
		c-5.63-3.23-11.58-2.66-17.1,0.91c-2.2,1.42-4.4,2.83-6.52,4.36c-16.14,11.6-33.38,21.04-52.63,26.4
		c-5.7,1.59-11.52,2.74-17.29,4.09c-5.33,0-10.67,0-16,0c-0.49-0.34-0.97-0.97-1.47-0.99c-9.47-0.38-17.9-3.95-25.48-9.2
		c-5.38-3.72-10.06-8.44-14.56-12.29c-7.63,4.04-14.9,8.47-22.63,11.8c-5.99,2.58-12.45,3.29-19.23,1.98
		c-10.37-2-16.93-8.97-23.81-15.99c-13.79-14.06-28.42-27.19-45.78-36.81c-11.11-6.16-23.13-10.09-35.83-8.34
		c-19.4,2.68-38.64,6.49-57.95,9.83c-15.89,2.74-31.8,3.28-47.44-1.18c-7.57-2.16-14.66-6.02-18.39-13.41
		c-4.66-9.22-3.92-18.99-1.6-28.82c3.19-13.55,6.66-27.12,6.22-41.19c-0.3-9.48-2.41-18.46-9.54-25.56
		c-6.62-6.6-15.45-8.67-23.85-10.6c-13.22-3.05-25.69-7.3-36.68-15.33c-11.66-8.51-17.78-20.28-17.38-34.51
		c0.51-18.01,9.3-33.27,19.42-47.39c8.12-11.32,17.21-22.11,27-32.03c13.77-13.95,28.61-26.83,42.93-40.23
		c11.67-10.91,23.43-21.74,34.77-32.99c3.75-3.72,6.29-8.65,9.38-13.03c-0.5-0.56-0.99-1.12-1.49-1.69
		c-5.91,3.52-11.7,7.24-17.75,10.49c-5.7,3.06-11.45,7.13-17.57,8c-6.33,0.9-12.25,1.84-17.65,5.19c-2.6,1.61-5.16,3.34-7.54,5.25
		c-6.8,5.45-15.29,6.6-23.26,8.4c-13.97,3.15-28.41-2.36-33.63-17.69c-2.19-6.42-3.7-13.07-5.5-19.56c-1.04-0.07-1.7-0.16-2.36-0.14
		c-21.36,0.79-29.2-11.79-32.13-29.69c-0.82-5.04-0.53-10.25-1.15-15.34c-0.82-6.71-3.03-13.07-2.29-20.2
		c0.53-5.08-1.96-10.48-3.15-15.72c-0.9-3.95-1.22-7.6,0.22-11.78c2.27-6.61,6.44-11.69,10.71-16.85c0.52-0.63,1.3-1.54,1.16-2.13
		c-2.52-10.28-5.09-20.55-7.92-30.74c-0.3-1.09-2.25-2.29-3.54-2.44c-7.68-0.86-15.39-1.45-23.09-2.08
		c-18.25-1.49-35.07-7.98-51.02-16.21c-20.96-10.82-33.14-19.27-53.17-44.7C18.45,389,8.58,366.35,3.45,345
		C-2.55,320-0.23,280.57,6.61,255.78z M156.78,435.6c8.83-0.88,17.95-0.68,26.44-2.87c13.97-3.62,27.52-8.86,39.41-17.44
		c4.46-3.22,8.96-6.45,13.07-10.1c12.26-10.88,21.66-24.2,28.32-38.89c5.25-11.59,8.84-24.24,11.11-36.78
		c1.76-9.74,0.61-20.05,0.31-30.1c-0.48-16-5.74-30.82-12.35-45.14c-2.71-5.87-6.45-11.27-9.77-16.86
		c-6.48-10.9-15.44-19.53-25.08-27.57c-9.32-7.78-19.53-14.15-30.89-18.36c-7.28-2.69-14.83-4.81-22.42-6.45
		c-5.96-1.29-12.16-1.54-18.27-2.07c-3.96-0.35-7.99-0.84-11.92-0.47c-16.16,1.5-31.32,6.34-45.63,14.07
		c-20.86,11.27-36.5,27.74-47.63,48.37C38.5,268.98,34.1,294.73,37.2,322.05c1.93,17.03,7.01,32.93,14.85,47.84
		c8.26,15.72,19.77,29.1,33.84,40.09C106.68,426.22,130.01,435.41,156.78,435.6z"/>
</g>
</svg>
