<?xml version="1.0" encoding="utf-8"?>
<!-- Generator: Adobe Illustrator 23.0.1, SVG Export Plug-In . SVG Version: 6.00 Build 0)  -->
<svg version="1.1" id="Layer_1" xmlns="http://www.w3.org/2000/svg" xmlns:xlink="http://www.w3.org/1999/xlink" x="0px" y="0px"
	 viewBox="0 0 730.7 1023.9" style="enable-background:new 0 0 730.7 1023.9;" xml:space="preserve">
<style type="text/css">
	.st0{display:none;}
</style>
<g>
	<path class="st0" d="M546.9,337.1c-0.4,3.8-0.1,7.6,3.5,9.7c4.1,2.3,5.8,5.6,5.4,10.1c-0.3,3.7,1,6.3,4.4,8c1.4,0.7,2.8,1.8,3.9,3
		c7.1,8,14.3,15.9,21.1,24.2c12.7,15.3,26.6,29.3,43.1,40.6c4.4,3,7.6,5.8,6.6,11.7c-0.2,1.4,0.8,4.1,1.8,4.4c6,2,12.1,4,18.3,5
		c2.4,0.4,5.2-2.2,7.7-3.4c1.4-0.7,3.2-2.4,4.2-2c1.5,0.6,3.2,2.5,3.5,4.1c0.4,1.9,0,4.3-0.8,6.2c-2.6,6.8-8.8,8.7-15.1,10.3
		c-6.2,1.5-7.9,5.3-4,10.4c4.8,6.3,9.9,12.3,15.1,18.2c7.9,9,17.6,15.7,28,21.5c0,1.7,0,3.3,0,5c-1.1,1.5-2.1,3.1-3.3,4.6
		c-1,1.2-2.5,3.2-3.4,3c-5.2-0.9-9.7,1.1-14.4,2.2c-1.2,0.3-2.6-0.1-3.9-0.5c-3.4-1-7-3.7-10.1-3.1c-8,1.5-14.7-2.2-21.7-4.4
		c-3.4-1.1-6.7-3.3-9.3-5.8c-4.8-4.5-9-9.6-12.7-13.5c-6.7,3.8-12.7,7.3-18.9,10.5c-1.3,0.7-3.4,0.4-5-0.1c-6-1.9-8-7.3-10.2-12.5
		c-3.4-8.1-6.3-16.5-10.5-24.1c-6-10.8-12.9-21.2-19.6-31.6c-4.9-7.6-10.1-15-15.2-22.5"/>
	<path d="M535.7,426.2c-0.3,6.9,0.5,13.4,1.1,19.8c1.1,11.5,1.7,23,3.1,34.5c2,15.4,4.5,30.8,6.9,46.1c1.9,11.9,3.8,23.9,6,35.8
		c2.1,10.9,4.4,21.7,7,32.5c4.2,17.6,7.1,35.7,13.6,52.5c11,28.4,24,56.1,36.8,83.8c5.4,11.7,12,22.8,18.7,33.8
		c5,8.2,5.2,16.7,2.6,25.1c-3,9.6-9.7,16.8-17.5,23.2c-14.5,11.9-30.7,16.9-49.2,13.5c-1.8-0.3-4.4-2.6-4.7-4.3
		c-3.3-16-6.3-32-9.1-48.1c-1.5-8.4-1.8-16.6-12.5-19.7c-9.6-2.7-18.9-5.2-28.5-0.7c-7.4,3.5-15.5,6.1-21.9,10.9
		c-5,3.8-7.8,10.5-11.5,15.9c-0.2,0.3-0.2,0.9-0.2,1.4c-0.6,7.8-1.1,15.7-1.8,23.5c-1.1,10.9-3.1,21.8-3.5,32.8
		c-0.4,12.6,0.5,25.2,0.9,37.9c0,1,0.9,2,1.6,2.8c1.3,1.5,2.6,2.9,4.1,4.1c3.7,3.1,4.9,8.8,11.1,9.4c1.6,0.2,2.9,4.2,4.1,6.6
		c1,2,1.5,4.2,2.7,6.1c3.6,5.9,9.7,9.6,11.7,17.1c2.3,9,10.5,11.2,19,11.8c4.5,0.3,8.7,1.5,10.7,6.2c2.2,5.2,4.1,10.5,6.1,15.8
		c-0.6,0.4-0.9,0.7-1.3,0.9c-0.6,0.3-1.1,0.7-1.7,0.9c-14.6,5.4-29.7,6.3-45,4.9c-5.9-0.5-11.8-2.4-15.3-7.8
		c-5.4-8.5-14.2-9.2-22.8-9.9c-7.4-0.6-8.6,0.7-10.8,7.9c-4.8,0-9.6,0.1-14.4,0c-4-0.1-6.8-1.5-6.7-6.4c0.1-2.9-1.3-5.8-1.4-8.7
		c-0.6-12.6-1.6-25.2-1.1-37.7c0.3-6.3,2.3-12.5,0.7-18.9c-0.3-1.4,0.1-3.1,0.7-4.5c3.4-7.9,8.3-15.7,7-24.6
		c-1.5-10.3-4.3-20.4-7-30.4c-2.6-9.9-5.8-19.7-9-29.4c-0.4-1.3-2.1-2.9-3.5-3.2c-8.9-2-15.8-7-21.3-13.8c0.8-2.2,2.1-4.1,2.2-6.1
		c0.1-1.4-1.4-3.9-2.3-4c-6.9-0.7-13.8-1.2-20.8-1c-2.7,0.1-6.4-0.2-7.3,4.1c-1.5,6.5-3.8,12.9-4.7,19.4c-1.4,9.8-6.8,15.2-16.2,16
		c-4.3,0.4-5,2.6-6.1,5.6c-2.7,7.5-4,15.9-8.6,22.1c-8.6,11.8-13,24.5-14.6,38.8c-0.8,7.9-2.6,15.8-3.9,23.7c-0.2,1.5,0,3.1,0,4.7
		c-0.3,8.4,0.7,17.2-1.3,25.2c-2.6,10.3-2.7,20.5-2.7,30.9c0,0.3,0.1,0.7,0,1c-0.7,1.4-1.2,3.3-2.4,4c-4.9,2.7-10.1,5.1-15.5,7.7
		c-2.9,6.5-4.1,13.8-2.2,21.5c0.6,2.4,1.4,5,0.8,7.3c-2.2,9.3-7.1,17-15.8,21.3c-5.4,2.7-11.3,4.5-16.9,6.7c-5.3,0-10.7,0-16,0
		c-1.1-0.6-2.2-1.2-3.2-1.7c-4.4-2.4-9-4.6-13.2-7.4c-5.6-3.7-1.6-9.4-2.5-14.1c-1.8-10,3.8-17.3,9.2-24.6c4.1-5.6,9.1-10.2,11-17.6
		c2.2-8.8,6.3-17.1,9.8-25.5c0.7-1.6,1.9-3,2.9-4.5c4.2-6.2,8.4-12.4,12.6-18.7c0.3-0.5,0.6-1.3,0.5-1.9
		c-2.5-13.8,5.1-26.7,3.2-40.4c-0.1-0.4,0.5-0.8,0.6-1.3c1.4-7.2,3.7-14.4,4-21.6c0.6-16.5,0.3-33,0.1-49.5c0-1.5-1.3-3.5-2.6-4.5
		c-11.1-8.5-12.6-16.5-5-28.3c0.2-0.3,0.5-0.5,0.6-0.8c1.6-3.6,3.2-7.2,5.2-11.8c-10.2,0-19,0.1-27.9,0c-9.9-0.2-19.1,2.6-28.1,6
		c-1.2,0.5-2.6,1.4-3.1,2.5c-4.1,9.7-8.1,19.5-12.1,29.3c-5.3,13-16.2,18.5-29.3,14.1c-17.2-5.8-30.7-16.7-40.1-32.2
		c-5.6-9.1-11-18.1-19.8-24.8c-7.9-6-16-9-25.6-5.8c-2.5,0.8-5.1,2.9-6.6,5.1c-4.2,6-7.9,12.4-11.8,18.6
		c-9.2,14.6-19.7,28.5-26.5,44.6c-3.6,8.5-3.8,9-10.4,3.4C16.7,801.2,7.2,790.3,2.6,776c-0.9-2.7-1.8-5.4-2.6-8.1c0-7.7,0-15.3,0-23
		c5.3-9.1,9.9-18.7,15.9-27.2c11.7-16.5,24.5-32.4,36.5-48.7c13.4-18.3,27.2-36.3,39.5-55.4c13.3-20.5,25.1-42,37.3-63.2
		c5.6-9.6,11-19.3,16-29.2c7.5-14.9,14.7-29.9,21.7-45c6.5-13.9,12.9-27.8,18.9-41.9c8.9-20.9,17.3-41.9,26-62.8
		c8-19.1,16-38.2,24.1-57.2c8.8-20.9,17.9-41.8,31.1-60.5c7.4-10.5,17-18.5,28.4-23.7c16.6-7.5,33.6-13.8,50.6-20.6
		c-16.5-7.6-34.6-6.8-53.6-6.7c2.4-4.8,3.9-8.6,6.1-11.9c8.9-12.9,20.5-23,33.9-31.1c1.5-0.9,2.8-2.7,3.3-4.4
		c0.2-0.8-1.8-2.3-2.9-3.3c-4.2-3.6-8.8-6.8-12.5-10.8c-2.7-2.9-3.8-7.2-1.3-10.9c2.5-3.8,6.4-4.4,10.1-3.2
		c-1.8,1.6-3.5,3.2-5.3,4.8c2.1,1.8,3.9,4.7,6.3,5.3c6,1.6,15.9,0.5,20.3-7.1c4.5-7.8,6.5-15.9,7.5-24.6c1-9.2-1.8-17.9-5.1-26.3
		c-2.8-7.1-2.3-8.9,4.2-13c2.8-1.7,5.6-3.3,8.6-5.1c-3.5-5.3-7-10.8-10.6-16.1c-0.5-0.7-1.8-1.2-2.7-1.4c-4.6-0.7-7.4-3.4-7.3-7.5
		c0.1-4,3-7,7.1-7.4c4.5-0.4,7.9,2.2,8.8,6.8c0.2,1.2,0.3,3,1.1,3.5c3,2,6.3,4.2,9.9,1.6c2-1.4,4.4-3.2,4.8-5.3
		c0.9-3.7,0.3-7.3-4-9.6c-2.9-1.5-4.7-4.4-3.3-8.2c1.6-4.4,4.9-5.3,9.1-4.9c3.7,0.3,6.3,2.3,6,5.8c-0.3,4.1,1.7,6.4,4.4,8.9
		c4.4,4.1,12,4.5,16.1,0.7c4.2-4,4-10.2-0.4-15.3c-0.8-0.9-1.5-2.2-1.6-3.4c-0.4-4,1.2-6.5,5.3-7.7c3.9-1.1,7.3-0.2,9.4,2.9
		c2.1,3.3,2.4,7.1-1.8,9.5c2.6,10,8.3,12,16.4,11.6c5.2-0.2,11.3-9.4,9-13.3c-4.4-7.2-4.3-8.1,1.7-12.8c2.7,0,5.3,0,8,0
		c2.2,3.3,5.8,6.1,2.6,10.8c-3.1,4.6-2.1,9.2,2.2,12.5c3.5,2.6,9.1,2.3,13.3-1c2.9-2.3,5.1-4.8,1.2-8.2c-0.4-0.3-0.2-1.3-0.2-1.9
		c0.4-4.1,2.9-7.4,6.5-7.7c2.7-0.2,6.2,2.1,8.5,4.1c3.4,3.1,1.1,7.1-1.5,8.7c-4.3,2.7-4.7,6.6-5.6,10.7c-2.3,10.5-2.2,10.2,7,16
		c6.5,4,13.1,8.2,15.5,16.9c-5.8-4.8-11.1-9.2-16.4-13.6c-0.3,0.4-0.6,0.7-0.9,1.1c5.4,7.6,11.5,14.6,20.1,18.4
		c5,2.2,10.6,3.3,16,3.8c1.7,0.2,3.8-3.2,5.7-4.9c-1.4-1.2-2.8-2.4-4.4-3.8c0.7-0.8,1.8-2,2.8-3.1c5,2.3,6.8,6.2,4.1,9.6
		c-2,2.6-5,4.7-8,6.2c-4.8,2.4-10.4,3.3-14.8,6.1c-8.5,5.6-17.1,4.5-26.4,2c-0.6,2-1.2,3.9-1.8,5.9c-2.1,7.5-5.4,14.9-2.5,23
		c3.5,9.8,3.3,19.9,3,30c-0.1,2.5,0.7,3.7,3.5,4.3c4.6,1,8.9,3.8,13.4,4.3c3.3,0.3,6.1,0.2,8.7,2.6c2.5,2.3,5,4.6,7.7,6.5
		c9.7,7.1,19.5,14.2,29.2,21.2c-9.4,3.2-18.4,5.7-27.1,9.2c-9,3.6-17.2,8.5-23.2,16.8c1,0.5,1.7,0.9,2.5,1.1
		c12.4,3,24.5,7,35.1,14.4c9.2,6.3,13.3,14.7,11.4,26.1c-0.6,3.8-0.3,8.2,1,11.8c7,19.2,9.8,39.1,9.7,59.4c0,5.9-1.2,11.7-1.8,17.6"
		/>
</g>
<path d="M252.7,328.1c-1.8,5.6-12.4,3.7-13.6,9.4c-0.8,3.7-2.2,7.3-6.3,8.1c-4.7,1-7.3,3.5-8.3,8c-0.8,3.6-2.9,5.7-6.7,6.2
	c-1.6,0.2-3.2,0.8-4.6,1.6c-9.2,5.4-18.5,10.8-27.5,16.5c-16.8,10.7-34.3,19.7-53.4,25.5c-5.1,1.5-9,3.2-9.9,9.1
	c-0.2,1.4-2,3.6-3.1,3.7c-6.3,0.1-12.8,0.1-19-0.9c-2.4-0.4-4.2-3.7-6.3-5.6c-1.2-1.1-2.3-3.3-3.4-3.2c-1.6,0.1-3.8,1.4-4.6,2.8
	c-1,1.7-1.3,4.1-1.2,6.1c0.4,7.3,5.7,11,11.2,14.4c5.4,3.4,5.9,7.4,0.6,11.1c-6.5,4.5-13.2,8.7-20,12.7
	c-10.3,6.1-21.6,9.5-33.2,11.9c-0.5,1.6-1,3.2-1.5,4.8c0.6,1.8,1,3.6,1.8,5.4c0.6,1.4,1.4,3.8,2.3,3.9c5.2,0.7,8.9,4,13,6.6
	c1,0.6,2.5,0.7,3.8,0.7c3.6,0.1,7.8-1.3,10.6,0.1c7.2,3.9,14.6,2.4,22,2.4c3.6,0,7.4-1.1,10.6-2.6c5.9-2.8,11.5-6.3,16.2-8.9
	c5.3,5.7,9.9,10.9,14.8,15.8c1,1,3.2,1.4,4.8,1.4c6.3,0,9.9-4.5,13.6-8.8c5.7-6.7,11-13.8,17.4-19.7c9-8.5,18.8-16.2,28.4-24.1
	c7-5.7,13.3-10.8,21.3-16.7c8-6,19.1-18.7,16.5-12.7L252.7,328.1z"/>
<path d="M520,340.1c1.8,5.6,12.4,3.7,13.6,9.4c0.8,3.7,2.2,7.3,6.3,8.1c4.7,1,7.3,3.5,8.3,8c0.8,3.6,2.9,5.7,6.7,6.2
	c1.6,0.2,3.2,0.8,4.6,1.6c9.2,5.4,18.5,10.8,27.5,16.5c16.8,10.7,34.3,19.7,53.4,25.5c5.1,1.5,9,3.2,9.9,9.1c0.2,1.4,2,3.6,3.1,3.7
	c6.3,0.1,12.8,0.1,19-0.9c2.4-0.4,4.2-3.7,6.3-5.6c1.2-1.1,2.3-3.3,3.4-3.2c1.6,0.1,3.8,1.4,4.6,2.8c1,1.7,1.3,4.1,1.2,6.1
	c-0.4,7.3-5.7,11-11.2,14.4c-5.4,3.4-5.9,7.4-0.6,11.1c6.5,4.5,13.2,8.7,20,12.7c10.3,6.1,21.6,9.5,33.2,11.9c0.5,1.6,1,3.2,1.5,4.8
	c-0.6,1.8-1,3.6-1.8,5.4c-0.6,1.4-1.4,3.8-2.3,3.9c-5.2,0.7-8.9,4-13,6.6c-1,0.6-2.5,0.7-3.8,0.7c-3.6,0.1-7.8-1.3-10.6,0.1
	c-7.2,3.9-14.6,2.4-22,2.4c-3.6,0-7.4-1.1-10.6-2.6c-5.9-2.8-11.5-6.3-16.2-8.9c-5.3,5.7-9.9,10.9-14.8,15.8c-1,1-3.2,1.4-4.8,1.4
	c-6.3,0-9.9-4.5-13.6-8.8c-5.7-6.7-11-13.8-17.4-19.7c-9-8.5-18.8-16.2-28.4-24.1c-7-5.7-13.3-10.8-21.3-16.7
	c-8-6-19.1-18.7-16.5-12.7L520,340.1z"/>
</svg>
