<?xml version="1.0" encoding="utf-8"?>
<!-- Generator: Adobe Illustrator 23.0.1, SVG Export Plug-In . SVG Version: 6.00 Build 0)  -->
<svg version="1.1" id="Layer_1" xmlns="http://www.w3.org/2000/svg" xmlns:xlink="http://www.w3.org/1999/xlink" x="0px" y="0px"
	 viewBox="0 0 277.7 339.7" style="enable-background:new 0 0 277.7 339.7;" xml:space="preserve">
<g>
	<path d="M89.3,285.2c1-11.2,2.1-22.3,3-33.3c0.9-11.1,1.4-22,2.5-32.8c0.9-9.3,2.4-18.4,3.5-27.5c1.1-8.5,2.1-16.9,3-25.3
		c0.5-5,1.2-9.9,1.3-14.9c0.1-5.5-8.8-6.8-9.4-6.9c-6.2-1.6-12.3-2.3-18.4-4c-0.9-0.2-1.6-0.7-2.5-0.8c-6.8-0.7-9.6-5-11.2-10.2
		c-2.1-7.1-2.3-14.3-1.3-21.6c1.3-9.5,2.8-18.8,4.1-28.1c0.2-1.3,0.3-3.8,0.3-3.8s-2.1-1.2-3.1-1.7c-8.1-4.1-16.2-8.2-24.3-12.1
		c-2.7-1.3-6.2,1.2-6.2,1.2S30.2,75.8,32.8,81c2.3,4.6,3.2,9.8,4.5,14.8c1.9,7.5,3.2,15.2,5.5,22.7c2.2,7.3,3,14.5,1.3,22.3
		c-1.6,7.5-1.4,15.1,1.2,22.4c2,5.8,4.3,11.6,5.9,17.6c1.4,5.3,2.4,10.9,2.9,16.5c0.9,11.1,1.6,22.2,6.2,32.8c1.6,3.6,2,7.9,2.2,12
		c0.4,9.4-0.1,18.9,4,27.9c2.3,5.2,1.9,11,1.3,16.6c-0.1,1.1-0.5,2.3-1.1,3.2c-0.6,0.8-1.8,1.8-2.7,1.8c-0.9-0.1-2-1.2-2.3-2.1
		c-0.7-1.9-0.8-4-1.3-6.1c-1.7-7.3-3-14.6-5.3-21.6c-2.6-7.9-3.9-15.8-4.5-23.9c-0.4-5-1.3-9.9-2.8-14.6c-3.3-10.3-3-21-4-31.4
		c-0.6-6.2-1.3-12.5-3.1-18.4c-3.1-10.1-4.9-20.2-4.4-30.7c0.3-5.6-0.8-11.2-1.5-16.7c-1.3-9.7-3.1-19.2-4.3-28.8
		c-0.7-5.6-1.8-10.9-4.6-15.8c-2.9-5-4.4-10.2-5.1-15.8c-0.1-1.2-0.7-3.6-0.7-3.6s-1.5-1.5-2.2-2.2c-5.8-6-6.6-14.1-2.1-21.2
		c0.6-0.9,2.6-2.7,2.6-2.7s2.6-9.2,2.5-14c-0.1-4.9-2.8-5.9-7.7-3.1C7,22.4,1.7,20.6,0.5,14.5C0.2,12.5,0.1,10.6,0,8.6
		c0-0.8,0.2-1.7,0.5-2.5c2.2-4.3,13-7.7,17.5-5.4c6.9,3.6,11.9,8.8,14.8,15.4c1.3,3,0.4,5.9-1.1,8.7c-1.1,2.2-3.3,7-3.3,7
		s0.7,0.9,1,1.6c2.4,4.8,3.3,10.4,9.3,13.3c5.3,2.5,10.6,5.1,15.9,7.6c2.5,1.2,5.2,2.1,7.7,3.4c1.9,0.9,6.5,2.2,6.5,2.2
		s0.9-1.3,1.7-1.8c2.4-1.4,4.5-0.8,6.7,0.5c4.6,2.7,9.1,5.7,14.1,7.9c6.9,2.9,14.2,5.2,21.4,7.6c2.1,0.7,6.1,2.2,6.1,2.2
		s0.6-6.5-0.4-8.5c-1.2-2.4-1.6-5.1-2-7.7c-0.9-5.5,0.1-11.3-2.8-16.5c-0.3-0.6-0.4-1.4-0.4-2.1c0.2-4.5,0.6-9,0.8-13.4
		c0.3-4.9,2.6-8.4,8.4-10.2c3.5-1,6.7-2.6,10.1-3.9c6.5-2.5,13.5-2.8,19.5-0.4c5.5,2.3,10.2,6.3,14.8,10.1c2.8,2.3,3.7,5.8,3.6,9.2
		c-0.1,5.2,0.6,10.4-1.8,15.5c-1,2.1-0.9,4.6-0.8,7c0.2,4.5-0.7,8.8-2.9,13c-0.8,1.4-0.2,7.9-0.2,7.9s3.7-2.3,5.7-2
		c0.2,0,0.3-0.1,0.5-0.1c8.3-3.5,17.4-5.4,25.2-9.8c3.8-2.2,7.8-4.2,11.6-6.4c1.8-1,3.5-1,5.3,0.1c0.8,0.4,1.8,1.9,1.8,1.9
		s5.1-1,7.4-2.1c5-2.4,10.2-4.6,15.3-6.7c3.7-1.5,6.2-3.8,6.8-7.4c0.4-3,1-6,1.6-8.9c0.7-3.1,1.9-3.5,4.7-1.1
		c0.9,0.8,1.9,1.6,1.9,1.6s7.8-5.6,10-7.2c2.1-1.5,4.6-1.4,4.8,1.1c0.1,1-0.8,3.5-0.8,3.5s5-1.5,5.8-1.7c3.1-0.7,3.6-0.3,3.4,2.4
		c-0.1,0.7-3.1,3.5-2.8,3.7c2,0,5.1,0,3.8,3.3c-0.7,1.9-2.3,2.9-2.3,2.9s1.1,0.4,2.1,0.9c2.1,0.9,0.7,3.4-1.3,4.4
		c-0.7,0.4-1.5,0.7-2.2,1.1c-15.6,7.8-31.2,15.8-47,23.8c-2.6,1.3-6.5,2.9-6.5,2.9s0.1,4.7,0.8,8.6c1.9,10.5,4.4,21.2,4,32.1
		c-0.2,5.2-1.4,10.4-2.3,15.6c-0.6,3.3-3,5.1-6.4,6.3c-9.1,3.2-18.4,5.8-28.3,7.1c-3.2,0.4-3.4,2.6-3.3,4.8
		c0.2,3.8,0.6,7.6,1.1,11.4c1.5,11.3,3.1,22.8,4.6,34.4c1.2,9.6,2.3,19.4,3.5,29.3c1,8.5,2,17.1,2.8,25.8c0.6,7,0.8,14,1.3,21
		c0.4,6.4,1.3,12.7,1.4,19.2c0.1,6.9-2,9.2-8.1,10.5c-4.3,0.9-5.4,0.4-7.4-3.6c-0.4-0.9-0.7-1.8-1.3-2.5c-1.5-1.6-6.2-1.3-6.2-1.3
		s-1.8,13.1,1.1,18.2c2,3.4,4,6.8,5.8,10.4c4.6,9.2,0.8,12.7-9.1,14.5c-4.7,0.9-9.5,2-14.4,1.5c-6.6-0.7-10.6-5.7-9.3-12.1
		c0.6-2.9,1.8-5.6,2.4-8.5c1.4-6.4,2.9-12.8,3.8-19.3c0.3-2.3,0.9-7,0.9-7s-4.4-0.5-7.2-0.8c-4-0.5-8.2-0.7-12.2-0.4
		c-2.1,0.2-5.2,1.2-5.2,1.2s-0.2,2.9-0.4,4.9c-0.7,6.7,1.5,12.9,3.2,19.3c1,3.8,2.3,7.5,3.3,11.3c1.1,4.3-0.6,7.9-4.7,9.7
		c-2.5,1.1-5.4,2.3-8,2.1c-5.9-0.4-11.9-1.1-17.6-2.6c-4.6-1.2-5.8-7.6-3-13.3c1.5-3,3.3-5.9,5.1-8.7c3.3-5.1,3.4-10.6,2.9-16.3
		c-0.1-1.2-0.8-4.2-0.8-4.2s-1.9-0.5-3.3-0.6c-2.7-0.2-3.9,1.8-4.3,3.9c-0.8,3.8-3.2,5-6.9,4.5c-5.2-0.7-8.4-3-8.6-7
		c-0.2-3.4,0.1-6.8,0.2-10.3C89.5,285.2,89.4,285.2,89.3,285.2z"/>
</g>
</svg>
