<?xml version="1.0" encoding="utf-8"?>
<!-- Generator: Adobe Illustrator 19.0.0, SVG Export Plug-In . SVG Version: 6.00 Build 0)  -->
<svg version="1.1" id="Layer_1" xmlns="http://www.w3.org/2000/svg" xmlns:xlink="http://www.w3.org/1999/xlink" x="0px" y="0px"
	 viewBox="-173 246.4 264.3 300.6" style="enable-background:new -173 246.4 264.3 300.6;" xml:space="preserve">
<g id="XMLID_1_">
	<path id="XMLID_30_" d="M86.8,496.2c-1.8,0.9-3.2,1.4-4.3,3.2c-1.3,2.1-1.6,4.8-3.2,6.8c-2.9,3.5-8.4,5.3-12.6,6.8
		c0.9,5.1-8,8.5-11.9,9.4c-2.1,0.5-4.2,0.8-6.4,1c-2,0.2-4.8-0.6-6.5,0.2c-1.4,0.7-2.5,2.3-4.1,3.1c-1,0.5-2.7,0.8-4.1,1.1
		c0.5,0.5-0.4,0.2-0.9,0.1c-1.5-0.1-3.1,0-4.6-0.1c-1.9-0.2-6.6-0.8-8.1,0.6c0-1.2-5.8,1.2-6.6,1.6c-1.4,0.7-2.8,2.1-4.2,2.6
		C8.2,533,6,533,4.8,532.9c-1.4-0.1-2.4-0.7-3.5-0.7c0.7,0.7,2.1,1.4,1.7,2.3c-0.3,0.8-2.2,1.7-2.6,2.1c-1.2,1-2.5,1.6-3.9,2.3
		c-0.5,0.2-1.3,1-1.8,1.2c-0.4,0.2-1.4,0.2-1.9,0.5c-4.2,2.2-9.8,3-14.6,3.6c-6.5,0.8-13.1,0.5-19.6-0.2c-1.6-0.2-3.5-0.1-4.5-1.3
		c-0.9-1.1-0.2-1-1.6-1.5c-0.5-0.2-1.2-0.2-1.6-0.2c-3.4-0.5-6.5-0.4-9.9-0.2c-4.8,0.3-9.8,1.6-14.4,2.1c-3.5,0.4-6.9,1.2-10.4,1.9
		c-1.2,0.2-2.5,0.4-3.8,0.5c-0.7,0.1-1.4,0.2-2.1,0.4c-0.1,0.7-0.5,0.8-1.2,0.3c-0.6-0.1-1.2-0.1-1.7,0.1c-2.7,0.2-5.4,0.7-8.1,0.4
		c-3.2-0.4-6-0.9-9-1.7c-5.8-1.6-11.1-4.9-15.6-9c-0.6-0.6-1.3-1.2-1.9-1.8c-1-1.1-1.4-1.2-0.9-2.6c0.2-0.6,2.6-3.6,2.1-4.3
		c-0.5-0.7-5.4-0.4-6.3-0.5c-1.9-0.2-3.8-0.4-5.7-0.9c-3.4-0.8-6.4-2.1-9.2-4.1c-1.1-0.8-2.2-1.7-2.9-3c-0.4-0.7-0.6-1.5-1-2.2
		c-0.3-0.5-1.3-1.6-1.4-2c-0.3-1-1.1-2.3-1.8-3.3c-0.6-1-1.7-1.7-1.4-2.8c0.4-1.3,2.1-3,2.8-4.2c2.8-4.5,4.9-9.4,6.9-14.3
		c4-10.1,7.1-20.6,9.9-31.1c2.8-10.2,5-20.6,7-30.8c0.9-4.7,1.8-9.1,4.4-13.2c3-4.6,8.4-6.8,13.3-8.6c9.9-3.6,20.3-4.6,30.6-6.1
		c-2.9-7.8-2.1-16.8,3-23.5c5.1-6.8,13.7-11,22.2-9.9c3.9,0.5,7,1.9,10.4,3.7c1.5,0.7,2.8,1.8,3.9,3c0.5,0.5,0.8,1.1,1.4,1.2
		c0.8,0.2,2.6-0.6,3.4-0.9c2.3-0.9,0.3-1.1-1.1-1.6c-1.7-0.6-3.2-1.5-4.5-2.6c-3.3-2.7-5.3-6.4-6.9-10.2c-0.2-0.5-0.6-2.5-1-2.7
		c-0.6-0.4-1.7,0.2-2.5-0.2c-0.8-0.3-1.7-1.4-2.1-2c-0.6-1-0.4-2.4-0.8-3.3c-0.4-0.8-1.6-1.2-2-2.3c-0.6-1.4-0.8-2.8-0.8-4.3
		c0-2.2,0.8-4,1.3-6c-1.9,0.5-3.6,0.9-5.6,0.9c-2,0-3.9,0.2-5.8,1c-1.4,0.6-3.2,1.4-2.2-1.1c0.7-1.8,2.6-3.5,4.6-3.6
		c0.4,0,5.7,0.9,4.6-1c-0.6-1-4.8-0.9-5.8-0.9c-2.6,0.1-4.3,1.5-6.3,3c-1.4,1-4.7,3.8-6.4,2.1c1.7-1.6,3.4-3.3,5.1-4.9
		c-0.6-0.5-3.4,1.2-4.2,1.3c-1.7,0.3-3.3,0.4-4.5-0.8c1.4-0.9,3.1-1.2,4.6-1.9c-2.5,0-5.2,0.8-7.1-1.4c0.8-0.4,1.6-0.3,2.5-0.4
		c1.4-0.2,2.8-0.5,4.2-0.8c2.5-0.5,5.3-1.6,7.6-2.8c-1.4-0.1-2.9-0.8-4.2-1.2c-2-0.6-4.1-1.1-5.7-2.4c-1.1-0.9-2.5-2.8-0.5-2.9
		c1.5-0.1,4.1,1.5,5.7,1.9c2.8,0.8,6.1,1.3,9,1.6c4.2,0.4,9.2-0.8,13,1.6c1.5,1,2.6,2.3,3.4,3.9c0.8,1.6,0.8,0.8,2,1.4
		c1,0.5,1.5,0.8,2,1.8c1,1.7,1,3.5,2,5.1c0.9,1.6,0.7,2.9,1.1,4.6c0.4,1.6,1.9,3.1,2.8,4.5c1.1,1.7,2.2,3.5,3.5,5.1
		c0.3,0.4,1.1,1.6,1.5,1.8c0.2,0.1,0.9-0.3,1.2-0.3c0.4,0.1,0.8,0.3,1.2,0.4c1.7,0.4,2.7-0.7,4-2c3.2-3,5.5-6.6,8-10.2
		c1-1.5,2-3.2,3.4-4.4c0.6-0.5,1.2-0.8,2-1.1c0.8-0.2,2.4-0.9,3.2-0.7c-1.2-1.9,0.1-2,0.7-3.4c0.3-0.7,0.7-0.4,0-1.2
		c-0.6-0.7-0.1-0.1-1-0.4c-1.4-0.4-2.3-0.2-3.6-1c-1-0.6-2-1.3-2.7-2.3c-2.1-2.8-2.4-6.4-1.3-9.7c0.5-1.3,1.1-2.4,2.1-3.4
		c0.8-0.8,2.4-1.1,2.4-2.2c0-1.2-1.3-3.1-1.5-4.3c-0.2-1.1-0.3-2.5-0.3-3.6c0-0.9,0.1-1.8,0.3-2.7c0.1-0.6,0.8-1.7,0.7-2.3
		c-0.2-1.3-1.1-0.9-2.3-1.3c-1.1-0.3-3.5-1.2-3.5-2.4c0-1.6,2.4-1.2,3.5-1.2c0.9,0,1.7-0.1,2.5-0.2c1.4-0.1,1.3,0.1,2.2-1
		c1.2-1.4,2-3.5,3-5c-2,0,2.2-1.1-0.6-1.1c0-0.5,0.9-0.4,1.1-0.4c-0.4-0.3-0.8-0.6-0.8-1c0.7,0,0.8,0.6,1.6,0.4
		c-0.3-0.4-0.6-0.9-0.8-1.4c0.6,0.1,0.8,1,1.5,0.6c-3.1-5.1-1.7-10.4,3.4-13.8c3-2,6.9-1.4,9.8-3.1c3-1.7,6-3.3,9.4-4.3
		c5.9-1.8,13.4-3.5,19.4-1.1c6.3,2.6,9.9,8,10.8,14.7c0.9,7.2-1.5,15.5-4.7,21.8c1.2,0,2,0.3,2.6,1.5c0.4,0.8,0,2.5,0.4,3
		c0.4,0.5,3.5,0.8,4.1,1c1.1,0.3,2.3,0.8,3.4,1.3c4.7,2.1,8.4,5.4,10.8,9.9c2.3,4.3,4,9.4,3.6,14.3c-0.4,5.1-2.8,9.1-5.1,13.6
		c-0.5-2.1-0.9-4.2-1.6-6.3c-0.6-1.9-1.7-3.6-2.2-5.5c-0.4,2.1,0,4.5,0,6.6c0,2.1-0.1,4.2-0.2,6.4c-0.2,3.7-1,7.5-1.9,11
		c-2.1,7.9-7,18.6-15.8,20.8c5-6.7,7-14.2,8.2-22.3c0.6-4.1,0.4-8.4,0.2-12.5c-0.1-2-0.5-3.9-1.2-5.8c-0.5-1.5-1.5-4.5-2.6-5.6
		c-1.5,4.6-3.4,7.4-7.7,9.6c-1.1,0.6-1.1,0.6-1.2,1.6c0,0.3,0.3,0.9,0.3,1.2c0,0.5-0.5,1.4-0.4,1.7c0.1,0.6,0.6,1.2,0.7,2.2
		c0.1,0.6-0.4,2.1-0.1,2.6c0.5,0.8,2.6,1,3.3,1.5c1,0.6,1.8,1.6,2.2,2.6c0.8,2.2-0.8,4.1-2.3,5.6c-0.8,0.8-4.1,3.3-2.6,4.7
		c1.4,1.3,5.2-1.5,2-2.6c2-1.5,3.8,0.6,4.3,2.4c0.8,2.8,0.4,5.7-1.6,7.8c-0.9,0.9-1.7,1.6-2.9,2c-1,0.3-1.9,0-2,0.9
		c-0.1,0.9,1.4,3,1.7,3.9c0.4,1.1,0.5,2.1,0.6,3.3c1.5-2.5,2.7-3.7,5.5-4.4c2.6-0.7,5.2-1,7.7-2c0,1.1,0.2,2.5,0.2,3.5
		c0,0.7-0.7,2-0.2,2.6c0.5,0.5,3.1,0.6,3.9,0.8c1.6,0.3,3.2,0.5,4.8,0.9c-1.7,1.5-3.8,2.9-5.1,4.8c-1,1.4-2,2.7-3.4,3.7
		c-3.3,2.5-6.3,0.2-9.8,0.2c3.1,3.6,7.4,6,9.9,10.2c1.3,2.1,1.8,4.4,2.3,6.7c0.3,1.7,0.7,1.4,2.3,1.9c0.9,0.3,1.6,0.7,2.4,1.1
		c3.2,1.8,4.7,5.2,4.9,8.8c0.1,2.2,0.4,4.4-0.1,6.6c-0.2,0.9-0.5,1.7-1,2.5c-0.9,1.5-1.2,1.6-0.7,3.3c2.5,8.7,4.1,17.7,6,26.5
		c0.3,1.5,0.4,3.5,1.7,4.4c1.6,1,4.4,1.3,6.2,2.1c4.6,1.9,8.1,4.2,11.5,7.8c1.9,2,3.7,4.4,4.9,6.9c0.5,1.1,2.4,4.5,1.9,5.7
		c0,0.1-1,0.7-1.1,0.9c-0.5,0.6-0.8,1.3-1.2,1.9c-0.6,0.8-2.3,1.5-2.8,2.3C85,492.5,86.5,494.8,86.8,496.2
		C86.4,496.4,86.7,495.7,86.8,496.2z M-35.4,381.4c2.8,4.9,3,13.5,0.3,18.4c3.7,0,8,0.7,11.8,1.1c1.9,0.2,3.9,0.3,5.9,0.6
		c1.2,0.2,5.7,1.7,6.6,1.1c0.5-0.3,0.9-2.2,1.3-2.8c0.5-0.7,1.4-1.6,2.2-2.1c0.6-0.4,2.6-0.6,2.9-1.1c0.3-0.5-0.5-2.6-0.6-3.1
		C-6,389.2-7.7,385-9.9,381c-0.9-1.6-2.1-4.1-3.8-4.3c-1.3-0.1-3.7-0.2-5,0c-4,0.7-6.6,6.1-10,8.1c-0.7,0.4-3.9,2.1-4.7,1
		c-0.6-0.8,1.8-2.7,2.4-3.2c2.5-2,4.5-4.1,6.7-6.3c-1.7,0-4,1.5-5.6,2.3C-31.6,379.5-33.4,380.8-35.4,381.4
		C-34.6,382.8-34.4,381.1-35.4,381.4z M40.1,437.6c0,9.2,4.5,20,14.2,22.9c-1.2-3.5-1.2-7.8-1.8-11.5c-0.3-2.2-0.8-4.4-1-6.6
		c-0.2-1.8-0.8-4-0.7-5.9C48,438.4,43.2,437.6,40.1,437.6C40.1,438.9,41.1,437.6,40.1,437.6z M-14.6,328.6c0-1-0.7-2-0.9-3
		c-0.4-1.6-0.7-3.3-0.6-4.9c0.1-1.4,2.2-7.4-1.1-4.5C-21,319.8-20,327.4-14.6,328.6C-14.6,328.3-15.5,328.4-14.6,328.6z
		 M-55.2,347.3c0.3-1.5,1-3.2,1.2-4.7c0.1-0.9-0.5-2.3-0.7-3.3C-56,341-56.1,345.5-55.2,347.3C-54.9,345.6-55.6,346.5-55.2,347.3z
		 M-31.9,376.2c0,0.3-4.8,0.7-5.3,1.3c-0.9,1.1,0.9,1,1.6,0.6C-34.3,377.5-33.1,376.9-31.9,376.2C-31.9,376.1-33.5,377.1-31.9,376.2
		z M-50.7,353.8c-0.3-1-0.5-2.1-1-3.1c-1.2,0.7-1.4,0.5-0.8,1.7C-52.2,353.2-51.5,353.7-50.7,353.8
		C-50.9,353.1-52.3,353.6-50.7,353.8z"/>
	<path id="XMLID_29_" d="M-61,282c-1-1.4-3.4,0.3-4.1,1.4c-1,1.5-0.1,3.7,0.6,5.2c1.8,3.7,6,5.9,9.7,3.2c3.8-2.8,4.5-8,3-12.2
		c-0.6-1.6-1.3-3.5-2.2-5c-0.3-0.6-1-1.2-1.4-1.9c-0.6,0-0.8-0.2-0.6-0.7c0-0.3,0-0.5-0.3-0.7c-1.6-2.1-3.5-3.8-5.5-5.6
		c-2.4-2.2-4.4-3.1-6.9-5c-1.8-1.3-5.2-2.3-7.9-2.2c-2.1,0-4-0.1-6,0.3c-2,0.4-4,1.5-6,1.8c5.1,2.6,9.8,5.1,12.4,10.4
		c2.5,5.1,1.6,11.9-0.8,17c-5.1,11-18.6,20.8-30.7,13.9c-2.1-1.2-4.1-2.9-5.7-4.8c-1.8-2.2-3.5-5.6-6-7.1
		c-4.1-2.5-10.8,0.2-14.5,2.3c-5.3,3.1-10,6.4-14,11.1c-3.9,4.5-6.5,9.8-8.7,15.3c-2.5,6.3-4,13.6-3.5,20.4c0.2,3.1,0.6,6.1,1.7,9.1
		c0.4,1.2,0.8,4.3,2.1,4.3c0,3.1,3.3,6.4,5.2,8.7c2.1,2.6,5,4.5,8.1,6c6.6,3.4,13.7,4.1,20.9,4.8c8.3,0.8,17.7-1.2,25.5,2.2
		c2.7,1.2,5,3.3,5.8,6.1c0.7,2.4,0.5,4.8,0.4,7.2c-0.1,1.5-0.1,3.9-1,5.2c0-3.2-0.2-7.2-1.3-10.3c-1.2-3.5-4-4.8-7.5-5.2
		c-6.8-0.8-13.8,1.2-20.6,1.5c-13.9,0.7-27.6-1-38.1-10.7c-20.6-19.1-16.9-51.5-1.7-72.6c6.8-9.4,17.6-17.5,28.9-20.7
		c7.1-2,15.6-1.7,21.8,2.8c2.6,1.9,4.5,4.5,6.4,7.1c2.4,3.1,4.2,5.6,8.1,2.9c2.7-1.8,5.3-5,6.3-8.1c1.2-3.9-2.2-6.1-5.6-7
		c-3-0.7-6.1-1.2-8.7-3c-2.7-1.9-3.9-5.3-3.6-8.5c0.8-6.9,8.2-9.9,13.9-12.2c5.9-2.3,12.8-2.7,18.9-1.6c7.8,1.4,14.3,6,19.4,11.9
		c5.2,5.9,9.5,13,10.4,21c0.8,7-3.9,16.3-11.7,16.9c-6.3,0.5-12.9-6.1-11-12.5c0.6-1.9,1.9-2.8,3.7-3.4
		C-62.3,280.6-60.7,280.4-61,282C-61.2,281.7-60.9,281.4-61,282z"/>
	<path id="XMLID_28_" d="M-107.8,334.4c-1.2,0.6-1.9,1.2-1.8,2.6c0.1,2.1,1.6,4.4,3.6,5.2c3.7,1.6,8.1-2.6,7.9-6.3
		c-0.2-4-4-8-7.7-9.2c-2-0.6-4.8-0.5-6.5,1c-1.6,1.4-2.2,3.7-2.9,5.6c-1.4,3.6-2.7,8-2.1,11.9c0.8,4.8,7.2,5,11.1,5.4
		c7.8,0.9,18.2-0.3,22.5,7.8c2.3,4.4,3,8.3,1.5,13.1c-0.6,1.7-1.1,3.1-1.7,4.8c-0.7,2.3-1.5,5.9-0.1,8.1c-2.2-1.2-2-5.6-1.8-7.6
		c0.2-3.2,1.5-6.2,1.3-9.5c-0.1-2.5-1.7-5.6-3.7-7.1c-2.7-2.1-6.9-1.6-10.1-1.6c-5.9,0.1-12.3,1.1-17.9-1.1
		c-6.3-2.5-9.7-6.8-9.7-13.6c0-9.2,4.1-22.1,13.7-25c9.6-2.8,19.6,6.3,20,15.7c0.2,5.5-4.8,11.3-10.4,11.4c-3.3,0.1-5.9-1.9-7.3-4.8
		C-110.7,339.8-111.4,333.3-107.8,334.4C-108.2,334.6-108.8,334.1-107.8,334.4z"/>
</g>
</svg>
