<?xml version="1.0" encoding="utf-8"?>
<!-- Generator: Adobe Illustrator 23.0.1, SVG Export Plug-In . SVG Version: 6.00 Build 0)  -->
<svg version="1.1" id="Layer_1" xmlns="http://www.w3.org/2000/svg" xmlns:xlink="http://www.w3.org/1999/xlink" x="0px" y="0px"
	 viewBox="0 0 697.9 602.9" style="enable-background:new 0 0 697.9 602.9;" xml:space="preserve">
<g>
	<g>
		<path d="M430.9,1c3.3,0,6.7,0,10,0c8.8,1.4,17.6,2.8,26.7,4.3c0.4,2.7,1,4.9,0.8,6.9c-0.5,4,1.2,6.3,4.7,7.8
			c6.8,2.8,11.8,6.9,9.7,15.4c-0.1,0.2,0.3,0.6,0.4,0.9c8.1,4.6,15.5,10,22.8,15.6c4.1,3.1,4.3,6.4,0.8,10.2c-1.8,1.9-4,3.4-6.7,5.6
			c1.3,2.1,2.6,4.3,3.8,6.2c0.8,7-0.3,14.4,6.4,19.5c1,0.8,1.6,3.1,1.2,4.5c-1,3.8-2.5,7.4-3.8,11c-16-0.3-26.3,9.4-37.6,18.2
			c-0.5,5.7-0.9,11.8-1.6,17.9c-0.8,7.8-1.2,15.7-2.8,23.3c-2.1,9.7-16,15.4-24.8,10.9c-2-1-5-2.5-6.4-1.7
			c-4.6,2.7-8.3,0.4-12.4-0.7c-2.8-0.7-5.8-0.7-8.7-1c-0.3,0.7-0.7,1.4-1,2.2c1.4,1.1,2.7,2.6,4.3,3.1c6.4,2,9,6.4,8.9,13.4
			c4.1,2.4,8.2,6.4,12.7,7c4.5,0.5,9.5-2.2,14.1-3.9c4.6-1.7,8.8-5,13.5-5.9c12.4-2.4,25-4.1,37.5-5.5c18.8-2.1,37.3-5.1,55-12
			c3-1.2,5.7-3.1,8.5-4.6c-5.1-7.5-11.4-13.8-5.3-22.9c-0.7-1.7-1.4-3.4-2-5c4.5-6.3,8.6-12.8,13.7-18.4c1.6-1.8,5.6-1.6,8.5-1.8
			c2.2-0.1,4.5,0.6,6.7,0.9c1.6-8.2-5-11.6-7.7-16.7C585,97,590,89.6,597.3,84c3.1-2.4,6.4-2.8,9.7-0.6c7.1,4.7,12.7,10.6,15.8,18.8
			c1.2,3.3,0.8,5.7-1.8,8.5c-4,4.2-6.7,9.4-5.9,16.3c2.6,0.4,5,0.9,7.5,1.1c3.8,0.4,7.7,0.4,11.4,1.3c2,0.5,5.2,2.1,5.4,3.5
			c0.7,4.8,0.2,9.8,0.2,14.7c0,1-0.1,2-0.1,3.1c-0.2,8.3,2.1,16.9-2.4,23.5c2.7,3.2,6.7,5.8,7.4,9.1c1.2,5.8,0.7,12.1,0.4,18.1
			c-0.4,7.1-1.4,14.3-2.2,22.7c10.4,0,19.9-0.1,29.3,0c9.1,0.1,16.9,2.9,23.2,9.8c2.7,3,4,5.5,1.6,9.2c-3.8,5.8-7.3,7.7-11.8,6.2
			c-0.4-8.9-1.6-10.3-10.6-11.8c-2.5-0.4-5-0.7-7.5-0.6c-14.9,0.7-30.4-0.7-42.7,10c-3.3,116.4-6.7,232.6-10,348.8
			c-7.8,0-14.4,0-21.7,0c-0.4-9.9-1.1-19.5-1.2-29.1c-0.2-44.7,0.1-89.3-0.3-134c-0.6-59.8-1.7-119.6-2.7-179.4
			c0-1.8-1.3-3.8-2.5-5.4c-1.5-2-3.4-3.7-5.2-5.6c-0.1-0.8-0.7-1-1.4-1.2c-13.8-4.8-27.6-2.8-41.5-0.3c-3.9,0.7-8.2,1.1-11.4,3
			c-4,2.3-7,6.2-10.5,9.4c0.2,0.4,0.4,0.9,0.6,1.3c-2-0.5-4-1-4.7-1.1c-12,5.3-22.9,10.1-34.3,15.1c1.5,6.6-2.4,9.3-9,10.6
			c-4.6,0.9-9.9,2.4-13,5.5c-8.2,8.4-17.4,14.9-27.7,20.2c-8.6,4.4-10.6,3.7-14.2-5.2c-0.1-0.3-0.2-0.6-0.3-1
			c-2.7-9.9-5.1-19.9-8.1-29.7c-0.7-2.4-2.7-4.8-4.7-6.3c-5.9-4.2-11.8-8.2-12.3-16.5c-0.1-1.5-1.1-3-1.7-4.5
			c-0.8,0.6-1.6,1.2-2.4,1.8c-0.5,2.4-1.2,4.8-1.4,7.2c-0.4,5.8-3.1,10-8.2,12.9c-2.5,1.4-4.8,3-7.4,4.1
			c-15.5,6.7-28.7,16.7-42,26.8c-4.9,3.8-10.8,6.3-16.2,9.5c-1.1,0.6-1.9,1.7-3.5,3.1c38.2,1.6,75,3.2,111.9,4.8
			c-0.1,0.2-0.4,1.3-1,3.6c16,1.4,31.4,2.8,46.8,4.1c0-0.4,0-0.8,0-1.3c3,0.2,6.1-0.1,9,0.6c3,0.7,5.7,2.7,8.6,3.7
			c15.6,5.2,22.4,21.7,14.9,36.4c-0.7,1.3-1.7,2.7-1.7,4.1c-0.2,9.9-3.9,20.1,1.8,29.6c0.2,0.3-0.1,0.9-0.2,1.7
			c-2.3,0.5-4.5,1-6.9,1.5c-0.2,1.1-0.4,2.2-0.7,3.3c-4.7,19-9,38.2-14.4,57.1c-4.1,14.5-10,28.6-14.3,43.1
			c-3.5,11.9-8.2,23.9-2.5,35.8c-0.9,2.5-1.6,4.5-2.3,6.6c1.7,0.7,2.7,1.2,3.8,1.5c6.3,2.2,12.6,4.3,18.8,6.5c3,1.1,5.4,2.7,2.6,6.8
			c5.5,1.1,10.4,2.1,15.3,3c-0.2,1.5-0.4,2.6-0.7,4.2c3.7,0.2,7.2,0.4,10.6,0.7c2.1,0.2,4.4,0.2,6.3,0.8c8.1,2.8,16.2,5.7,24.3,8.7
			c1.4,0.5,2.8,1.2,4.2,1.8c0.1,0.7,0.2,1.3,0.3,2c-2.4,1-4.9,2.9-7.3,3c-23.6,0.3-47.3,0.4-70.9,0.4c-9,0-18-0.7-27-0.6
			c-3.1,0-6.3,2.2-9.4,2c-5.7-0.4-11.3-1.8-17-2.8c-10.4-1.8-13.5-7.5-9-17.2c1.6-3.6,3.8-6.9,5.7-10.5c-1.9-2-3.5-3.8-5.3-5.7
			c15-14.1,19.8-31.9,19.8-51.3c0-8.5-0.5-17-1.4-25.4c-2.3-22.7-2.5-44.9,10.9-65.1c4-6-0.7-13.2-8-12.8c-6,0.3-12.1,0.5-17.8,2.2
			c-29.5,8.5-59.1,8.8-88.9,1.8c-4.7-1.1-10,0.3-14.9,0.5c-0.4,2.4-0.6,3.6-0.7,4.7c-1.4,22.4-2.7,44.9-4.1,67.3
			c-0.2,2.4-0.8,4.8-1.4,7.9c-4.4-2.4-7.8-4.3-12-6.6c1.8,26.2-3.5,50.4-8,74.7c6.9,0.6,8.3,2.2,6.6,8c-3.5,11.6-7.2,23.1-11.1,34.5
			c-0.9,2.6-2.8,4.9-4.7,6.9c-5.5,5.9-12.9,8-20.3,9.9c-1.3,0-2.7,0-4,0c-4.3-2-9.3-3.1-12.8-6.1c-6.7-5.7-13.4-8.8-22.1-5.6
			c-1.1,0.4-2.8-0.8-4.5-1.4c1.3-2.2,2.1-3.4,2.8-4.6c-0.8-0.6-1.3-1.2-1.9-1.4c-7.3-2.1-15.1-3.2-21.9-6.3
			c-19.3-8.9-38.3-18.7-57.4-28c-16.6-8.2-33.7-15.1-52.3-17.1c-7.6-0.8-19.2,6-19.2,15.5c0,1.7-1.2,4-2.5,4.9
			c-4.4,3-6.7,7.6-5.6,14.5c5.5,2.2,11.6,4.6,17.8,7c3.3,1.3,7.3,1.7,8.8,7c-2.1,1.1-4.1,3-6.4,3.4c-9,1.6-18.1,2.8-27.1,4.1
			c-3.7,0.5-7.5,1.3-11.2,1c-11.2-0.8-19-10.2-19.1-22.3c0-2.3,0.5-5.4-0.7-6.7c-4.5-5-2.1-9.5,0.8-13.5c6.6-9.3,9-20.1,12.2-30.6
			c0.7-2.3,0.9-4.9,1.3-7c-5.3-5.6-7.9-12.1-6.5-19.3c0.7-3.9,2.3-7.7,2.8-11.7c2.7-19.6,12.8-25.4,30.7-17.1
			c7.8,3.6,15.3,8,23.1,12c1.4-0.6,2.8-1.1,4-1.6c6.9,4.8,13.6,9.4,20.3,14c9.4,6.3,19.5,11,30.8,12.2c12.9,1.3,26,1.4,38.8,3.1
			c10.8,1.4,21.4,4.3,31.9,6.6c0,3.4,0,5.5,0,8c2.4,0.8,4.8,1.7,8,2.8c0-4,0.5-7.1-0.1-9.9c-1.9-8.4-3.8-16.9-6.4-25.1
			c-4-12.5-9.2-24.7-7.8-39.6c-6.5-1.2-13-3.7-19.3-3.3c-9.3,0.5-12.5-1.7-10.9-11.1c1.1-6.6,2.7-13.1,3.4-19.7
			c0.3-2.7-0.1-7-1.9-8.2c-4.4-3.1-3.7-6.5-2.8-10.5c2.3-9.7,4.4-19.4,6.6-29c-0.6,0.2-1.2,0.3-1.8,0.5c-1.1-2.4-3.6-5.1-3.1-7
			c3.1-12.2,6.8-24.2,10.2-36.2c0.3-2.8-0.1-6,1.1-8.4c6.5-12.7,13.4-25.2,20.4-37.7c1.5-2.7,3.5-5,5.6-8c0.1-1.6-0.1-4,0.6-6.2
			c4.9-16.2,12.8-31,21.6-45.4c11.3-18.4,23.1-36.5,34.1-55.1c4.2-7.1,6.3-15.5,10.9-22.3c6.3-9.5,13.5-18.7,21.4-26.9
			c5.8-6,13.3-10.3,20.2-15.1c3-2.1,6.6-3.2,9.6-5.2c12.8-8.9,27.5-10.6,42.4-11c3.4-0.1,6.8,2.6,10.2,4c2.2,0.9,4.3,1.8,6.5,2.6
			c1.3-2,2.1-3.2,2.8-4.1c-1.1-2.8-2.3-5.2-3.1-7.7c-9.1-28.1,14.2-64.3,44.7-69.7C422.1,2.3,426.5,1.7,430.9,1z"/>
	</g>
</g>
</svg>
