<?xml version="1.0" encoding="utf-8"?>
<!-- Generator: Adobe Illustrator 19.0.0, SVG Export Plug-In . SVG Version: 6.00 Build 0)  -->
<svg version="1.1" id="Layer_1" xmlns="http://www.w3.org/2000/svg" xmlns:xlink="http://www.w3.org/1999/xlink" x="0px" y="0px"
	 viewBox="0 0 284.3 998.8" style="enable-background:new 0 0 284.3 998.8;" xml:space="preserve">
<g id="XMLID_1_">
	<path id="XMLID_10_" d="M108.2,0c6.9,2,14.2,3.3,20.7,6.2c13.7,6.1,23.9,15.4,25.4,31.6c0.1,1.1,1.6,2.6,2.8,3.1
		c10.6,4.5,18.8,11.5,22.3,22.8c2.3,7.4,1.5,15-1.2,22.4c-1.6,4.2-3,8-2.2,13.1c1.5,10.5,0.1,21-4.7,30.7
		c-4.4,8.9-8.9,17.8-13.2,26.7c-1.3,2.6-2.3,5.3-3.4,8c3.5,0.3,6.8,0,9.7,1c8.1,2.7,12,11.6,9.6,20.2c-3.4,12.4-13.5,18.5-25.7,16.7
		c-0.9-0.1-2.6,1.4-2.9,2.5c-1.5,6.7-3.2,13.4-4,20.1c-1.4,11.9-2.3,23.9-3.1,35.9c-0.4,5.9,0.9,6.9,6.8,6.9c2,0,4-0.2,6,0
		c7.2,0.9,13,0,15.2-8.6c1.2-4.7,5.9-7.1,10.3-7.2c5.8-0.1,10.3,3.8,12.4,8.9c2.4,6,6.9,7.3,12.4,9.1c8.7,2.9,17.1,7,25.4,11.2
		c1.8,0.9,3,4.1,3.3,6.5c1.5,10.5,2.7,21.1,3.9,31.7c1.1,9,2.1,17.9,3.2,26.9c1.2,10.1,2.7,20.1,3.8,30.2c0.9,8.5,1.4,17.1,2.2,25.6
		c1.3,13.6,2.6,27.1,3.9,40.7c0.4,4.1,0.8,8.2,1,12.3c0.4,8.6,0.8,17.2,1,25.8c0.4,13.9,0.7,27.9,1,41.8c0.3,12.4,0.6,24.9,1,37.3
		c0.6,15.5,1.2,31.1,2.1,46.6c0.2,3.5,1.1,6.7,5,8.8c14.2,7.7,20.4,21.3,23.8,36.1c1.5,6.5,1.4,13.3,2.2,20
		c1.1,9.7-4.2,11.6-14.3,9.3c-0.9-0.2-1.8-0.8-2-0.8c-4.3,4-7.7,8.9-12.5,11.3c-5.6,2.8-10.3-1.8-14.6-5.3
		c-5.8,7.8-13.6,8.7-22.6,2.7c-2.6,1.9-5.4,3.7-7.8,5.9c-0.9,0.8-1.4,2.5-1.3,3.8c1.3,11.7,2.8,23.4,4.4,35.1
		c0.4,2.7,1.7,5.3,2.4,7.9c1.2,4,2.7,8.1-2,10.8c1.9,1.8,4.2,3,4.8,4.8c0.6,1.6-0.7,3.9-1.2,6.2c3.5,1.3,5,3.6,3.8,8.3
		c-1.1,4.1-0.5,8.6-0.3,12.9c0.4,6.7,1.5,13.4,1.8,20.1c0.8,18.5,1.5,37.1,2,55.6c0.5,15.8,1.1,31.5,0.9,47.3
		c-0.1,14.2-1.5,28.4-1.7,42.6c-0.1,3.3,1.6,7.1,3.6,9.7c4.4,5.8,4.3,7.7-2.5,11.3c0.2,0.4,0.4,0.7,0.6,1.1
		c2.3,4.4,6.9,9.7,2.5,13.7c-3.9,3.6-9.1,6.5-16.2,5.3c-14.4-2.4-29.1-4.5-43.6-4.1c-20.7,0.5-41.1,5.3-61.4,9.6
		c-10.8,2.3-22.3,1.4-33.5,2c-0.6,0-1.5-0.2-1.8-0.6c-2.8-5.1-7.7-3-11.6-3.2c-4-0.2-7.5-1.3-9-4.9c-1.5-3.5,0-7.1,3.2-9.1
		c7-4.5,13.8-9.7,21.4-12.8c20.5-8.3,42-12.7,63.8-16.2c5.6-0.9,11.3-1.3,17.2-2c-3.5-8.6,5.4-4.3,7-7.5c-2-3.1-5.1-6-5.5-9.3
		c-0.7-5.7,5.5-3.5,9.7-5.6c0-13.7-0.1-27.5,0-41.2c0.2-16.3,0.7-32.5,0.9-48.8c0.2-13.3,0-26.6,0-39.6
		c-11.3-3.3-14.8-8.7-12.8-21.8c1.5-9.8-0.4-18.9-2.7-28.1c-4.9-19.6-10.2-39-15.2-58.6c-0.7-2.7-0.9-5.4-1.4-8.3
		c-4.4,2.4-8.3,3.5-13.2,1.4c-3.4-1.5-7.4-1.4-10.9-3.7c-1.4-0.9-4.4,0.8-6.7,1.1c-3.9,0.4-5.7-1.8-5.1-5.4c0.4-2.9,1.1-5.8,2.4-8.3
		c2.1-4,2.8-7.9,1-12.1c-5.9-13.9-1.9-25.2,8.8-34.9c0.9-0.8,1.8-1.5,2.7-2.1c-12.8-15.4-19.7-32.5-22.1-51.9
		c-1.3-10.3-1.3-20.4-0.1-30.6c1.1-9.7,6.9-17,11.5-24.9c5.6-9.7,11.7-19.7,19.7-27.3c7.5-7.1,7.5-15.4,9-23.7
		c2.6-14.6,5-29.3,7-44.1c1.5-11.1,1.8-22.3,3.2-33.4c2.7-20.6,5.8-41.1,8.6-61.7c1-7.3,1.7-14.6,2.6-22.4
		c-5.3,0.6-10.9,1.2-16.4,1.9c-10.4,1.3-20.8,2.9-31.2,3.9c-12.4,1.2-24.9,2.7-37.4,2.9c-20.2,0.2-33.3-10-36.2-30.9
		c-0.8-5.7-0.9-11.5-1-17.3c-0.2-6,0-12,0-17.9c-5.5-0.9-10.9-1.4-16.1-2.7c-10.3-2.5-18.6-8.7-17-20.9c0.7-5.1,7.7-10.8,14-11.1
		c7.1-0.4,13.1,2,18.7,6.2c1.6,1.2,3.1,2.3,4.7,3.5c2.3-8,4.6-15.7,6.6-23.4c0.4-1.4,0-3.5-0.9-4.5c-4.8-5.4-6.8-11.7-7.1-18.8
		c-0.4-9.2,0.6-17.9,4.9-26.3c1.1-2.1,0.2-5.3-0.1-7.9c-0.5-4.2-0.9-8.5-1.9-12.6c-0.8-3.2-2.3-6.4-4-9.3
		c-5.5-9.3-9.2-19.3-11.2-30.4c-2,2.5-3.5,5-5.6,6.8c-1.6,1.3-4,2.5-5.9,2.2c-1-0.2-2.1-3.4-2.2-5.3C10,76,11.4,67.4,16,59.5
		c0.5-0.9,0.5-2.1,0.8-3.5c-2.5,1-4.7,1.9-6.9,2.8c-5,2.1-8.9-0.5-7.4-5.8c1.4-5,3.9-9.9,6.9-14.3c2.1-3.1,5.8-5.1,8.7-7.7
		c0.6-0.5,0.9-1.4,1.2-1.9c-5.7-1.9-11-3.7-16.4-5.6c0-0.8,0-1.7,0-2.5c3.1-1.3,6.2-3.6,9.4-3.8c8.7-0.5,17.4-0.1,26.1-0.2
		c1.7,0,3.6-0.2,5.2-0.8c7.1-2.7,14.2-5.4,21.2-8.3c3.6-1.5,6.9-3.5,10.5-4.8c3.6-1.3,7.3-2.1,11-3.1C93.5,0,100.9,0,108.2,0z"/>
</g>
</svg>
