<?xml version="1.0" encoding="utf-8"?>
<!-- Generator: Adobe Illustrator 19.0.0, SVG Export Plug-In . SVG Version: 6.00 Build 0)  -->
<svg version="1.1" id="Layer_1" xmlns="http://www.w3.org/2000/svg" xmlns:xlink="http://www.w3.org/1999/xlink" x="0px" y="0px"
	 viewBox="0 0 78.8 101.1" style="enable-background:new 0 0 78.8 101.1;" xml:space="preserve">
<g id="XMLID_1_">
	<path id="XMLID_16_" d="M55,88.6c0,0.5-0.1,0.7,0,1c0.1,0.2,0.3,0.3,0,0.5c-0.3,0.2-0.5,0.2-0.7,0c-0.6-0.7-1.4-1.3-1.8-2.1
		c-0.4-0.6-0.5-1.5-0.3-2.2c0.2-0.9,0.3-1.8,0-2.5c-0.2-0.4,0.2-1-0.3-1.3c-0.1-1-0.7-1.8-1.3-2.4c-0.5-0.5-0.5-1.1-0.8-1.7
		c-0.1-0.2,0.2-0.5,0.2-0.7c0-0.6,0.4-1,0.6-1.4c0.5-0.9,2-1.2,3-0.9c0.7,0.2,1.4,0.6,2.1,0.3c0.5-0.2,1-0.2,1.6-0.2
		c-0.4-0.3-0.7-0.5-1-0.6c-1.5-0.6-2.8-1.6-4-2.8c-0.4-0.4-0.8-0.8-1.2-1.2c-1-1-2.2-1.8-3.4-2.6c-0.4-0.3-1-0.4-1.5-0.2
		c-0.9,0.5-1.9,0.8-2.8,1.4c-1.3,0.9-1.5,1.1-2.2,2.5c-0.5,1-1.1,2-2,2.8c-0.6,0.5-1.2,1.1-1.7,1.7c-0.5,0.5-1,1-1.3,1.6
		C36,78,35.5,78.4,35,78.7c-0.3,0.1-0.6,0.2-0.8,0.3c-1,0.5-1.1,0.5-1.6,1.4c-0.4,0.8-1,1.2-1.8,1.5c-0.5,0.2-1.1,0.5-1.7,0.6
		c-0.8,0.1-1.7,0.2-2.4-0.5c-0.2,0.2-0.3,0.3-0.4,0.4c-0.3,0.3-0.6,0.3-0.9,0c-0.4-0.4-0.7-0.7-1.1-1.1c0-0.2,0-0.5,0-0.7
		c-0.1,0-0.2-0.1-0.3-0.1c-0.6,0-1.1,0-1.2-0.9c-0.2,0.4-0.3,0.8-0.5,1c-0.3,0.4-0.2,0.9,0,1.3c0.3,0.7,0.6,1.4,0.6,2.2
		c0,0.2,0.1,0.3,0.2,0.5c0.2,0.6,0,1.2-0.2,1.8c-0.1,0.4-0.4,0.6-0.8,0.8c-0.2-0.5-0.3-0.9-0.5-1.3c-0.1,0.4-0.3,0.8,0,1.2
		c0.1,0.1,0.1,0.3,0.1,0.4c0,1.5,0.5,3,0.7,4.5c0,0.1,0.1,0.3,0.2,0.4c0,0.1,0.1,0.1,0.2,0.2c0.5,0.5,1.2,0.8,1.5,1.4
		c0.3,0.6,0.8,1.1,1.2,1.6c0.3,0.4,0.5,0.8,0.6,1.3c0.1,0.7,0.8,1.5,0.1,2.3c-0.1,0.2,0,0.5,0,1c-0.3-0.2-0.5-0.3-0.7-0.5
		c-0.3-0.2-0.7-0.5-1-0.8c-0.1-0.1-0.4-0.2-0.5-0.1c-0.7,0.6-1.2-0.2-2-0.2c-0.9,0.4-1.1,1.7-2,2.4c-0.4-0.9-1.1-1.6-1.8-2.1
		c-0.3,0.1-0.7,0.4-1,0.4c-1-0.1-1.8,0.4-2.5,1c0,0-0.1,0-0.2,0c0-0.5-0.5-1,0.1-1.6c-0.7-0.1-1.3-0.4-1.8-0.3
		c-0.5,0.1-1,0.5-1.5,0.8c-0.2-1.1,0-2,0.6-2.8c0.5-0.8,1-1.6,2.2-1.7c-0.1-0.6,0.1-1.1,0.5-1.6c0.7-1,1.1-2.1,1.4-3.2
		c0.3-0.9,0.5-1.8,0.5-2.8c0-0.5,0.3-1,0.2-1.6c0-0.5-0.1-1.1,0.2-1.6c0.1-0.1,0-0.3,0-0.5c0.1-1.1,0.1-2.2,0.3-3.3
		c0.1-0.6,0.1-1.1,0.2-1.7c0.1-0.5,0.4-1.1,0.4-1.6c0.1-0.6,0.3-1.1,0.5-1.6c0.3-0.7,0.2-1.4,0.2-2.2c0-1.5,1.1-3,2.5-3.5
		c0.9-0.3,1.7,0.2,2.4,0.6c0.7,0.4,1.3,1,1.9,1.4c0.6,0.4,0.8,0.4,1.1-0.2c0.4-0.7,0.6-1.5,1-2.2c0.5-1.1,1-2.2,1.6-3.3
		c0.4-0.8,1-1.6,1.4-2.4c0.8-1.4,1.3-2.5,3.1-4.1c0.2-0.2,0.3-0.5,0.4-0.8c0.1-0.3,0-0.6,0-0.8c0-0.5,0-0.5,0.7-0.8
		c0.2-0.5-0.2-1.1,0.3-1.6c0.1-0.1-0.1-0.5-0.2-0.6c-0.3-0.4-0.7-0.7-1-1c0-0.3,0-0.6,0-0.8c0.1-0.2,0.2-0.6,0.3-0.5
		c0.7,0,1.1-0.6,1.8-0.9c0-0.4-0.1-1,0-1.5c0.1-0.6-0.2-1.1-0.3-1.6C35.4,48,35,47.5,34.7,47c-0.1-0.1-0.3-0.2-0.3-0.3
		c-0.3-1.2-1.1-1.7-2.2-2.2c-0.9-0.4-1.5-1.2-1.9-2.1c-0.4-0.7-0.8-1.4-1-2.2c-0.2-0.8-0.8-1.5-1.6-2.1c0,0.3,0,0.7-0.1,1
		c0,0.3-0.2,0.6-0.2,0.9c-0.1,1.1-0.4,2.2-0.9,3.2c-0.3,0.8-0.7,1.5-1.1,2.3c-0.2,0.5-0.4,1-0.5,1.5c-0.4,1.6-0.8,2.6-1.9,3.7
		c0,0.4,0,0.9,0,1.5c-1.1,0.7-1.2,2.2-2.3,3c-0.9,0.2-1.8-0.2-2.7-0.5c-0.4-0.2-0.9-0.3-1.4-0.4c-1.7-0.3-3.2-1-4.6-1.9
		c-1.2-0.9-2.3-1.9-3.3-2.9c-0.3-0.3-0.7-0.6-0.9-1.1C7.7,48,7.3,47.7,7,47.5c-0.5-0.3-0.9-0.6-1.2-1c-0.3-0.4-0.8-0.7-1.1-1.2
		c-0.6-1-1.7-1.6-2.7-2.1c-0.6-0.3-0.6-0.9-1-1.3c-0.1-0.1,0.1-0.3,0.1-0.4c0.1-0.8,0.4-1.6-0.3-2.3c-0.3-0.3-0.4-0.7-0.6-1.1
		c-0.3-0.5-0.2-1,0.1-1.5C0.5,36,1,35.4,1,34.7c0-0.2,0.1-0.4,0.2-0.6c0.1-0.3,0.2-0.7,0.4-0.9c0.5-0.5,1.1-0.9,1.7-1.3
		c0.2-0.1,0.5-0.2,0.8-0.1c0.4,0,0.9,0.1,1.3,0.3c0.2,0,0.3,0.3,0.5,0.5c-0.3,0.1-0.5,0.1-0.6,0.2c-0.4,0.2-0.8,0.4-0.7,0.9
		c0,0.5-0.2,0.8-0.5,1.1c-0.4,0.5-0.5,0.7-0.4,1.7c0.3-0.7,0.7-0.9,1-1.3c0.3-0.4,0.4-0.9,0.7-1.3c0.4-0.6,1-1,1.8-1.2
		c0.7-0.2,1.4-0.2,2.1,0.1c0.5,0.2,1,0.4,1.2,1.1c-0.2,0-0.4,0.1-0.5,0.1c-0.5,0.1-1,0.4-1.4,0.7c-0.3,0.3-0.5,0.7-0.9,0.8
		c-0.8,0.3-0.6,1.1-0.9,1.7c0,0.1,0.1,0.3,0.1,0.4c0.1,0.2,0.3,0.4,0.5,0.7c0-0.4,0-0.8,0.1-1.1C7.7,36.4,8.2,36,9,36
		c0.3,0,0.5,0.1,0.8-0.2c0.4-0.4,0.8-0.6,1.3-0.5c0.6,0,1.1,0.4,1.5,0.7c0.8,0.6,0.9,1,0.8,2.5c-0.5-0.7-1.2-0.4-1.8-0.5
		c-0.8-0.1-1.1,0.6-1.7,0.8c0,0.4,0,0.7,0,1.1c0,0.2,0,0.5,0.2,0.6c0.1,0.1,0.3,0.2,0.2,0.2c-0.2,0.8,0.5,1.2,0.8,1.9
		c0.1,0.4,0.3,0.7,0.1,1.2c-0.3,0.6,0,1,0.3,1.5c0.3,0.4,0.7,0.8,1.2,1.2c0.4,0.3,1,0.5,1.5,0.4c2.5-0.4,2.4-0.2,4.3,0.2
		c0.2-0.7-0.2-1.4-0.3-2.1c-0.1-0.6-0.1-1.2,0-1.8c0.3-1.4,0.8-2.7,1.4-4c0.1-0.2,0.2-0.5,0.1-0.7c-0.5-1.2-0.1-2.4-0.2-3.6
		c-0.1-0.9,0.2-1.8,0.4-2.7c0.3-1.1,1.1-1.8,2-2.4c0.9-0.5,1.1-0.7,1.3-1.6c0.1-0.5,0.3-0.8,0.5-1.2c0.1-0.2,0.3-0.4,0.2-0.6
		c-0.1-0.7,0.4-1.3,0.6-1.9c0.3-0.6,0.6-1.2,0.6-1.9c0-0.4,0.1-0.9,0.2-1.2c0.3-0.5,0.1-0.6-0.3-0.7c-0.2-0.1-0.5-0.2-0.8-0.3
		c1.3-0.8,2.1-1.8,2.8-3c0.2-0.4,0.6-0.7,0.9-1.1c-0.3-0.1-0.6-0.3-1-0.4c0.7-0.4,1.3-0.8,2-1.3c-0.7,0-1.1-0.1-1.6-0.1
		c0-0.2,0-0.4,0-0.7c-0.2,0.1-0.4,0.2-0.6,0.2c-0.2,0-0.4-0.2-0.6-0.2c-0.4-0.1-0.6-0.5-1.1-0.5c-0.3,0-0.6-0.4-0.9-0.7
		c0.5-0.2,0.9-0.5,1.4-0.6c1.6-0.3,3-1.2,4.5-1.9c0.2-0.1,0.4-0.3,0.6-0.3c0.9,0,1.4-0.6,1.7-1.3c0.6-1,1.4-1.8,2.4-2.3
		c0.8-0.5,1.8-0.7,2.8-0.8c0.4,0,0.8,0.1,1.1-0.1C39,5,39.5,4.9,39.8,4.5c0.4-0.6,1-1,1.5-1.5c0.3-0.3,0.6-0.7,1.1-0.9
		C42.7,2,43,1.6,43.2,1.3C44.1,0.1,44.3,0,45.7,0c0.4,0.4,0.9,0.7,0.9,1.4c0,0.2,0.2,0.4,0.3,0.6c0.2,0.3,0.3,0.7,0.5,1
		c0.4,0.4-0.3,0.7,0,1c0.1,0.1,0,0.3,0,0.5C48,4.8,48.4,5,48.7,5.3c0.2,1.4-0.2,2.5-1,3.6c-0.6,0.7-0.8,1.7-1.1,2.6
		c-0.1,0.4-0.2,0.8-0.4,1.2c-0.1,0.4-0.2,0.8,0,1.2c0.5,0.8,0.6,1.8,0.8,2.7c0.1,1,0.6,1.8,1.3,2.5c-0.2,0.1-0.5,0.3-0.7,0.4
		c0.4,1,0.8,2,1.7,2.7c-0.7,1.3,0.1,2.5,1.3,2.7c2.2,0.4,3.5,1.7,4.2,3.7c0.2,0.5,0.3,1.1,0.4,1.6c0.1,0.5-0.1,1.1-0.3,1.6
		c-0.6,1.6-0.4,1.5,0.2,3.1c0.6,1.7,1.1,3.5,0.8,5.3c-0.1,0.6-0.2,1.1-0.2,1.7c0.6,0,1.2,0,1.8,0c0.5,0,1.1,0.1,1.6,0.2
		c0.5,0.1,0.9,0.5,1.4,0.6c1.1,0.4,2.2,0.8,3.5,0.6c0.2,0,0.4-0.2,0.6-0.2c1.3,0.1,2.5-0.4,3.8-0.5c0.3,0,0.8-0.3,1-0.8
		c0.6-1.1,0.6-1.1,1.8-1.6c0.1-0.3,0.1-0.7,0.3-1c0.3-0.5-0.2-1-0.2-1.4c0-0.2-0.4-0.3-0.6-0.5c-0.2-0.1-0.4-0.1-0.5-0.3
		C70.1,37,70,37,69.8,37.1c-0.2,0.1-0.6,0.1-0.9,0.1c-1-0.1-1.2,0-1.8,0.3c-0.2-1,0-1.7,1-2.2c0.4-0.2,0.6-0.6,1.1-0.5
		c0.1,0,0.2,0,0.2-0.1c0.4-0.6,1-0.3,1.6-0.4c0.2,0.2,0.4,0.5,0.6,0.7c0.3-0.2,0.5-0.3,0.7-0.3c-0.5-0.3-1-0.7-1.5-1
		c-0.2,0.1-0.4,0.1-0.8,0.2c0-0.3-0.1-0.5,0-0.6c0.2-0.5,1.3-1.3,1.8-1.3c0.5,0,1,0.1,1.4,0.2c0.5,0.2,1,0.2,1.5,0.2
		c0.2,0,0.3,0.1,0.5,0.2c0.3-0.7-0.2-1.1-0.6-1.5c0.2-0.4,0.5-0.4,0.9-0.4c1.3,0,2.1,0.6,2.4,1.8c0.1,0.4,0.7,0.6,0.5,1.1
		c-0.1,0.3,0.1,0.7,0.2,1.1c0.3,0.7,0.4,1.3,0,2c0.1,1-0.4,1.9-0.2,2.9c0.1,0.7-0.3,1.3-0.9,1.6c-0.3,0.2-0.5,0.3-0.7,0.6
		c-1.2,1.2-2.4,2.2-3.9,3.1c-0.4,0.2-0.8,0.5-1.1,0.9c-0.8,0.9-1.9,1-3,1.2c-0.5,0.1-1,0.2-1.5,0.3c-0.4,0.1-0.9,0.1-1.3,0.2
		c-0.4,0.1-0.8,0.4-1.2,0.1c-0.3,0.5-0.9,0-1.2,0.5c-0.7,0.1-1.5,0.1-2.2,0.3c-0.9,0.2-1.7,0.1-2.6,0.4c-0.2,0.1-0.5,0-0.7,0
		c-0.6,0.1-1.3-0.2-1.8,0.2c-1.1-0.2-2.3-0.1-2.9-1.3c-0.2-0.3-0.5-0.6-0.9-1c-0.1,1.6,0.9,2.8,1,4.3c0.3-0.1,0.6-0.1,0.9-0.1
		c0.3,0,0.6,0.1,0.9,0.1c0.3,0.1,0.5,0.2,0.6,0.6c0,0.5-0.2,0.8-0.5,1.1c-0.2,0.3-0.5,0.5-0.8,0.7c0.3,0.3,0.6,0.5,0.5,0.9
		c-0.1,0.5,0,0.9,0.4,1.3c0.2,0.1,0.2,0.5,0.3,0.7c0,0.1,0,0.3,0.1,0.3c0.8,0.1,0.8,0.9,1.1,1.3c0.7,1,1.7,1.6,2.6,2.3
		c1.2,0.9,2.6,1.6,3.7,2.6c1.4,1.1,2.5,2.5,3.4,4c0.6,0.9,1.2,1.6,1.9,2.3c0.9,1.1,1.9,2.1,2.5,3.4c0.2,0.4,0.4,0.8,0.5,1.2
		c0.1,0.6,0.1,1.2-0.3,1.8c-0.4,0.6-0.9,1.2-1.4,1.8c-0.3,0.4-0.8,0.8-1.3,0.8c-0.5,0-0.9,0.2-1.3,0.6c-0.4,0.4-0.8,0.6-1.3,0.6
		c-0.3,0-0.5,0.2-0.6,0.4c-0.2,0.3-0.4,0.5-0.7,0.9c-0.3-0.3-0.6-0.5-0.8-0.8c-0.2-0.3-0.4-0.5-0.6-0.9c-0.6,0.5-1.2,1-1.9,0.4
		c-0.1-0.1-0.3,0-0.5,0c-0.3,0.1-0.7,0.2-1,0.2c-0.3,0-0.7,0.1-1,0.2c-0.6,0.1-1.3,0-1.9,0c-0.3,0.5,0.1,0.9,0.1,1.3
		c0.1,0.4,0.2,0.9,0.3,1.3c0.4,1.4,1.2,2.5,2,3.7c0.7,1,1.3,2,2.1,2.8c0.6,0.7,1.5,1.3,2.2,1.9c0.1,0.1,0.2,0.1,0.3,0.2
		c0.7,0.8,1.7,0.9,2.7,1c0.4,0,0.9,0,1.3,0c0.4,0,0.7,0,1,0.2c0.1,0.1,0.3,0.3,0.4,0.2c1.1-0.2,1.7,0.6,2.5,1
		c0.5,0.2,0.5,0.3,0.5,1.1c0,0.4,0.2,0.8,0.3,1.2c-0.3,0-0.5,0.1-0.8,0.1c0.2,0.3,0.3,0.6,0.4,0.9c0.1,0.2,0,0.5-0.2,0.6
		c-0.2,0.1-0.3,0.1-0.5,0c-0.2-0.1-0.4-0.1-0.6-0.1c0.1,0.5,0.1,0.9,0.2,1.5c-0.4-0.1-0.6-0.1-0.8-0.2c-0.8-0.4-1.5-0.4-2.3,0
		C67.2,99.1,66,99,65,98.4c-0.4-0.2-0.7-0.3-1.1-0.3c-1,0.1-1.9-0.2-2.7-0.7c-0.7-0.4-1.2-1-1.5-1.8c-0.4-1.1-0.9-2.2-1.7-3.1
		c-0.8-1-1.6-2.1-2.6-3C55.4,89.3,55.2,89,55,88.6z"/>
</g>
</svg>
