<?xml version="1.0" encoding="utf-8"?>
<!-- Generator: Adobe Illustrator 23.0.1, SVG Export Plug-In . SVG Version: 6.00 Build 0)  -->
<svg version="1.1" id="Layer_1" xmlns="http://www.w3.org/2000/svg" xmlns:xlink="http://www.w3.org/1999/xlink" x="0px" y="0px"
	 viewBox="0 0 296.07 262.57" style="enable-background:new 0 0 296.07 262.57;" xml:space="preserve">
<g>
	<path d="M88.06,143.96c0.96,1.35,9.91,6.56,12.67,4.1c6.38-5.69,12.42-5.16,17.41,1.51c5.56-1.76,15.37-13.18,18.96-22.26
		c-0.96-0.56-1.98-1.14-3.23-1.87c0.73-2.04,1.48-4.11,2.55-7.1c-5.09,4-9.22,8.32-15.28,6.8c-2.37-0.59-4.65-2.67-6.26-4.65
		c-0.71-0.87,0.36-3.19,0.69-5.29c-0.09-0.05-1.63-0.29-2.03-1.1c-0.7-1.41-1.06-3.23-0.8-4.75c0.08-0.49,2.79-1.21,3.86-0.77
		c10.29,4.27,19.24-1.67,19.45-12.89c0.1-5.5,0.48-9.74-3.03-14.38c-3,1-5.13,0.91-6,3c-0.59,1.42,1.37,5.31,0.94,6.19
		c-0.98,2.02-5.94,2.81-8.94,2.81c-1.79,0-0.39-4.21-2-6c-1,0-3,1-3,1s0.65,5.59-0.52,6.46c-2.64,1.96-6.99,1.6-11.26,1.7
		c-0.18-2.73-0.31-4.81-0.45-6.86c-0.62,0-1.14-0.12-1.22,0.02c-1.9,3.27-4.77,5.7-8.43,4.47c-4.37-1.47-6.45-5.74-6.97-10.02
		c-0.74-6.06,0.7-11.23,5.85-15.76c0,0,0.28-3.72,1-5c2.13-3.77,6.94-4.2,10.08-1.37c4.55,4.09,4.81,4.01,7.95-2.72
		c-4.42-2.63-8.88-5.25-13.31-7.93c-8.89-5.36-14.34-13.04-15.72-23.46c-0.83-6.25,4.45-14.67,11.34-18c0.93,2.29,1.86,4.6,2.8,6.9
		c-0.92-6.9,3.21-10.8,7.84-14.43c5.01-4,10.01-2,15,0c12.53,4.5,16.3,15.68,19.95,27.15c9.36-7.91,19.1-13.75,29.91-18.46
		c8-3.49,14.86-1.03,22.16-0.07c7.31,0.97,12.3,6.68,18.42,10.12c2.52,1.42,5.81,1.5,8.77,2.12c1.87,0.39,3.76,0.63,5.64,0.93
		c-0.68,2.59-0.54,6.39-2.21,7.54c-3.76,2.58-8.02,4.17-13.3,3.02c-7-1.53-14.3-1.79-21.49-2.28c-2.88-0.2-5.59,0.62-6.06,4.35
		c-0.11,0.86-1.04,2.33-1.53,2.3c-8.5-0.46-9.85,7.25-13.22,12.07c-3.23,4.61-4.9,10.31-6.65,15.95c3.79-4.04,7.72-8.46,13.32-6.49
		c4.37,1.54,7.94-0.39,11.82-0.17c4.19,0.24,8.33,1.6,12.52,1.82c7.31,0.38,9.64-2.06,9.97-9.42c0.03-0.76,0.2-1.52,0.33-2.5
		c4.54,4.48,6.8,16.51,3.53,23.27c-3.75,7.76-10.4,11.99-19.73,11.8c0.25,1.36,0.45,2.46,0.64,3.48c-0.46,0.21-0.62,0.36-0.75,0.34
		c-7.67-1.63-7.37-1.46-11.55,5.87c-1.88,3.29-5.19,5.77-7.85,8.61c3.99,3.6,8.55,7.55,12.89,11.72c2,1.92,3.85,4.12,5.27,6.49
		c2.37,3.97,4.9,7.2,8.89,10.17c7.27,5.42,13.48,12.51,13.36,22.79c-0.01,1.04,0.49,2.09,0.88,3.65c3.4-3.08,6.65-4.76,5.47-10.31
		c-0.67-3.13,1.84-7.61,4.15-10.49c2.04-2.54,1.87-4.87,1.32-7.16c-2.04-8.48-1.18-16.77,2.25-24.51
		c4.08-9.2,10.79-15.95,20.92-18.86c3.53-1.01,7.21-2.44,10.07-4.66c6.29-4.87,4.34-10.92,1.11-16.92c5.46-1.08,7.4,3.51,11.57,5.56
		c-2.77-5.75-5.54-11.49-8.84-18.33c3.08,0.82,6.02,1.01,8.25,2.36c2.98,1.79,5.47,4.43,8.05,6.82c2.4,2.23,5.27,4.27,6.85,7.02
		c3.77,6.53,6.94,13.41,10.29,20.18c3.69,7.46,2.55,15.46,2.47,23.34c-0.03,2.64,0.22,5.3,0.02,7.92c-0.15,1.92-0.52,3.93-1.31,5.67
		c-6.49,14.28-17.96,22.97-34.55,23.17c-4,0.05-8-0.01-12,0.01c-3.23,0.02-6.08-0.26-8.68,3.09c-6.14,7.91-15.17,12.89-22.26,20.89
		c3.94,1.53,7.66,1.67,11.31,0.13c3.43-1.45,6.69-3.29,10.87-5.39c-0.39,3.24-0.69,5.92-1.03,8.6c-0.39,3.08-0.65,6.19-1.31,9.21
		c-0.35,1.59-1.24,3.17-2.25,4.48c-1.06,1.39-2.55,2.44-3.56,4.17c8.06,0.66,14.53-2.47,19.7-8.46c5.33,6.55,0.95,19.79-8.23,25.79
		c3.66,1.09,2.83,2.82,0.73,4.62c-4.14,3.55-8.84,4.82-14.21,3.47c-1.53-0.39-3.14-0.46-4.69-0.67c0.23,3.72,1.14,7.11,0.46,10.16
		c-1.19,5.33-5.2,6.46-7.86,2.09c-5.14-8.47-12.65-8.74-20.63-7.05c-10.07,2.13-20.02,2.68-30.11,0.44
		c-0.35,0.38-0.71,0.76-1.06,1.14c1.69,1.7,3.35,3.44,5.09,5.1c1.96,1.88,4.14,3.62,1.75,6.66c-0.45,0.57-0.9,1.49-0.77,2.13
		c1.13,5.71,2.43,11.39,3.59,17.1c0.19,0.93,0.15,2.68-0.23,2.81c-2.78,1-5.73,2.45-8.5,2.23c-2.46-0.2-6.41-2.05-6.76-3.76
		c-0.62-3.05-2.49-3.67-4.43-4.47c-6.31-2.61-12.74-4.96-19.08-7.5c-7.51-3.01-13.73-7.64-17.28-15.12
		c-0.72-1.52-0.92-3.67-0.5-5.31c2.18-8.5,3.01-17.54,9.75-24.29c2.92-2.92,7.5-3.26,10.16-0.23c1.51,1.72,3.02,3.95,5.21,6.09
		c-1.54-4.94-2.78-8.91-4.33-13.88c-2.51-1.15-6.15-2.82-8.9-4.08c-4.62,3.2-8.38,6.16-12.49,8.52c-3.31,1.91-4.39,4.46-4.53,8.05
		c-0.31,7.76-0.9,15.5-1.38,23.29c1.78,1.02,3.43,1.56,4.45,2.67c0.73,0.8,1.23,3.14,0.81,3.45c-2.96,2.26-0.76,4.79-0.77,7.21
		c-0.02,5.82-0.03,11.67-0.57,17.46c-0.21,2.33-6.92,3.33-10.54,1.47c-2.37-1.22-5.75-2.08-4.27-6.39c0.22-0.65-2.23-2.51-3.69-3.4
		c-7.36-4.47-15.02-8.48-22.15-13.27c-7.07-4.76-11.2-11.02-10.09-20.5c0.73-6.25,0.93-12.42,4.31-17.89
		c3.61-5.84,7.63-6.28,12.51-3.54c4.34,2.43,4.46,7.01,0.51,10.73c-0.99-0.66-2.04-1.36-2.94-1.96c-4.44,1.01,2.47,12.33,9.34,15.63
		c1.75,0.84,3.66,1.35,5.11,1.88c1.73-1.25,3.34-2.42,5.03-3.64c0.78-3.85,1.76-7.98,2.42-12.16c0.53-3.41,0.61-6.89,1-10.33
		c0.31-2.74,0.64-5.47,3.99-6.48c1.49-0.45,2.83-1.4,4.85-2.43c-6.94-2.34-13.29-4.31-19.49-6.67c-2.19-0.83-4-2.64-5.96-3.98
		c-1.89,1.97-5.82,2.45-7.75-1.01c-3.16-5.67-9.09-6.2-13.8-9c-1.66-0.98-4.35-2.2-4.46-3.5c-0.64-7.66-7.1-9.29-12.01-12.71
		c-9.78-6.82-19.52-13.7-28.98-20.94c-4.84-3.7-8.96-8.33-13.56-12.36c-7.16-6.27-6.26-19.46,1.89-24.48
		c0.64-0.39,1.89,0.19,2.88,0.33c1.55-6.14,7.17-7,12.13-8.09c4.05-0.89,7.56-0.01,10.4,4.41c4.65,7.23,10.3,13.87,15.99,20.36
		c4.25,4.85,9.17,9.12,13.88,13.54c3.53,3.31,7.22,6.46,9.66,8.62c6.34-4.07,9.02-0.24,12.34,1.93
		C87.69,138.15,88.06,143.96,88.06,143.96z M148.68,230.09c-3.27-6.41,2.41-4.11,4.66-5.03c-3.16-4.49-7.69-14.01-10.32-17.76
		c2,4,0.45,10.37-1.28,11.15c-1.79,0.81-4.93-1.36-7.27-2.15C134.66,221.25,142.14,229.01,148.68,230.09z M139.01,156.31
		c3.21-2.01,15.6-8.76,18.38-9.9c4.42-1.81,2.82-5.95-0.38-10.1C152.01,138.31,145.01,150.31,139.01,156.31z"/>
</g>
</svg>
