<?xml version="1.0" encoding="utf-8"?>
<!-- Generator: Adobe Illustrator 23.0.1, SVG Export Plug-In . SVG Version: 6.00 Build 0)  -->
<svg version="1.1" id="Layer_1" xmlns="http://www.w3.org/2000/svg" xmlns:xlink="http://www.w3.org/1999/xlink" x="0px" y="0px"
	 viewBox="0 0 308.31 343.44" style="enable-background:new 0 0 308.31 343.44;" xml:space="preserve">
<g>
	<path d="M250.04,181.34c2.35,4.99,4.62,7.19,7.25,10.08c3.75-4.59,3.28-10.82,9.71-15.12c1.86,4.5,5.25,12.25,7.01,16.5
		c1.5-4.41,4.35-19.68,5.99-24.5c6,3,8.72,17.31,10.25,22.75c2.05,7.3,3.72,14.7,5.52,22.07c0.74,3.03,2.17,4.97,5.7,4.97
		c1.02,0,2.55,1.08,2.98,2.05c1.54,3.42,2.71,7.01,3.57,9.34c-6.75,13.14-5.89,24.92,0.29,36.75c-0.35,0.12-0.7,0.23-1.06,0.35
		c-1.2-1.06-2.41-2.11-3.92-3.43c-1.04,2.99-1.95,5.59-3.06,8.78c-0.75-1.46-1.21-2.35-1.98-3.84c-2.24,5.15-4.23,9.75-6.23,14.34
		c-0.51-0.17-1.02-0.35-1.53-0.52c0.07-0.93,0.13-1.86,0.2-2.75c-0.45,0.15-1.02,0.33-1.44,0.46c-0.27-3.5-0.54-6.97-0.8-10.45
		c-0.37,0.02-0.74,0.05-1.11,0.07c0.12,2.36,0.24,4.73,0.36,7.12c-1.57,0.34-2.96,0.64-3.34,0.72c-3.85,4-7.14,7.43-11.13,11.57
		c-0.13-2.08-0.17-2.75-0.23-3.6c-1.59,0.74-3,1.39-4.4,2.04c-0.16-0.19-0.32-0.38-0.49-0.57c1.17-1.5,2.34-2.99,3.51-4.49
		c-0.21-0.17-0.43-0.34-0.64-0.51c-2.51,2.66-5.02,5.32-7.53,7.98c-0.34-0.28-0.68-0.57-1.01-0.85c2.23-2.85,4.45-5.7,6.61-8.46
		c-4.27,2.97-8.5,5.91-12.73,8.85c-0.22-0.26-0.44-0.52-0.66-0.78c0.7-0.89,1.4-1.79,2.63-3.36c-7.02,2.09-13.33,3.97-20.34,6.05
		c0.22-1.67,0.3-2.26,0.54-4.07c-2.81,2.61-4.99,4.65-7.53,7.01c-0.25-0.85-0.43-1.48-0.75-2.57c-0.9,0.15-2.12,0.35-4.84,0.81
		c8.94-11.16,6.15-21.05-0.4-30.67c-7.21-0.05-6.54-8.07-10.97-10.82c-0.66,0.12-1.31,0.25-1.97,0.37c0.74,1.4,1.49,2.8,2.3,4.33
		c-2.11-0.08-3.69-0.14-5.67-0.22c-0.86-1.38-1.88-3.01-3-4.79c-3.8,12.38,1.97,27.65,17.75,35.78c-0.16,0.37-0.33,0.74-0.49,1.1
		c-4.18-1.88-8.36-3.76-13.27-5.96c2.14,4.13,4.12,7.95,6.1,11.77c0.35-0.32,0.7-0.64,1.05-0.96c2.44,1.4,5.08,2.55,7.28,4.27
		c3.98,3.11,7.81,5.84,13.36,5.56c4.46-0.23,8.97,0.66,12.37,0.96c-3.13,2.51-3.15,2.51-22.19,1.35c2.78,1.22,4.66,2.05,6.56,2.89
		c-0.57,0.62-1.07,1.17-2.43,2.64c10.28,0.67,19.68,1.28,28.8,1.87c-1.51,0.66-3.75,1.64-6.27,2.74c0.97,0.69,1.55,1.1,2.11,1.5
		c-21.65,4.05-41.98-4.43-63.47-6.25c4.65,4.42,9.02,8.58,13.39,12.74c-0.07,0.12-0.13,0.25-0.2,0.37
		c-4.26-2.68-8.53-5.36-13.15-8.26c-0.98,0.36-2.32,0.86-3.36,1.25c-2.51-1.35-4.8-2.58-7.09-3.81c-0.25,0.4-0.5,0.81-0.76,1.21
		c4.33,4.91,5.18,11.18,12.98,14.73c-0.37,0.54-0.74,1.08-1.11,1.63l-23.7-8.17l8.45,7.79c-2.6-1.41-5.36-2.5-7.98-3.89
		c-3.69-1.95-7.3-4.04-10.26-5.68c1.38,2.68,3.19,6.2,5.14,9.98c-1.98,0.03-3.33,0.05-4.92,0.07c-3.9-4.15-8.16-8.68-12.42-13.21
		c5.32,8.89,12.38,16.59,14.9,27.07c-1.52-2-7.22-8.9-8.92-11.14l-9.55-11.73c-9.26-10.36-20.63-18.33-32.83-25.19
		c0.13,7.05,4.55,11.33,9.39,15.73c-0.93,0.21-1.69,0.39-2.89,0.66c5.14,8.53,12.89,13.67,21.23,18.31
		c-4.54,2.78-8.58,1.66-18.12-4.82c-0.13,0.97-0.25,1.79-0.43,3.09c-10.42-7.39-17.81-17.23-25.84-26.54
		c4.37,12.25,11.93,22.32,23.15,31.16c-9.99-2.07-21.12-13.62-33.02-33.05c0.39,6.54,0.4,6.92,7.17,15.24
		c3.68,4.53,7.87,8.64,11.59,13.16c-14.1-7.08-21.46-20.22-29.26-32.97c-0.35,0.22-0.69,0.45-1.04,0.67
		c3.34,5.81,6.68,11.62,10.02,17.43c-10.21-8.84-13.79-21.12-18.17-33.19c0.02,12.84,6.27,25.52,1.32,38.5
		c1.73-9-0.68-17.25-4.39-26.05c-0.78,2.5-1.36,4.37-2.31,7.42c-1.33-6.11-2.38-10.93-3.43-15.75c-0.52,0.03-1.04,0.06-1.56,0.09
		c-0.34,2.51-0.68,5.01-1.02,7.52c-0.41-0.04-0.83-0.07-1.24-0.11c-0.08-9.23-0.17-18.47-0.25-27.7c-0.44-0.02-0.88-0.05-1.32-0.07
		c-0.11,7.36-0.22,14.72-0.34,22.76c-5.08-5.93-4.16-12.93-6.64-19.09c0.39,4.26,0.79,8.52,1.18,12.78
		c-3.45-5.54-3.77-11.71-3.7-17.78c0.08-6.05,0.99-12.08,0.77-18.35c-0.49,1.3-0.99,2.6-1.48,3.9c-0.18-0.04-0.36-0.07-0.55-0.11
		c0.18-6.16,0.36-12.31,0.54-18.47c-0.45-0.05-0.9-0.11-1.35-0.16c-0.74,4.63-1.49,9.26-2.23,13.89c-0.48-0.04-0.95-0.07-1.43-0.11
		c0.24-5.72,0.12-11.49,0.84-17.14c0.54-4.21,2.24-8.27,3.27-12.44c0.38-1.53,0.78-3.31,0.38-4.75c-1.59-5.71,1.83-9.8,4.08-13.73
		c-6.84-1.36-13.7-2.54-20.45-4.17c-1.96-0.47-3.54-2.36-5.44-3.31c-2.3-1.15-4.75-2-8.21-3.41c-0.96-2.27-2.54-5.96-4.18-9.82
		c-1.95-1.18-4.12-2.49-6.29-3.8c0.13-0.3,0.25-0.6,0.38-0.9c1.35,0.27,2.71,0.55,4.06,0.82c-0.14-0.38-0.27-0.75-0.41-1.13
		c7.46-2.62,14.92-5.24,22.98-8.07c-0.05-0.13-0.33-0.85-0.85-2.21c6.98-0.77,13.7-1.51,21.44-2.36c-2.17-1.7-3.91-3.33-5.9-4.55
		c-3.39-2.08-6.92-3.95-10.45-5.8c-1.21-0.63-2.6-0.93-3.71-1.31c4.56-10.53,15.04-8.23,23.4-10.39c4.05-1.05,7.85-1.75,11.65-4.04
		c4.77-2.87,10.59-4.01,16.87-6.22c-1.85-1.9-3.01-3.1-3.93-4.04c5.86-3.08,11.85-6.23,16.11-8.47c4.29-7.8,6.97-14.4,11.16-19.82
		c4.14-5.36,9.82-9.53,14.25-14.83c-0.74,0.61-1.49,1.22-2.38,1.95c-0.94-1.01-1.91-2.04-2.69-2.88c2.79-2.21,5.89-4.66,8.98-7.1
		c-0.26-0.47-0.51-0.95-0.77-1.42c-2.1,0.46-4.2,0.92-6.35,1.39c5.17-4.53,16.14-8.01,21.94-6.86c0.2-1.25,0.39-2.49,0.8-5.06
		c3.02,8.76,9.79-0.86,14.39,1.81c0.28-2.05,5-2,9-3c-1.17-0.04-6.74-0.96-8-1c15-3,15.11-4.95,23.56-1.88
		c0.98-0.92,2.05-1.92,2.57-2.4c2.74-0.47,4.81-0.83,7.42-1.27c0.08,0.13,0.53,0.89,0.85,1.43c3.19-0.98,6.26-1.93,9.06-2.79
		c10.47-7.04,19.43-16,30.62-21.42c2.72-3.03,5.52-5.95,8.08-9.06c2.14-2.6,3.81-5.6,6.05-8.1c1.86-2.07,3.98-4.3,6.45-5.34
		c4.53-1.89,9.35-3.31,14.18-4.21c2.49-0.47,6.55-0.36,7.67,1.14c4.08,5.49,10.5,10.19,8.46,18.9c3.14,2.45,6.48,4.75,9.45,7.45
		c4.56,4.15,9.2,8.3,13.18,12.98c3.26,3.83,3.05,8.62,0.52,12.96c-2.55,4.38-2.61,8.32-0.31,13.03c5.14,10.52,4,21.58,1.26,32.52
		c-0.71,2.83-1.96,5.53-3.26,9.11c-2.98-3.33-6.6-11.48-9.8-15.05c0.69,8.02,3.45,20.63-0.72,27.85
		c-10.55-4.5-17.28-13.85-27.51-19.6c1.24,5.75,9.05,21.55,8.24,23.75c-6-6-20.37-12.49-21.94-12.5l5.94,20.5c-3.77-1.67-12-9-16-10
		c0.03,3.55-0.03,12.33,0,16c-1.89-0.06-6.95-6.02-9.37-6.1c-2.63,1.75-12.56,7.95-13.1,15.14c-0.91,12.02,1.68,22.86,8.35,33.17
		c3.32,5.13,16.03,13.1,23.39,10.66 M137,87.31c2,0,6-1,6-1c3,3,9.78,9,16,9c6,0,27.94-14.52,27-17C171,78.31,144.28,82.7,137,87.31
		z"/>
</g>
</svg>
